SplineFontDB: 3.2
FontName: SonyFixed8x16
FullName: Sony Fixed 8x16
FamilyName: Sony Fixed 8x16
Weight: Medium
Copyright: Copyright (c) 1987, 1988 Sony Corp.
UComments: "2020-2-13: Created with FontForge (http://fontforge.org)"
Version: 001.000
ItalicAngle: 0
UnderlinePosition: -100
UnderlineWidth: 50
Ascent: 875
Descent: 125
InvalidEm: 0
LayerCount: 2
Layer: 0 0 "Back" 1
Layer: 1 0 "Fore" 0
XUID: [1021 920 -959342055 13070649]
StyleMap: 0x0000
FSType: 0
OS2Version: 0
OS2_WeightWidthSlopeOnly: 0
OS2_UseTypoMetrics: 1
CreationTime: 1581572107
ModificationTime: 1581572108
OS2TypoAscent: 0
OS2TypoAOffset: 1
OS2TypoDescent: 0
OS2TypoDOffset: 1
OS2TypoLinegap: 90
OS2WinAscent: 0
OS2WinAOffset: 1
OS2WinDescent: 0
OS2WinDOffset: 1
HheadAscent: 0
HheadAOffset: 1
HheadDescent: 0
HheadDOffset: 1
DEI: 91125
Encoding: ISO8859-1
UnicodeInterp: none
NameList: AGL For New Fonts
DisplaySize: 16
AntiAlias: 1
FitToEm: 0
BeginChars: 256 221

StartChar: C001
Encoding: 1 1 0
Width: 500
VWidth: 0
Flags: HW
LayerCount: 2
Back
Fore
SplineSet
187.5 812.5 m 1
 250 812.5 l 1
 250 875 l 1
 187.5 875 l 1
 187.5 812.5 l 1025
187.5 750 m 1
 250 750 l 1
 250 812.5 l 1
 187.5 812.5 l 1
 187.5 750 l 1025
125 687.5 m 1
 312.5 687.5 l 1
 312.5 750 l 1
 125 750 l 1
 125 687.5 l 1025
125 625 m 1
 312.5 625 l 1
 312.5 687.5 l 1
 125 687.5 l 1
 125 625 l 1025
62.5 562.5 m 1
 375 562.5 l 1
 375 625 l 1
 62.5 625 l 1
 62.5 562.5 l 1025
62.5 500 m 1
 375 500 l 1
 375 562.5 l 1
 62.5 562.5 l 1
 62.5 500 l 1025
0 437.5 m 1
 437.5 437.5 l 1
 437.5 500 l 1
 0 500 l 1
 0 437.5 l 1025
0 375 m 1
 437.5 375 l 1
 437.5 437.5 l 1
 0 437.5 l 1
 0 375 l 1025
62.5 312.5 m 1
 375 312.5 l 1
 375 375 l 1
 62.5 375 l 1
 62.5 312.5 l 1025
62.5 250 m 1
 375 250 l 1
 375 312.5 l 1
 62.5 312.5 l 1
 62.5 250 l 1025
125 187.5 m 1
 312.5 187.5 l 1
 312.5 250 l 1
 125 250 l 1
 125 187.5 l 1025
125 125 m 1
 312.5 125 l 1
 312.5 187.5 l 1
 125 187.5 l 1
 125 125 l 1025
187.5 62.5 m 1
 250 62.5 l 1
 250 125 l 1
 187.5 125 l 1
 187.5 62.5 l 1025
187.5 0 m 1
 250 0 l 1
 250 62.5 l 1
 187.5 62.5 l 1
 187.5 0 l 1
EndSplineSet
EndChar

StartChar: C002
Encoding: 2 2 1
Width: 500
VWidth: 0
Flags: HW
LayerCount: 2
Back
Fore
SplineSet
0 812.5 m 1
 62.5 812.5 l 1
 62.5 875 l 1
 0 875 l 1
 0 812.5 l 1025
187.5 812.5 m 1
 250 812.5 l 1
 250 875 l 1
 187.5 875 l 1
 187.5 812.5 l 1025
375 812.5 m 1
 437.5 812.5 l 1
 437.5 875 l 1
 375 875 l 1
 375 812.5 l 1025
0 750 m 1
 62.5 750 l 1
 62.5 812.5 l 1
 0 812.5 l 1
 0 750 l 1025
187.5 750 m 1
 250 750 l 1
 250 812.5 l 1
 187.5 812.5 l 1
 187.5 750 l 1025
375 750 m 1
 437.5 750 l 1
 437.5 812.5 l 1
 375 812.5 l 1
 375 750 l 1025
62.5 687.5 m 1
 125 687.5 l 1
 125 750 l 1
 62.5 750 l 1
 62.5 687.5 l 1025
312.5 687.5 m 1
 375 687.5 l 1
 375 750 l 1
 312.5 750 l 1
 312.5 687.5 l 1025
62.5 625 m 1
 125 625 l 1
 125 687.5 l 1
 62.5 687.5 l 1
 62.5 625 l 1025
312.5 625 m 1
 375 625 l 1
 375 687.5 l 1
 312.5 687.5 l 1
 312.5 625 l 1025
0 562.5 m 1
 62.5 562.5 l 1
 62.5 625 l 1
 0 625 l 1
 0 562.5 l 1025
187.5 562.5 m 1
 250 562.5 l 1
 250 625 l 1
 187.5 625 l 1
 187.5 562.5 l 1025
375 562.5 m 1
 437.5 562.5 l 1
 437.5 625 l 1
 375 625 l 1
 375 562.5 l 1025
0 500 m 1
 62.5 500 l 1
 62.5 562.5 l 1
 0 562.5 l 1
 0 500 l 1025
187.5 500 m 1
 250 500 l 1
 250 562.5 l 1
 187.5 562.5 l 1
 187.5 500 l 1025
375 500 m 1
 437.5 500 l 1
 437.5 562.5 l 1
 375 562.5 l 1
 375 500 l 1025
62.5 437.5 m 1
 125 437.5 l 1
 125 500 l 1
 62.5 500 l 1
 62.5 437.5 l 1025
312.5 437.5 m 1
 375 437.5 l 1
 375 500 l 1
 312.5 500 l 1
 312.5 437.5 l 1025
62.5 375 m 1
 125 375 l 1
 125 437.5 l 1
 62.5 437.5 l 1
 62.5 375 l 1025
312.5 375 m 1
 375 375 l 1
 375 437.5 l 1
 312.5 437.5 l 1
 312.5 375 l 1025
0 312.5 m 1
 62.5 312.5 l 1
 62.5 375 l 1
 0 375 l 1
 0 312.5 l 1025
187.5 312.5 m 1
 250 312.5 l 1
 250 375 l 1
 187.5 375 l 1
 187.5 312.5 l 1025
375 312.5 m 1
 437.5 312.5 l 1
 437.5 375 l 1
 375 375 l 1
 375 312.5 l 1025
0 250 m 1
 62.5 250 l 1
 62.5 312.5 l 1
 0 312.5 l 1
 0 250 l 1025
187.5 250 m 1
 250 250 l 1
 250 312.5 l 1
 187.5 312.5 l 1
 187.5 250 l 1025
375 250 m 1
 437.5 250 l 1
 437.5 312.5 l 1
 375 312.5 l 1
 375 250 l 1025
62.5 187.5 m 1
 125 187.5 l 1
 125 250 l 1
 62.5 250 l 1
 62.5 187.5 l 1025
312.5 187.5 m 1
 375 187.5 l 1
 375 250 l 1
 312.5 250 l 1
 312.5 187.5 l 1025
62.5 125 m 1
 125 125 l 1
 125 187.5 l 1
 62.5 187.5 l 1
 62.5 125 l 1025
312.5 125 m 1
 375 125 l 1
 375 187.5 l 1
 312.5 187.5 l 1
 312.5 125 l 1025
0 62.5 m 1
 62.5 62.5 l 1
 62.5 125 l 1
 0 125 l 1
 0 62.5 l 1025
187.5 62.5 m 1
 250 62.5 l 1
 250 125 l 1
 187.5 125 l 1
 187.5 62.5 l 1025
375 62.5 m 1
 437.5 62.5 l 1
 437.5 125 l 1
 375 125 l 1
 375 62.5 l 1025
0 0 m 1
 62.5 0 l 1
 62.5 62.5 l 1
 0 62.5 l 1
 0 0 l 1025
187.5 0 m 1
 250 0 l 1
 250 62.5 l 1
 187.5 62.5 l 1
 187.5 0 l 1025
375 0 m 1
 437.5 0 l 1
 437.5 62.5 l 1
 375 62.5 l 1
 375 0 l 1
EndSplineSet
EndChar

StartChar: C003
Encoding: 3 3 2
Width: 500
VWidth: 0
Flags: HW
LayerCount: 2
Back
Fore
SplineSet
0 750 m 1
 62.5 750 l 1
 62.5 812.5 l 1
 0 812.5 l 1
 0 750 l 1025
250 750 m 1
 312.5 750 l 1
 312.5 812.5 l 1
 250 812.5 l 1
 250 750 l 1025
0 687.5 m 1
 62.5 687.5 l 1
 62.5 750 l 1
 0 750 l 1
 0 687.5 l 1025
250 687.5 m 1
 312.5 687.5 l 1
 312.5 750 l 1
 250 750 l 1
 250 687.5 l 1025
0 625 m 1
 62.5 625 l 1
 62.5 687.5 l 1
 0 687.5 l 1
 0 625 l 1025
250 625 m 1
 312.5 625 l 1
 312.5 687.5 l 1
 250 687.5 l 1
 250 625 l 1025
0 562.5 m 1
 312.5 562.5 l 1
 312.5 625 l 1
 0 625 l 1
 0 562.5 l 1025
0 500 m 1
 62.5 500 l 1
 62.5 562.5 l 1
 0 562.5 l 1
 0 500 l 1025
250 500 m 1
 312.5 500 l 1
 312.5 562.5 l 1
 250 562.5 l 1
 250 500 l 1025
0 437.5 m 1
 62.5 437.5 l 1
 62.5 500 l 1
 0 500 l 1
 0 437.5 l 1025
250 437.5 m 1
 312.5 437.5 l 1
 312.5 500 l 1
 250 500 l 1
 250 437.5 l 1025
0 375 m 1
 62.5 375 l 1
 62.5 437.5 l 1
 0 437.5 l 1
 0 375 l 1025
250 375 m 1
 312.5 375 l 1
 312.5 437.5 l 1
 250 437.5 l 1
 250 375 l 1025
125 250 m 1
 437.5 250 l 1
 437.5 312.5 l 1
 125 312.5 l 1
 125 250 l 1025
250 187.5 m 1
 312.5 187.5 l 1
 312.5 250 l 1
 250 250 l 1
 250 187.5 l 1025
250 125 m 1
 312.5 125 l 1
 312.5 187.5 l 1
 250 187.5 l 1
 250 125 l 1025
250 62.5 m 1
 312.5 62.5 l 1
 312.5 125 l 1
 250 125 l 1
 250 62.5 l 1025
250 0 m 1
 312.5 0 l 1
 312.5 62.5 l 1
 250 62.5 l 1
 250 0 l 1025
250 -62.5 m 1
 312.5 -62.5 l 1
 312.5 0 l 1
 250 0 l 1
 250 -62.5 l 1025
250 -125 m 1
 312.5 -125 l 1
 312.5 -62.5 l 1
 250 -62.5 l 1
 250 -125 l 1
EndSplineSet
EndChar

StartChar: C004
Encoding: 4 4 3
Width: 500
VWidth: 0
Flags: HW
LayerCount: 2
Back
Fore
SplineSet
0 750 m 1
 312.5 750 l 1
 312.5 812.5 l 1
 0 812.5 l 1
 0 750 l 1025
0 687.5 m 1
 62.5 687.5 l 1
 62.5 750 l 1
 0 750 l 1
 0 687.5 l 1025
0 625 m 1
 62.5 625 l 1
 62.5 687.5 l 1
 0 687.5 l 1
 0 625 l 1025
0 562.5 m 1
 250 562.5 l 1
 250 625 l 1
 0 625 l 1
 0 562.5 l 1025
0 500 m 1
 62.5 500 l 1
 62.5 562.5 l 1
 0 562.5 l 1
 0 500 l 1025
0 437.5 m 1
 62.5 437.5 l 1
 62.5 500 l 1
 0 500 l 1
 0 437.5 l 1025
0 375 m 1
 62.5 375 l 1
 62.5 437.5 l 1
 0 437.5 l 1
 0 375 l 1025
125 312.5 m 1
 437.5 312.5 l 1
 437.5 375 l 1
 125 375 l 1
 125 312.5 l 1025
125 250 m 1
 187.5 250 l 1
 187.5 312.5 l 1
 125 312.5 l 1
 125 250 l 1025
125 187.5 m 1
 187.5 187.5 l 1
 187.5 250 l 1
 125 250 l 1
 125 187.5 l 1025
125 125 m 1
 375 125 l 1
 375 187.5 l 1
 125 187.5 l 1
 125 125 l 1025
125 62.5 m 1
 187.5 62.5 l 1
 187.5 125 l 1
 125 125 l 1
 125 62.5 l 1025
125 0 m 1
 187.5 0 l 1
 187.5 62.5 l 1
 125 62.5 l 1
 125 0 l 1025
125 -62.5 m 1
 187.5 -62.5 l 1
 187.5 0 l 1
 125 0 l 1
 125 -62.5 l 1
EndSplineSet
EndChar

StartChar: C005
Encoding: 5 5 4
Width: 500
VWidth: 0
Flags: HW
LayerCount: 2
Back
Fore
SplineSet
62.5 750 m 1
 250 750 l 1
 250 812.5 l 1
 62.5 812.5 l 1
 62.5 750 l 1025
0 687.5 m 1
 62.5 687.5 l 1
 62.5 750 l 1
 0 750 l 1
 0 687.5 l 1025
250 687.5 m 1
 312.5 687.5 l 1
 312.5 750 l 1
 250 750 l 1
 250 687.5 l 1025
0 625 m 1
 62.5 625 l 1
 62.5 687.5 l 1
 0 687.5 l 1
 0 625 l 1025
0 562.5 m 1
 62.5 562.5 l 1
 62.5 625 l 1
 0 625 l 1
 0 562.5 l 1025
0 500 m 1
 62.5 500 l 1
 62.5 562.5 l 1
 0 562.5 l 1
 0 500 l 1025
0 437.5 m 1
 62.5 437.5 l 1
 62.5 500 l 1
 0 500 l 1
 0 437.5 l 1025
250 437.5 m 1
 312.5 437.5 l 1
 312.5 500 l 1
 250 500 l 1
 250 437.5 l 1025
62.5 375 m 1
 250 375 l 1
 250 437.5 l 1
 62.5 437.5 l 1
 62.5 375 l 1025
125 250 m 1
 375 250 l 1
 375 312.5 l 1
 125 312.5 l 1
 125 250 l 1025
125 187.5 m 1
 187.5 187.5 l 1
 187.5 250 l 1
 125 250 l 1
 125 187.5 l 1025
375 187.5 m 1
 437.5 187.5 l 1
 437.5 250 l 1
 375 250 l 1
 375 187.5 l 1025
125 125 m 1
 187.5 125 l 1
 187.5 187.5 l 1
 125 187.5 l 1
 125 125 l 1025
375 125 m 1
 437.5 125 l 1
 437.5 187.5 l 1
 375 187.5 l 1
 375 125 l 1025
125 62.5 m 1
 375 62.5 l 1
 375 125 l 1
 125 125 l 1
 125 62.5 l 1025
125 0 m 1
 187.5 0 l 1
 187.5 62.5 l 1
 125 62.5 l 1
 125 0 l 1025
250 0 m 1
 312.5 0 l 1
 312.5 62.5 l 1
 250 62.5 l 1
 250 0 l 1025
125 -62.5 m 1
 187.5 -62.5 l 1
 187.5 0 l 1
 125 0 l 1
 125 -62.5 l 1025
312.5 -62.5 m 1
 375 -62.5 l 1
 375 0 l 1
 312.5 0 l 1
 312.5 -62.5 l 1025
125 -125 m 1
 187.5 -125 l 1
 187.5 -62.5 l 1
 125 -62.5 l 1
 125 -125 l 1025
375 -125 m 1
 437.5 -125 l 1
 437.5 -62.5 l 1
 375 -62.5 l 1
 375 -125 l 1
EndSplineSet
EndChar

StartChar: C006
Encoding: 6 6 5
Width: 500
VWidth: 0
Flags: HW
LayerCount: 2
Back
Fore
SplineSet
0 750 m 1
 62.5 750 l 1
 62.5 812.5 l 1
 0 812.5 l 1
 0 750 l 1025
0 687.5 m 1
 62.5 687.5 l 1
 62.5 750 l 1
 0 750 l 1
 0 687.5 l 1025
0 625 m 1
 62.5 625 l 1
 62.5 687.5 l 1
 0 687.5 l 1
 0 625 l 1025
0 562.5 m 1
 62.5 562.5 l 1
 62.5 625 l 1
 0 625 l 1
 0 562.5 l 1025
0 500 m 1
 62.5 500 l 1
 62.5 562.5 l 1
 0 562.5 l 1
 0 500 l 1025
0 437.5 m 1
 62.5 437.5 l 1
 62.5 500 l 1
 0 500 l 1
 0 437.5 l 1025
0 375 m 1
 312.5 375 l 1
 312.5 437.5 l 1
 0 437.5 l 1
 0 375 l 1025
125 250 m 1
 437.5 250 l 1
 437.5 312.5 l 1
 125 312.5 l 1
 125 250 l 1025
125 187.5 m 1
 187.5 187.5 l 1
 187.5 250 l 1
 125 250 l 1
 125 187.5 l 1025
125 125 m 1
 187.5 125 l 1
 187.5 187.5 l 1
 125 187.5 l 1
 125 125 l 1025
125 62.5 m 1
 375 62.5 l 1
 375 125 l 1
 125 125 l 1
 125 62.5 l 1025
125 0 m 1
 187.5 0 l 1
 187.5 62.5 l 1
 125 62.5 l 1
 125 0 l 1025
125 -62.5 m 1
 187.5 -62.5 l 1
 187.5 0 l 1
 125 0 l 1
 125 -62.5 l 1025
125 -125 m 1
 187.5 -125 l 1
 187.5 -62.5 l 1
 125 -62.5 l 1
 125 -125 l 1
EndSplineSet
EndChar

StartChar: C007
Encoding: 7 7 6
Width: 500
VWidth: 0
Flags: HW
LayerCount: 2
Back
Fore
SplineSet
125 687.5 m 1
 312.5 687.5 l 1
 312.5 750 l 1
 125 750 l 1
 125 687.5 l 1025
62.5 625 m 1
 125 625 l 1
 125 687.5 l 1
 62.5 687.5 l 1
 62.5 625 l 1025
312.5 625 m 1
 375 625 l 1
 375 687.5 l 1
 312.5 687.5 l 1
 312.5 625 l 1025
62.5 562.5 m 1
 125 562.5 l 1
 125 625 l 1
 62.5 625 l 1
 62.5 562.5 l 1025
312.5 562.5 m 1
 375 562.5 l 1
 375 625 l 1
 312.5 625 l 1
 312.5 562.5 l 1025
62.5 500 m 1
 125 500 l 1
 125 562.5 l 1
 62.5 562.5 l 1
 62.5 500 l 1025
312.5 500 m 1
 375 500 l 1
 375 562.5 l 1
 312.5 562.5 l 1
 312.5 500 l 1025
125 437.5 m 1
 312.5 437.5 l 1
 312.5 500 l 1
 125 500 l 1
 125 437.5 l 1
EndSplineSet
EndChar

StartChar: C010
Encoding: 8 8 7
Width: 500
VWidth: 0
Flags: HW
LayerCount: 2
Back
Fore
SplineSet
187.5 687.5 m 1
 250 687.5 l 1
 250 750 l 1
 187.5 750 l 1
 187.5 687.5 l 1025
187.5 625 m 1
 250 625 l 1
 250 687.5 l 1
 187.5 687.5 l 1
 187.5 625 l 1025
187.5 562.5 m 1
 250 562.5 l 1
 250 625 l 1
 187.5 625 l 1
 187.5 562.5 l 1025
187.5 500 m 1
 250 500 l 1
 250 562.5 l 1
 187.5 562.5 l 1
 187.5 500 l 1025
0 437.5 m 1
 437.5 437.5 l 1
 437.5 500 l 1
 0 500 l 1
 0 437.5 l 1025
187.5 375 m 1
 250 375 l 1
 250 437.5 l 1
 187.5 437.5 l 1
 187.5 375 l 1025
187.5 312.5 m 1
 250 312.5 l 1
 250 375 l 1
 187.5 375 l 1
 187.5 312.5 l 1025
187.5 250 m 1
 250 250 l 1
 250 312.5 l 1
 187.5 312.5 l 1
 187.5 250 l 1025
187.5 187.5 m 1
 250 187.5 l 1
 250 250 l 1
 187.5 250 l 1
 187.5 187.5 l 1025
0 62.5 m 1
 437.5 62.5 l 1
 437.5 125 l 1
 0 125 l 1
 0 62.5 l 1
EndSplineSet
EndChar

StartChar: C011
Encoding: 9 9 8
Width: 500
VWidth: 0
Flags: HW
LayerCount: 2
Back
Fore
SplineSet
0 750 m 1
 62.5 750 l 1
 62.5 812.5 l 1
 0 812.5 l 1
 0 750 l 1025
312.5 750 m 1
 375 750 l 1
 375 812.5 l 1
 312.5 812.5 l 1
 312.5 750 l 1025
0 687.5 m 1
 125 687.5 l 1
 125 750 l 1
 0 750 l 1
 0 687.5 l 1025
312.5 687.5 m 1
 375 687.5 l 1
 375 750 l 1
 312.5 750 l 1
 312.5 687.5 l 1025
0 625 m 1
 62.5 625 l 1
 62.5 687.5 l 1
 0 687.5 l 1
 0 625 l 1025
125 625 m 1
 187.5 625 l 1
 187.5 687.5 l 1
 125 687.5 l 1
 125 625 l 1025
312.5 625 m 1
 375 625 l 1
 375 687.5 l 1
 312.5 687.5 l 1
 312.5 625 l 1025
0 562.5 m 1
 62.5 562.5 l 1
 62.5 625 l 1
 0 625 l 1
 0 562.5 l 1025
125 562.5 m 1
 187.5 562.5 l 1
 187.5 625 l 1
 125 625 l 1
 125 562.5 l 1025
312.5 562.5 m 1
 375 562.5 l 1
 375 625 l 1
 312.5 625 l 1
 312.5 562.5 l 1025
0 500 m 1
 62.5 500 l 1
 62.5 562.5 l 1
 0 562.5 l 1
 0 500 l 1025
187.5 500 m 1
 250 500 l 1
 250 562.5 l 1
 187.5 562.5 l 1
 187.5 500 l 1025
312.5 500 m 1
 375 500 l 1
 375 562.5 l 1
 312.5 562.5 l 1
 312.5 500 l 1025
0 437.5 m 1
 62.5 437.5 l 1
 62.5 500 l 1
 0 500 l 1
 0 437.5 l 1025
187.5 437.5 m 1
 250 437.5 l 1
 250 500 l 1
 187.5 500 l 1
 187.5 437.5 l 1025
312.5 437.5 m 1
 375 437.5 l 1
 375 500 l 1
 312.5 500 l 1
 312.5 437.5 l 1025
0 375 m 1
 62.5 375 l 1
 62.5 437.5 l 1
 0 437.5 l 1
 0 375 l 1025
250 375 m 1
 375 375 l 1
 375 437.5 l 1
 250 437.5 l 1
 250 375 l 1025
0 312.5 m 1
 62.5 312.5 l 1
 62.5 375 l 1
 0 375 l 1
 0 312.5 l 1025
312.5 312.5 m 1
 375 312.5 l 1
 375 375 l 1
 312.5 375 l 1
 312.5 312.5 l 1025
125 250 m 1
 187.5 250 l 1
 187.5 312.5 l 1
 125 312.5 l 1
 125 250 l 1025
125 187.5 m 1
 187.5 187.5 l 1
 187.5 250 l 1
 125 250 l 1
 125 187.5 l 1025
125 125 m 1
 187.5 125 l 1
 187.5 187.5 l 1
 125 187.5 l 1
 125 125 l 1025
125 62.5 m 1
 187.5 62.5 l 1
 187.5 125 l 1
 125 125 l 1
 125 62.5 l 1025
125 0 m 1
 187.5 0 l 1
 187.5 62.5 l 1
 125 62.5 l 1
 125 0 l 1025
125 -62.5 m 1
 187.5 -62.5 l 1
 187.5 0 l 1
 125 0 l 1
 125 -62.5 l 1025
125 -125 m 1
 437.5 -125 l 1
 437.5 -62.5 l 1
 125 -62.5 l 1
 125 -125 l 1
EndSplineSet
EndChar

StartChar: C012
Encoding: 10 10 9
Width: 500
VWidth: 0
Flags: HW
LayerCount: 2
Back
Fore
SplineSet
0 687.5 m 1
 62.5 687.5 l 1
 62.5 750 l 1
 0 750 l 1
 0 687.5 l 1025
250 687.5 m 1
 312.5 687.5 l 1
 312.5 750 l 1
 250 750 l 1
 250 687.5 l 1025
0 625 m 1
 62.5 625 l 1
 62.5 687.5 l 1
 0 687.5 l 1
 0 625 l 1025
250 625 m 1
 312.5 625 l 1
 312.5 687.5 l 1
 250 687.5 l 1
 250 625 l 1025
0 562.5 m 1
 62.5 562.5 l 1
 62.5 625 l 1
 0 625 l 1
 0 562.5 l 1025
250 562.5 m 1
 312.5 562.5 l 1
 312.5 625 l 1
 250 625 l 1
 250 562.5 l 1025
62.5 500 m 1
 125 500 l 1
 125 562.5 l 1
 62.5 562.5 l 1
 62.5 500 l 1025
187.5 500 m 1
 250 500 l 1
 250 562.5 l 1
 187.5 562.5 l 1
 187.5 500 l 1025
62.5 437.5 m 1
 125 437.5 l 1
 125 500 l 1
 62.5 500 l 1
 62.5 437.5 l 1025
187.5 437.5 m 1
 250 437.5 l 1
 250 500 l 1
 187.5 500 l 1
 187.5 437.5 l 1025
125 375 m 1
 187.5 375 l 1
 187.5 437.5 l 1
 125 437.5 l 1
 125 375 l 1025
125 250 m 1
 437.5 250 l 1
 437.5 312.5 l 1
 125 312.5 l 1
 125 250 l 1025
250 187.5 m 1
 312.5 187.5 l 1
 312.5 250 l 1
 250 250 l 1
 250 187.5 l 1025
250 125 m 1
 312.5 125 l 1
 312.5 187.5 l 1
 250 187.5 l 1
 250 125 l 1025
250 62.5 m 1
 312.5 62.5 l 1
 312.5 125 l 1
 250 125 l 1
 250 62.5 l 1025
250 0 m 1
 312.5 0 l 1
 312.5 62.5 l 1
 250 62.5 l 1
 250 0 l 1025
250 -62.5 m 1
 312.5 -62.5 l 1
 312.5 0 l 1
 250 0 l 1
 250 -62.5 l 1
EndSplineSet
EndChar

StartChar: C013
Encoding: 11 11 10
Width: 500
VWidth: 0
Flags: HW
LayerCount: 2
Back
Fore
SplineSet
187.5 812.5 m 1
 250 812.5 l 1
 250 875 l 1
 187.5 875 l 1
 187.5 812.5 l 1025
187.5 750 m 1
 250 750 l 1
 250 812.5 l 1
 187.5 812.5 l 1
 187.5 750 l 1025
187.5 687.5 m 1
 250 687.5 l 1
 250 750 l 1
 187.5 750 l 1
 187.5 687.5 l 1025
187.5 625 m 1
 250 625 l 1
 250 687.5 l 1
 187.5 687.5 l 1
 187.5 625 l 1025
187.5 562.5 m 1
 250 562.5 l 1
 250 625 l 1
 187.5 625 l 1
 187.5 562.5 l 1025
187.5 500 m 1
 250 500 l 1
 250 562.5 l 1
 187.5 562.5 l 1
 187.5 500 l 1025
187.5 437.5 m 1
 250 437.5 l 1
 250 500 l 1
 187.5 500 l 1
 187.5 437.5 l 1025
187.5 375 m 1
 250 375 l 1
 250 437.5 l 1
 187.5 437.5 l 1
 187.5 375 l 1025
0 312.5 m 1
 250 312.5 l 1
 250 375 l 1
 0 375 l 1
 0 312.5 l 1
EndSplineSet
EndChar

StartChar: C014
Encoding: 12 12 11
Width: 500
VWidth: 0
Flags: HW
LayerCount: 2
Back
Fore
SplineSet
0 312.5 m 1
 250 312.5 l 1
 250 375 l 1
 0 375 l 1
 0 312.5 l 1025
187.5 250 m 1
 250 250 l 1
 250 312.5 l 1
 187.5 312.5 l 1
 187.5 250 l 1025
187.5 187.5 m 1
 250 187.5 l 1
 250 250 l 1
 187.5 250 l 1
 187.5 187.5 l 1025
187.5 125 m 1
 250 125 l 1
 250 187.5 l 1
 187.5 187.5 l 1
 187.5 125 l 1025
187.5 62.5 m 1
 250 62.5 l 1
 250 125 l 1
 187.5 125 l 1
 187.5 62.5 l 1025
187.5 0 m 1
 250 0 l 1
 250 62.5 l 1
 187.5 62.5 l 1
 187.5 0 l 1025
187.5 -62.5 m 1
 250 -62.5 l 1
 250 0 l 1
 187.5 0 l 1
 187.5 -62.5 l 1025
187.5 -125 m 1
 250 -125 l 1
 250 -62.5 l 1
 187.5 -62.5 l 1
 187.5 -125 l 1
EndSplineSet
EndChar

StartChar: C015
Encoding: 13 13 12
Width: 500
VWidth: 0
Flags: HW
LayerCount: 2
Back
Fore
SplineSet
187.5 312.5 m 1
 500 312.5 l 1
 500 375 l 1
 187.5 375 l 1
 187.5 312.5 l 1025
187.5 250 m 1
 250 250 l 1
 250 312.5 l 1
 187.5 312.5 l 1
 187.5 250 l 1025
187.5 187.5 m 1
 250 187.5 l 1
 250 250 l 1
 187.5 250 l 1
 187.5 187.5 l 1025
187.5 125 m 1
 250 125 l 1
 250 187.5 l 1
 187.5 187.5 l 1
 187.5 125 l 1025
187.5 62.5 m 1
 250 62.5 l 1
 250 125 l 1
 187.5 125 l 1
 187.5 62.5 l 1025
187.5 0 m 1
 250 0 l 1
 250 62.5 l 1
 187.5 62.5 l 1
 187.5 0 l 1025
187.5 -62.5 m 1
 250 -62.5 l 1
 250 0 l 1
 187.5 0 l 1
 187.5 -62.5 l 1025
187.5 -125 m 1
 250 -125 l 1
 250 -62.5 l 1
 187.5 -62.5 l 1
 187.5 -125 l 1
EndSplineSet
EndChar

StartChar: C016
Encoding: 14 14 13
Width: 500
VWidth: 0
Flags: HW
LayerCount: 2
Back
Fore
SplineSet
187.5 812.5 m 1
 250 812.5 l 1
 250 875 l 1
 187.5 875 l 1
 187.5 812.5 l 1025
187.5 750 m 1
 250 750 l 1
 250 812.5 l 1
 187.5 812.5 l 1
 187.5 750 l 1025
187.5 687.5 m 1
 250 687.5 l 1
 250 750 l 1
 187.5 750 l 1
 187.5 687.5 l 1025
187.5 625 m 1
 250 625 l 1
 250 687.5 l 1
 187.5 687.5 l 1
 187.5 625 l 1025
187.5 562.5 m 1
 250 562.5 l 1
 250 625 l 1
 187.5 625 l 1
 187.5 562.5 l 1025
187.5 500 m 1
 250 500 l 1
 250 562.5 l 1
 187.5 562.5 l 1
 187.5 500 l 1025
187.5 437.5 m 1
 250 437.5 l 1
 250 500 l 1
 187.5 500 l 1
 187.5 437.5 l 1025
187.5 375 m 1
 250 375 l 1
 250 437.5 l 1
 187.5 437.5 l 1
 187.5 375 l 1025
187.5 312.5 m 1
 500 312.5 l 1
 500 375 l 1
 187.5 375 l 1
 187.5 312.5 l 1
EndSplineSet
EndChar

StartChar: C017
Encoding: 15 15 14
Width: 500
VWidth: 0
Flags: HW
LayerCount: 2
Back
Fore
SplineSet
187.5 812.5 m 1
 250 812.5 l 1
 250 875 l 1
 187.5 875 l 1
 187.5 812.5 l 1025
187.5 750 m 1
 250 750 l 1
 250 812.5 l 1
 187.5 812.5 l 1
 187.5 750 l 1025
187.5 687.5 m 1
 250 687.5 l 1
 250 750 l 1
 187.5 750 l 1
 187.5 687.5 l 1025
187.5 625 m 1
 250 625 l 1
 250 687.5 l 1
 187.5 687.5 l 1
 187.5 625 l 1025
187.5 562.5 m 1
 250 562.5 l 1
 250 625 l 1
 187.5 625 l 1
 187.5 562.5 l 1025
187.5 500 m 1
 250 500 l 1
 250 562.5 l 1
 187.5 562.5 l 1
 187.5 500 l 1025
187.5 437.5 m 1
 250 437.5 l 1
 250 500 l 1
 187.5 500 l 1
 187.5 437.5 l 1025
187.5 375 m 1
 250 375 l 1
 250 437.5 l 1
 187.5 437.5 l 1
 187.5 375 l 1025
0 312.5 m 1
 500 312.5 l 1
 500 375 l 1
 0 375 l 1
 0 312.5 l 1025
187.5 250 m 1
 250 250 l 1
 250 312.5 l 1
 187.5 312.5 l 1
 187.5 250 l 1025
187.5 187.5 m 1
 250 187.5 l 1
 250 250 l 1
 187.5 250 l 1
 187.5 187.5 l 1025
187.5 125 m 1
 250 125 l 1
 250 187.5 l 1
 187.5 187.5 l 1
 187.5 125 l 1025
187.5 62.5 m 1
 250 62.5 l 1
 250 125 l 1
 187.5 125 l 1
 187.5 62.5 l 1025
187.5 0 m 1
 250 0 l 1
 250 62.5 l 1
 187.5 62.5 l 1
 187.5 0 l 1025
187.5 -62.5 m 1
 250 -62.5 l 1
 250 0 l 1
 187.5 0 l 1
 187.5 -62.5 l 1025
187.5 -125 m 1
 250 -125 l 1
 250 -62.5 l 1
 187.5 -62.5 l 1
 187.5 -125 l 1
EndSplineSet
EndChar

StartChar: C020
Encoding: 16 16 15
Width: 500
VWidth: 0
Flags: HW
LayerCount: 2
Back
Fore
SplineSet
0 687.5 m 1
 500 687.5 l 1
 500 750 l 1
 0 750 l 1
 0 687.5 l 1
EndSplineSet
EndChar

StartChar: C021
Encoding: 17 17 16
Width: 500
VWidth: 0
Flags: HW
LayerCount: 2
Back
Fore
SplineSet
0 500 m 1
 500 500 l 1
 500 562.5 l 1
 0 562.5 l 1
 0 500 l 1
EndSplineSet
EndChar

StartChar: C022
Encoding: 18 18 17
Width: 500
VWidth: 0
Flags: HW
LayerCount: 2
Back
Fore
SplineSet
0 312.5 m 1
 500 312.5 l 1
 500 375 l 1
 0 375 l 1
 0 312.5 l 1
EndSplineSet
EndChar

StartChar: C023
Encoding: 19 19 18
Width: 500
VWidth: 0
Flags: HW
LayerCount: 2
Back
Fore
SplineSet
0 125 m 1
 500 125 l 1
 500 187.5 l 1
 0 187.5 l 1
 0 125 l 1
EndSplineSet
EndChar

StartChar: C024
Encoding: 20 20 19
Width: 500
VWidth: 0
Flags: HW
LayerCount: 2
Back
Fore
SplineSet
0 -62.5 m 1
 500 -62.5 l 1
 500 0 l 1
 0 0 l 1
 0 -62.5 l 1
EndSplineSet
EndChar

StartChar: C025
Encoding: 21 21 20
Width: 500
VWidth: 0
Flags: HW
LayerCount: 2
Back
Fore
SplineSet
187.5 812.5 m 1
 250 812.5 l 1
 250 875 l 1
 187.5 875 l 1
 187.5 812.5 l 1025
187.5 750 m 1
 250 750 l 1
 250 812.5 l 1
 187.5 812.5 l 1
 187.5 750 l 1025
187.5 687.5 m 1
 250 687.5 l 1
 250 750 l 1
 187.5 750 l 1
 187.5 687.5 l 1025
187.5 625 m 1
 250 625 l 1
 250 687.5 l 1
 187.5 687.5 l 1
 187.5 625 l 1025
187.5 562.5 m 1
 250 562.5 l 1
 250 625 l 1
 187.5 625 l 1
 187.5 562.5 l 1025
187.5 500 m 1
 250 500 l 1
 250 562.5 l 1
 187.5 562.5 l 1
 187.5 500 l 1025
187.5 437.5 m 1
 250 437.5 l 1
 250 500 l 1
 187.5 500 l 1
 187.5 437.5 l 1025
187.5 375 m 1
 250 375 l 1
 250 437.5 l 1
 187.5 437.5 l 1
 187.5 375 l 1025
187.5 312.5 m 1
 500 312.5 l 1
 500 375 l 1
 187.5 375 l 1
 187.5 312.5 l 1025
187.5 250 m 1
 250 250 l 1
 250 312.5 l 1
 187.5 312.5 l 1
 187.5 250 l 1025
187.5 187.5 m 1
 250 187.5 l 1
 250 250 l 1
 187.5 250 l 1
 187.5 187.5 l 1025
187.5 125 m 1
 250 125 l 1
 250 187.5 l 1
 187.5 187.5 l 1
 187.5 125 l 1025
187.5 62.5 m 1
 250 62.5 l 1
 250 125 l 1
 187.5 125 l 1
 187.5 62.5 l 1025
187.5 0 m 1
 250 0 l 1
 250 62.5 l 1
 187.5 62.5 l 1
 187.5 0 l 1025
187.5 -62.5 m 1
 250 -62.5 l 1
 250 0 l 1
 187.5 0 l 1
 187.5 -62.5 l 1025
187.5 -125 m 1
 250 -125 l 1
 250 -62.5 l 1
 187.5 -62.5 l 1
 187.5 -125 l 1
EndSplineSet
EndChar

StartChar: C026
Encoding: 22 22 21
Width: 500
VWidth: 0
Flags: HW
LayerCount: 2
Back
Fore
SplineSet
187.5 812.5 m 1
 250 812.5 l 1
 250 875 l 1
 187.5 875 l 1
 187.5 812.5 l 1025
187.5 750 m 1
 250 750 l 1
 250 812.5 l 1
 187.5 812.5 l 1
 187.5 750 l 1025
187.5 687.5 m 1
 250 687.5 l 1
 250 750 l 1
 187.5 750 l 1
 187.5 687.5 l 1025
187.5 625 m 1
 250 625 l 1
 250 687.5 l 1
 187.5 687.5 l 1
 187.5 625 l 1025
187.5 562.5 m 1
 250 562.5 l 1
 250 625 l 1
 187.5 625 l 1
 187.5 562.5 l 1025
187.5 500 m 1
 250 500 l 1
 250 562.5 l 1
 187.5 562.5 l 1
 187.5 500 l 1025
187.5 437.5 m 1
 250 437.5 l 1
 250 500 l 1
 187.5 500 l 1
 187.5 437.5 l 1025
187.5 375 m 1
 250 375 l 1
 250 437.5 l 1
 187.5 437.5 l 1
 187.5 375 l 1025
0 312.5 m 1
 250 312.5 l 1
 250 375 l 1
 0 375 l 1
 0 312.5 l 1025
187.5 250 m 1
 250 250 l 1
 250 312.5 l 1
 187.5 312.5 l 1
 187.5 250 l 1025
187.5 187.5 m 1
 250 187.5 l 1
 250 250 l 1
 187.5 250 l 1
 187.5 187.5 l 1025
187.5 125 m 1
 250 125 l 1
 250 187.5 l 1
 187.5 187.5 l 1
 187.5 125 l 1025
187.5 62.5 m 1
 250 62.5 l 1
 250 125 l 1
 187.5 125 l 1
 187.5 62.5 l 1025
187.5 0 m 1
 250 0 l 1
 250 62.5 l 1
 187.5 62.5 l 1
 187.5 0 l 1025
187.5 -62.5 m 1
 250 -62.5 l 1
 250 0 l 1
 187.5 0 l 1
 187.5 -62.5 l 1025
187.5 -125 m 1
 250 -125 l 1
 250 -62.5 l 1
 187.5 -62.5 l 1
 187.5 -125 l 1
EndSplineSet
EndChar

StartChar: C027
Encoding: 23 23 22
Width: 500
VWidth: 0
Flags: HW
LayerCount: 2
Back
Fore
SplineSet
187.5 812.5 m 1
 250 812.5 l 1
 250 875 l 1
 187.5 875 l 1
 187.5 812.5 l 1025
187.5 750 m 1
 250 750 l 1
 250 812.5 l 1
 187.5 812.5 l 1
 187.5 750 l 1025
187.5 687.5 m 1
 250 687.5 l 1
 250 750 l 1
 187.5 750 l 1
 187.5 687.5 l 1025
187.5 625 m 1
 250 625 l 1
 250 687.5 l 1
 187.5 687.5 l 1
 187.5 625 l 1025
187.5 562.5 m 1
 250 562.5 l 1
 250 625 l 1
 187.5 625 l 1
 187.5 562.5 l 1025
187.5 500 m 1
 250 500 l 1
 250 562.5 l 1
 187.5 562.5 l 1
 187.5 500 l 1025
187.5 437.5 m 1
 250 437.5 l 1
 250 500 l 1
 187.5 500 l 1
 187.5 437.5 l 1025
187.5 375 m 1
 250 375 l 1
 250 437.5 l 1
 187.5 437.5 l 1
 187.5 375 l 1025
0 312.5 m 1
 500 312.5 l 1
 500 375 l 1
 0 375 l 1
 0 312.5 l 1
EndSplineSet
EndChar

StartChar: C030
Encoding: 24 24 23
Width: 500
VWidth: 0
Flags: HW
LayerCount: 2
Back
Fore
SplineSet
0 312.5 m 1
 500 312.5 l 1
 500 375 l 1
 0 375 l 1
 0 312.5 l 1025
187.5 250 m 1
 250 250 l 1
 250 312.5 l 1
 187.5 312.5 l 1
 187.5 250 l 1025
187.5 187.5 m 1
 250 187.5 l 1
 250 250 l 1
 187.5 250 l 1
 187.5 187.5 l 1025
187.5 125 m 1
 250 125 l 1
 250 187.5 l 1
 187.5 187.5 l 1
 187.5 125 l 1025
187.5 62.5 m 1
 250 62.5 l 1
 250 125 l 1
 187.5 125 l 1
 187.5 62.5 l 1025
187.5 0 m 1
 250 0 l 1
 250 62.5 l 1
 187.5 62.5 l 1
 187.5 0 l 1025
187.5 -62.5 m 1
 250 -62.5 l 1
 250 0 l 1
 187.5 0 l 1
 187.5 -62.5 l 1025
187.5 -125 m 1
 250 -125 l 1
 250 -62.5 l 1
 187.5 -62.5 l 1
 187.5 -125 l 1
EndSplineSet
EndChar

StartChar: C031
Encoding: 25 25 24
Width: 500
VWidth: 0
Flags: HW
LayerCount: 2
Back
Fore
SplineSet
187.5 812.5 m 1
 250 812.5 l 1
 250 875 l 1
 187.5 875 l 1
 187.5 812.5 l 1025
187.5 750 m 1
 250 750 l 1
 250 812.5 l 1
 187.5 812.5 l 1
 187.5 750 l 1025
187.5 687.5 m 1
 250 687.5 l 1
 250 750 l 1
 187.5 750 l 1
 187.5 687.5 l 1025
187.5 625 m 1
 250 625 l 1
 250 687.5 l 1
 187.5 687.5 l 1
 187.5 625 l 1025
187.5 562.5 m 1
 250 562.5 l 1
 250 625 l 1
 187.5 625 l 1
 187.5 562.5 l 1025
187.5 500 m 1
 250 500 l 1
 250 562.5 l 1
 187.5 562.5 l 1
 187.5 500 l 1025
187.5 437.5 m 1
 250 437.5 l 1
 250 500 l 1
 187.5 500 l 1
 187.5 437.5 l 1025
187.5 375 m 1
 250 375 l 1
 250 437.5 l 1
 187.5 437.5 l 1
 187.5 375 l 1025
187.5 312.5 m 1
 250 312.5 l 1
 250 375 l 1
 187.5 375 l 1
 187.5 312.5 l 1025
187.5 250 m 1
 250 250 l 1
 250 312.5 l 1
 187.5 312.5 l 1
 187.5 250 l 1025
187.5 187.5 m 1
 250 187.5 l 1
 250 250 l 1
 187.5 250 l 1
 187.5 187.5 l 1025
187.5 125 m 1
 250 125 l 1
 250 187.5 l 1
 187.5 187.5 l 1
 187.5 125 l 1025
187.5 62.5 m 1
 250 62.5 l 1
 250 125 l 1
 187.5 125 l 1
 187.5 62.5 l 1025
187.5 0 m 1
 250 0 l 1
 250 62.5 l 1
 187.5 62.5 l 1
 187.5 0 l 1025
187.5 -62.5 m 1
 250 -62.5 l 1
 250 0 l 1
 187.5 0 l 1
 187.5 -62.5 l 1025
187.5 -125 m 1
 250 -125 l 1
 250 -62.5 l 1
 187.5 -62.5 l 1
 187.5 -125 l 1
EndSplineSet
EndChar

StartChar: C032
Encoding: 26 26 25
Width: 500
VWidth: 0
Flags: HW
LayerCount: 2
Back
Fore
SplineSet
375 562.5 m 1
 437.5 562.5 l 1
 437.5 625 l 1
 375 625 l 1
 375 562.5 l 1025
250 500 m 1
 375 500 l 1
 375 562.5 l 1
 250 562.5 l 1
 250 500 l 1025
125 437.5 m 1
 250 437.5 l 1
 250 500 l 1
 125 500 l 1
 125 437.5 l 1025
0 375 m 1
 125 375 l 1
 125 437.5 l 1
 0 437.5 l 1
 0 375 l 1025
125 312.5 m 1
 250 312.5 l 1
 250 375 l 1
 125 375 l 1
 125 312.5 l 1025
250 250 m 1
 375 250 l 1
 375 312.5 l 1
 250 312.5 l 1
 250 250 l 1025
375 187.5 m 1
 437.5 187.5 l 1
 437.5 250 l 1
 375 250 l 1
 375 187.5 l 1025
0 125 m 1
 437.5 125 l 1
 437.5 187.5 l 1
 0 187.5 l 1
 0 125 l 1025
0 0 m 1
 437.5 0 l 1
 437.5 62.5 l 1
 0 62.5 l 1
 0 0 l 1
EndSplineSet
EndChar

StartChar: C033
Encoding: 27 27 26
Width: 500
VWidth: 0
Flags: HW
LayerCount: 2
Back
Fore
SplineSet
0 562.5 m 1
 62.5 562.5 l 1
 62.5 625 l 1
 0 625 l 1
 0 562.5 l 1025
62.5 500 m 1
 187.5 500 l 1
 187.5 562.5 l 1
 62.5 562.5 l 1
 62.5 500 l 1025
187.5 437.5 m 1
 312.5 437.5 l 1
 312.5 500 l 1
 187.5 500 l 1
 187.5 437.5 l 1025
312.5 375 m 1
 437.5 375 l 1
 437.5 437.5 l 1
 312.5 437.5 l 1
 312.5 375 l 1025
187.5 312.5 m 1
 312.5 312.5 l 1
 312.5 375 l 1
 187.5 375 l 1
 187.5 312.5 l 1025
62.5 250 m 1
 187.5 250 l 1
 187.5 312.5 l 1
 62.5 312.5 l 1
 62.5 250 l 1025
0 187.5 m 1
 62.5 187.5 l 1
 62.5 250 l 1
 0 250 l 1
 0 187.5 l 1025
0 125 m 1
 437.5 125 l 1
 437.5 187.5 l 1
 0 187.5 l 1
 0 125 l 1025
0 0 m 1
 437.5 0 l 1
 437.5 62.5 l 1
 0 62.5 l 1
 0 0 l 1
EndSplineSet
EndChar

StartChar: C034
Encoding: 28 28 27
Width: 500
VWidth: 0
Flags: HW
LayerCount: 2
Back
Fore
SplineSet
0 375 m 1
 437.5 375 l 1
 437.5 437.5 l 1
 0 437.5 l 1
 0 375 l 1025
125 312.5 m 1
 187.5 312.5 l 1
 187.5 375 l 1
 125 375 l 1
 125 312.5 l 1025
312.5 312.5 m 1
 375 312.5 l 1
 375 375 l 1
 312.5 375 l 1
 312.5 312.5 l 1025
125 250 m 1
 187.5 250 l 1
 187.5 312.5 l 1
 125 312.5 l 1
 125 250 l 1025
312.5 250 m 1
 375 250 l 1
 375 312.5 l 1
 312.5 312.5 l 1
 312.5 250 l 1025
125 187.5 m 1
 187.5 187.5 l 1
 187.5 250 l 1
 125 250 l 1
 125 187.5 l 1025
312.5 187.5 m 1
 375 187.5 l 1
 375 250 l 1
 312.5 250 l 1
 312.5 187.5 l 1025
125 125 m 1
 187.5 125 l 1
 187.5 187.5 l 1
 125 187.5 l 1
 125 125 l 1025
312.5 125 m 1
 375 125 l 1
 375 187.5 l 1
 312.5 187.5 l 1
 312.5 125 l 1025
62.5 62.5 m 1
 125 62.5 l 1
 125 125 l 1
 62.5 125 l 1
 62.5 62.5 l 1025
312.5 62.5 m 1
 375 62.5 l 1
 375 125 l 1
 312.5 125 l 1
 312.5 62.5 l 1025
0 0 m 1
 62.5 0 l 1
 62.5 62.5 l 1
 0 62.5 l 1
 0 0 l 1025
312.5 0 m 1
 375 0 l 1
 375 62.5 l 1
 312.5 62.5 l 1
 312.5 0 l 1
EndSplineSet
EndChar

StartChar: C035
Encoding: 29 29 28
Width: 500
VWidth: 0
Flags: HW
LayerCount: 2
Back
Fore
SplineSet
375 562.5 m 1
 437.5 562.5 l 1
 437.5 625 l 1
 375 625 l 1
 375 562.5 l 1025
312.5 500 m 1
 375 500 l 1
 375 562.5 l 1
 312.5 562.5 l 1
 312.5 500 l 1025
250 437.5 m 1
 312.5 437.5 l 1
 312.5 500 l 1
 250 500 l 1
 250 437.5 l 1025
0 375 m 1
 437.5 375 l 1
 437.5 437.5 l 1
 0 437.5 l 1
 0 375 l 1025
187.5 312.5 m 1
 250 312.5 l 1
 250 375 l 1
 187.5 375 l 1
 187.5 312.5 l 1025
0 250 m 1
 437.5 250 l 1
 437.5 312.5 l 1
 0 312.5 l 1
 0 250 l 1025
125 187.5 m 1
 187.5 187.5 l 1
 187.5 250 l 1
 125 250 l 1
 125 187.5 l 1025
62.5 125 m 1
 125 125 l 1
 125 187.5 l 1
 62.5 187.5 l 1
 62.5 125 l 1025
0 62.5 m 1
 62.5 62.5 l 1
 62.5 125 l 1
 0 125 l 1
 0 62.5 l 1
EndSplineSet
EndChar

StartChar: C036
Encoding: 30 30 29
Width: 500
VWidth: 0
Flags: HW
LayerCount: 2
Back
Fore
SplineSet
250 562.5 m 1
 375 562.5 l 1
 375 625 l 1
 250 625 l 1
 250 562.5 l 1025
187.5 500 m 1
 250 500 l 1
 250 562.5 l 1
 187.5 562.5 l 1
 187.5 500 l 1025
375 500 m 1
 437.5 500 l 1
 437.5 562.5 l 1
 375 562.5 l 1
 375 500 l 1025
187.5 437.5 m 1
 250 437.5 l 1
 250 500 l 1
 187.5 500 l 1
 187.5 437.5 l 1025
187.5 375 m 1
 250 375 l 1
 250 437.5 l 1
 187.5 437.5 l 1
 187.5 375 l 1025
187.5 312.5 m 1
 250 312.5 l 1
 250 375 l 1
 187.5 375 l 1
 187.5 312.5 l 1025
62.5 250 m 1
 375 250 l 1
 375 312.5 l 1
 62.5 312.5 l 1
 62.5 250 l 1025
187.5 187.5 m 1
 250 187.5 l 1
 250 250 l 1
 187.5 250 l 1
 187.5 187.5 l 1025
187.5 125 m 1
 250 125 l 1
 250 187.5 l 1
 187.5 187.5 l 1
 187.5 125 l 1025
125 62.5 m 1
 375 62.5 l 1
 375 125 l 1
 125 125 l 1
 125 62.5 l 1025
62.5 0 m 1
 125 0 l 1
 125 62.5 l 1
 62.5 62.5 l 1
 62.5 0 l 1025
187.5 0 m 1
 250 0 l 1
 250 62.5 l 1
 187.5 62.5 l 1
 187.5 0 l 1025
375 0 m 1
 437.5 0 l 1
 437.5 62.5 l 1
 375 62.5 l 1
 375 0 l 1025
125 -62.5 m 1
 187.5 -62.5 l 1
 187.5 0 l 1
 125 0 l 1
 125 -62.5 l 1
EndSplineSet
EndChar

StartChar: C037
Encoding: 31 31 30
Width: 500
VWidth: 0
Flags: HW
LayerCount: 2
Back
Fore
SplineSet
187.5 312.5 m 1
 250 312.5 l 1
 250 375 l 1
 187.5 375 l 1
 187.5 312.5 l 1
EndSplineSet
EndChar

StartChar: exclam
Encoding: 33 33 32
Width: 500
VWidth: 0
Flags: HW
LayerCount: 2
Back
Fore
SplineSet
125 750 m 1
 312.5 750 l 1
 312.5 812.5 l 1
 125 812.5 l 1
 125 750 l 1025
125 687.5 m 1
 312.5 687.5 l 1
 312.5 750 l 1
 125 750 l 1
 125 687.5 l 1025
125 625 m 1
 312.5 625 l 1
 312.5 687.5 l 1
 125 687.5 l 1
 125 625 l 1025
125 562.5 m 1
 312.5 562.5 l 1
 312.5 625 l 1
 125 625 l 1
 125 562.5 l 1025
125 500 m 1
 312.5 500 l 1
 312.5 562.5 l 1
 125 562.5 l 1
 125 500 l 1025
125 437.5 m 1
 312.5 437.5 l 1
 312.5 500 l 1
 125 500 l 1
 125 437.5 l 1025
187.5 375 m 1
 250 375 l 1
 250 437.5 l 1
 187.5 437.5 l 1
 187.5 375 l 1025
187.5 312.5 m 1
 250 312.5 l 1
 250 375 l 1
 187.5 375 l 1
 187.5 312.5 l 1025
187.5 250 m 1
 250 250 l 1
 250 312.5 l 1
 187.5 312.5 l 1
 187.5 250 l 1025
187.5 187.5 m 1
 250 187.5 l 1
 250 250 l 1
 187.5 250 l 1
 187.5 187.5 l 1025
187.5 0 m 1
 250 0 l 1
 250 62.5 l 1
 187.5 62.5 l 1
 187.5 0 l 1025
125 -62.5 m 1
 312.5 -62.5 l 1
 312.5 0 l 1
 125 0 l 1
 125 -62.5 l 1025
187.5 -125 m 1
 250 -125 l 1
 250 -62.5 l 1
 187.5 -62.5 l 1
 187.5 -125 l 1
EndSplineSet
EndChar

StartChar: quotedbl
Encoding: 34 34 33
Width: 500
VWidth: 0
Flags: HW
LayerCount: 2
Back
Fore
SplineSet
62.5 812.5 m 1
 187.5 812.5 l 1
 187.5 875 l 1
 62.5 875 l 1
 62.5 812.5 l 1025
250 812.5 m 1
 375 812.5 l 1
 375 875 l 1
 250 875 l 1
 250 812.5 l 1025
62.5 750 m 1
 187.5 750 l 1
 187.5 812.5 l 1
 62.5 812.5 l 1
 62.5 750 l 1025
250 750 m 1
 375 750 l 1
 375 812.5 l 1
 250 812.5 l 1
 250 750 l 1025
125 687.5 m 1
 187.5 687.5 l 1
 187.5 750 l 1
 125 750 l 1
 125 687.5 l 1025
312.5 687.5 m 1
 375 687.5 l 1
 375 750 l 1
 312.5 750 l 1
 312.5 687.5 l 1025
125 625 m 1
 187.5 625 l 1
 187.5 687.5 l 1
 125 687.5 l 1
 125 625 l 1025
312.5 625 m 1
 375 625 l 1
 375 687.5 l 1
 312.5 687.5 l 1
 312.5 625 l 1025
62.5 562.5 m 1
 125 562.5 l 1
 125 625 l 1
 62.5 625 l 1
 62.5 562.5 l 1025
250 562.5 m 1
 312.5 562.5 l 1
 312.5 625 l 1
 250 625 l 1
 250 562.5 l 1
EndSplineSet
EndChar

StartChar: numbersign
Encoding: 35 35 34
Width: 500
VWidth: 0
Flags: HW
LayerCount: 2
Back
Fore
SplineSet
187.5 750 m 1
 250 750 l 1
 250 812.5 l 1
 187.5 812.5 l 1
 187.5 750 l 1025
375 750 m 1
 437.5 750 l 1
 437.5 812.5 l 1
 375 812.5 l 1
 375 750 l 1025
187.5 687.5 m 1
 250 687.5 l 1
 250 750 l 1
 187.5 750 l 1
 187.5 687.5 l 1025
375 687.5 m 1
 437.5 687.5 l 1
 437.5 750 l 1
 375 750 l 1
 375 687.5 l 1025
187.5 625 m 1
 250 625 l 1
 250 687.5 l 1
 187.5 687.5 l 1
 187.5 625 l 1025
375 625 m 1
 437.5 625 l 1
 437.5 687.5 l 1
 375 687.5 l 1
 375 625 l 1025
62.5 562.5 m 1
 500 562.5 l 1
 500 625 l 1
 62.5 625 l 1
 62.5 562.5 l 1025
125 500 m 1
 187.5 500 l 1
 187.5 562.5 l 1
 125 562.5 l 1
 125 500 l 1025
312.5 500 m 1
 375 500 l 1
 375 562.5 l 1
 312.5 562.5 l 1
 312.5 500 l 1025
125 437.5 m 1
 187.5 437.5 l 1
 187.5 500 l 1
 125 500 l 1
 125 437.5 l 1025
312.5 437.5 m 1
 375 437.5 l 1
 375 500 l 1
 312.5 500 l 1
 312.5 437.5 l 1025
125 375 m 1
 187.5 375 l 1
 187.5 437.5 l 1
 125 437.5 l 1
 125 375 l 1025
312.5 375 m 1
 375 375 l 1
 375 437.5 l 1
 312.5 437.5 l 1
 312.5 375 l 1025
125 312.5 m 1
 187.5 312.5 l 1
 187.5 375 l 1
 125 375 l 1
 125 312.5 l 1025
312.5 312.5 m 1
 375 312.5 l 1
 375 375 l 1
 312.5 375 l 1
 312.5 312.5 l 1025
125 250 m 1
 187.5 250 l 1
 187.5 312.5 l 1
 125 312.5 l 1
 125 250 l 1025
312.5 250 m 1
 375 250 l 1
 375 312.5 l 1
 312.5 312.5 l 1
 312.5 250 l 1025
0 187.5 m 1
 437.5 187.5 l 1
 437.5 250 l 1
 0 250 l 1
 0 187.5 l 1025
62.5 125 m 1
 125 125 l 1
 125 187.5 l 1
 62.5 187.5 l 1
 62.5 125 l 1025
250 125 m 1
 312.5 125 l 1
 312.5 187.5 l 1
 250 187.5 l 1
 250 125 l 1025
62.5 62.5 m 1
 125 62.5 l 1
 125 125 l 1
 62.5 125 l 1
 62.5 62.5 l 1025
250 62.5 m 1
 312.5 62.5 l 1
 312.5 125 l 1
 250 125 l 1
 250 62.5 l 1025
62.5 0 m 1
 125 0 l 1
 125 62.5 l 1
 62.5 62.5 l 1
 62.5 0 l 1025
250 0 m 1
 312.5 0 l 1
 312.5 62.5 l 1
 250 62.5 l 1
 250 0 l 1025
62.5 -62.5 m 1
 125 -62.5 l 1
 125 0 l 1
 62.5 0 l 1
 62.5 -62.5 l 1025
250 -62.5 m 1
 312.5 -62.5 l 1
 312.5 0 l 1
 250 0 l 1
 250 -62.5 l 1
EndSplineSet
EndChar

StartChar: dollar
Encoding: 36 36 35
Width: 500
VWidth: 0
Flags: HW
LayerCount: 2
Back
Fore
SplineSet
187.5 812.5 m 1
 250 812.5 l 1
 250 875 l 1
 187.5 875 l 1
 187.5 812.5 l 1025
125 750 m 1
 312.5 750 l 1
 312.5 812.5 l 1
 125 812.5 l 1
 125 750 l 1025
62.5 687.5 m 1
 125 687.5 l 1
 125 750 l 1
 62.5 750 l 1
 62.5 687.5 l 1025
187.5 687.5 m 1
 250 687.5 l 1
 250 750 l 1
 187.5 750 l 1
 187.5 687.5 l 1025
312.5 687.5 m 1
 375 687.5 l 1
 375 750 l 1
 312.5 750 l 1
 312.5 687.5 l 1025
0 625 m 1
 62.5 625 l 1
 62.5 687.5 l 1
 0 687.5 l 1
 0 625 l 1025
187.5 625 m 1
 250 625 l 1
 250 687.5 l 1
 187.5 687.5 l 1
 187.5 625 l 1025
375 625 m 1
 437.5 625 l 1
 437.5 687.5 l 1
 375 687.5 l 1
 375 625 l 1025
0 562.5 m 1
 62.5 562.5 l 1
 62.5 625 l 1
 0 625 l 1
 0 562.5 l 1025
187.5 562.5 m 1
 250 562.5 l 1
 250 625 l 1
 187.5 625 l 1
 187.5 562.5 l 1025
312.5 562.5 m 1
 437.5 562.5 l 1
 437.5 625 l 1
 312.5 625 l 1
 312.5 562.5 l 1025
0 500 m 1
 62.5 500 l 1
 62.5 562.5 l 1
 0 562.5 l 1
 0 500 l 1025
187.5 500 m 1
 250 500 l 1
 250 562.5 l 1
 187.5 562.5 l 1
 187.5 500 l 1025
62.5 437.5 m 1
 125 437.5 l 1
 125 500 l 1
 62.5 500 l 1
 62.5 437.5 l 1025
187.5 437.5 m 1
 250 437.5 l 1
 250 500 l 1
 187.5 500 l 1
 187.5 437.5 l 1025
125 375 m 1
 312.5 375 l 1
 312.5 437.5 l 1
 125 437.5 l 1
 125 375 l 1025
187.5 312.5 m 1
 250 312.5 l 1
 250 375 l 1
 187.5 375 l 1
 187.5 312.5 l 1025
312.5 312.5 m 1
 375 312.5 l 1
 375 375 l 1
 312.5 375 l 1
 312.5 312.5 l 1025
187.5 250 m 1
 250 250 l 1
 250 312.5 l 1
 187.5 312.5 l 1
 187.5 250 l 1025
375 250 m 1
 437.5 250 l 1
 437.5 312.5 l 1
 375 312.5 l 1
 375 250 l 1025
0 187.5 m 1
 125 187.5 l 1
 125 250 l 1
 0 250 l 1
 0 187.5 l 1025
187.5 187.5 m 1
 250 187.5 l 1
 250 250 l 1
 187.5 250 l 1
 187.5 187.5 l 1025
375 187.5 m 1
 437.5 187.5 l 1
 437.5 250 l 1
 375 250 l 1
 375 187.5 l 1025
0 125 m 1
 62.5 125 l 1
 62.5 187.5 l 1
 0 187.5 l 1
 0 125 l 1025
187.5 125 m 1
 250 125 l 1
 250 187.5 l 1
 187.5 187.5 l 1
 187.5 125 l 1025
375 125 m 1
 437.5 125 l 1
 437.5 187.5 l 1
 375 187.5 l 1
 375 125 l 1025
0 62.5 m 1
 62.5 62.5 l 1
 62.5 125 l 1
 0 125 l 1
 0 62.5 l 1025
187.5 62.5 m 1
 250 62.5 l 1
 250 125 l 1
 187.5 125 l 1
 187.5 62.5 l 1025
312.5 62.5 m 1
 375 62.5 l 1
 375 125 l 1
 312.5 125 l 1
 312.5 62.5 l 1025
62.5 0 m 1
 312.5 0 l 1
 312.5 62.5 l 1
 62.5 62.5 l 1
 62.5 0 l 1025
187.5 -62.5 m 1
 250 -62.5 l 1
 250 0 l 1
 187.5 0 l 1
 187.5 -62.5 l 1025
187.5 -125 m 1
 250 -125 l 1
 250 -62.5 l 1
 187.5 -62.5 l 1
 187.5 -125 l 1
EndSplineSet
EndChar

StartChar: percent
Encoding: 37 37 36
Width: 500
VWidth: 0
Flags: HW
LayerCount: 2
Back
Fore
SplineSet
375 812.5 m 1
 437.5 812.5 l 1
 437.5 875 l 1
 375 875 l 1
 375 812.5 l 1025
62.5 750 m 1
 187.5 750 l 1
 187.5 812.5 l 1
 62.5 812.5 l 1
 62.5 750 l 1025
375 750 m 1
 437.5 750 l 1
 437.5 812.5 l 1
 375 812.5 l 1
 375 750 l 1025
0 687.5 m 1
 62.5 687.5 l 1
 62.5 750 l 1
 0 750 l 1
 0 687.5 l 1025
187.5 687.5 m 1
 250 687.5 l 1
 250 750 l 1
 187.5 750 l 1
 187.5 687.5 l 1025
312.5 687.5 m 1
 375 687.5 l 1
 375 750 l 1
 312.5 750 l 1
 312.5 687.5 l 1025
0 625 m 1
 62.5 625 l 1
 62.5 687.5 l 1
 0 687.5 l 1
 0 625 l 1025
187.5 625 m 1
 250 625 l 1
 250 687.5 l 1
 187.5 687.5 l 1
 187.5 625 l 1025
312.5 625 m 1
 375 625 l 1
 375 687.5 l 1
 312.5 687.5 l 1
 312.5 625 l 1025
0 562.5 m 1
 62.5 562.5 l 1
 62.5 625 l 1
 0 625 l 1
 0 562.5 l 1025
187.5 562.5 m 1
 250 562.5 l 1
 250 625 l 1
 187.5 625 l 1
 187.5 562.5 l 1025
312.5 562.5 m 1
 375 562.5 l 1
 375 625 l 1
 312.5 625 l 1
 312.5 562.5 l 1025
0 500 m 1
 62.5 500 l 1
 62.5 562.5 l 1
 0 562.5 l 1
 0 500 l 1025
187.5 500 m 1
 312.5 500 l 1
 312.5 562.5 l 1
 187.5 562.5 l 1
 187.5 500 l 1025
62.5 437.5 m 1
 187.5 437.5 l 1
 187.5 500 l 1
 62.5 500 l 1
 62.5 437.5 l 1025
250 437.5 m 1
 312.5 437.5 l 1
 312.5 500 l 1
 250 500 l 1
 250 437.5 l 1025
187.5 375 m 1
 250 375 l 1
 250 437.5 l 1
 187.5 437.5 l 1
 187.5 375 l 1025
187.5 312.5 m 1
 250 312.5 l 1
 250 375 l 1
 187.5 375 l 1
 187.5 312.5 l 1025
125 250 m 1
 187.5 250 l 1
 187.5 312.5 l 1
 125 312.5 l 1
 125 250 l 1025
250 250 m 1
 375 250 l 1
 375 312.5 l 1
 250 312.5 l 1
 250 250 l 1025
125 187.5 m 1
 250 187.5 l 1
 250 250 l 1
 125 250 l 1
 125 187.5 l 1025
375 187.5 m 1
 437.5 187.5 l 1
 437.5 250 l 1
 375 250 l 1
 375 187.5 l 1025
62.5 125 m 1
 125 125 l 1
 125 187.5 l 1
 62.5 187.5 l 1
 62.5 125 l 1025
187.5 125 m 1
 250 125 l 1
 250 187.5 l 1
 187.5 187.5 l 1
 187.5 125 l 1025
375 125 m 1
 437.5 125 l 1
 437.5 187.5 l 1
 375 187.5 l 1
 375 125 l 1025
62.5 62.5 m 1
 125 62.5 l 1
 125 125 l 1
 62.5 125 l 1
 62.5 62.5 l 1025
187.5 62.5 m 1
 250 62.5 l 1
 250 125 l 1
 187.5 125 l 1
 187.5 62.5 l 1025
375 62.5 m 1
 437.5 62.5 l 1
 437.5 125 l 1
 375 125 l 1
 375 62.5 l 1025
62.5 0 m 1
 125 0 l 1
 125 62.5 l 1
 62.5 62.5 l 1
 62.5 0 l 1025
187.5 0 m 1
 250 0 l 1
 250 62.5 l 1
 187.5 62.5 l 1
 187.5 0 l 1025
375 0 m 1
 437.5 0 l 1
 437.5 62.5 l 1
 375 62.5 l 1
 375 0 l 1025
0 -62.5 m 1
 62.5 -62.5 l 1
 62.5 0 l 1
 0 0 l 1
 0 -62.5 l 1025
250 -62.5 m 1
 375 -62.5 l 1
 375 0 l 1
 250 0 l 1
 250 -62.5 l 1025
0 -125 m 1
 62.5 -125 l 1
 62.5 -62.5 l 1
 0 -62.5 l 1
 0 -125 l 1
EndSplineSet
EndChar

StartChar: ampersand
Encoding: 38 38 37
Width: 500
VWidth: 0
Flags: HW
LayerCount: 2
Back
Fore
SplineSet
125 750 m 1
 250 750 l 1
 250 812.5 l 1
 125 812.5 l 1
 125 750 l 1025
62.5 687.5 m 1
 125 687.5 l 1
 125 750 l 1
 62.5 750 l 1
 62.5 687.5 l 1025
250 687.5 m 1
 312.5 687.5 l 1
 312.5 750 l 1
 250 750 l 1
 250 687.5 l 1025
62.5 625 m 1
 125 625 l 1
 125 687.5 l 1
 62.5 687.5 l 1
 62.5 625 l 1025
250 625 m 1
 312.5 625 l 1
 312.5 687.5 l 1
 250 687.5 l 1
 250 625 l 1025
62.5 562.5 m 1
 125 562.5 l 1
 125 625 l 1
 62.5 625 l 1
 62.5 562.5 l 1025
250 562.5 m 1
 312.5 562.5 l 1
 312.5 625 l 1
 250 625 l 1
 250 562.5 l 1025
62.5 500 m 1
 125 500 l 1
 125 562.5 l 1
 62.5 562.5 l 1
 62.5 500 l 1025
187.5 500 m 1
 250 500 l 1
 250 562.5 l 1
 187.5 562.5 l 1
 187.5 500 l 1025
125 437.5 m 1
 187.5 437.5 l 1
 187.5 500 l 1
 125 500 l 1
 125 437.5 l 1025
125 375 m 1
 187.5 375 l 1
 187.5 437.5 l 1
 125 437.5 l 1
 125 375 l 1025
250 375 m 1
 437.5 375 l 1
 437.5 437.5 l 1
 250 437.5 l 1
 250 375 l 1025
62.5 312.5 m 1
 125 312.5 l 1
 125 375 l 1
 62.5 375 l 1
 62.5 312.5 l 1025
187.5 312.5 m 1
 250 312.5 l 1
 250 375 l 1
 187.5 375 l 1
 187.5 312.5 l 1025
312.5 312.5 m 1
 375 312.5 l 1
 375 375 l 1
 312.5 375 l 1
 312.5 312.5 l 1025
62.5 250 m 1
 125 250 l 1
 125 312.5 l 1
 62.5 312.5 l 1
 62.5 250 l 1025
187.5 250 m 1
 250 250 l 1
 250 312.5 l 1
 187.5 312.5 l 1
 187.5 250 l 1025
312.5 250 m 1
 375 250 l 1
 375 312.5 l 1
 312.5 312.5 l 1
 312.5 250 l 1025
0 187.5 m 1
 62.5 187.5 l 1
 62.5 250 l 1
 0 250 l 1
 0 187.5 l 1025
187.5 187.5 m 1
 250 187.5 l 1
 250 250 l 1
 187.5 250 l 1
 187.5 187.5 l 1025
312.5 187.5 m 1
 375 187.5 l 1
 375 250 l 1
 312.5 250 l 1
 312.5 187.5 l 1025
0 125 m 1
 62.5 125 l 1
 62.5 187.5 l 1
 0 187.5 l 1
 0 125 l 1025
250 125 m 1
 312.5 125 l 1
 312.5 187.5 l 1
 250 187.5 l 1
 250 125 l 1025
0 62.5 m 1
 62.5 62.5 l 1
 62.5 125 l 1
 0 125 l 1
 0 62.5 l 1025
250 62.5 m 1
 375 62.5 l 1
 375 125 l 1
 250 125 l 1
 250 62.5 l 1025
62.5 0 m 1
 250 0 l 1
 250 62.5 l 1
 62.5 62.5 l 1
 62.5 0 l 1025
375 0 m 1
 437.5 0 l 1
 437.5 62.5 l 1
 375 62.5 l 1
 375 0 l 1
EndSplineSet
EndChar

StartChar: quotesingle
Encoding: 39 39 38
Width: 500
VWidth: 0
Flags: HW
LayerCount: 2
Back
Fore
SplineSet
0 812.5 m 1
 187.5 812.5 l 1
 187.5 875 l 1
 0 875 l 1
 0 812.5 l 1025
0 750 m 1
 187.5 750 l 1
 187.5 812.5 l 1
 0 812.5 l 1
 0 750 l 1025
125 687.5 m 1
 187.5 687.5 l 1
 187.5 750 l 1
 125 750 l 1
 125 687.5 l 1025
125 625 m 1
 187.5 625 l 1
 187.5 687.5 l 1
 125 687.5 l 1
 125 625 l 1025
0 562.5 m 1
 125 562.5 l 1
 125 625 l 1
 0 625 l 1
 0 562.5 l 1
EndSplineSet
EndChar

StartChar: parenleft
Encoding: 40 40 39
Width: 500
VWidth: 0
Flags: HW
LayerCount: 2
Back
Fore
SplineSet
375 812.5 m 1
 437.5 812.5 l 1
 437.5 875 l 1
 375 875 l 1
 375 812.5 l 1025
312.5 750 m 1
 375 750 l 1
 375 812.5 l 1
 312.5 812.5 l 1
 312.5 750 l 1025
250 687.5 m 1
 312.5 687.5 l 1
 312.5 750 l 1
 250 750 l 1
 250 687.5 l 1025
250 625 m 1
 312.5 625 l 1
 312.5 687.5 l 1
 250 687.5 l 1
 250 625 l 1025
187.5 562.5 m 1
 250 562.5 l 1
 250 625 l 1
 187.5 625 l 1
 187.5 562.5 l 1025
187.5 500 m 1
 250 500 l 1
 250 562.5 l 1
 187.5 562.5 l 1
 187.5 500 l 1025
187.5 437.5 m 1
 250 437.5 l 1
 250 500 l 1
 187.5 500 l 1
 187.5 437.5 l 1025
187.5 375 m 1
 250 375 l 1
 250 437.5 l 1
 187.5 437.5 l 1
 187.5 375 l 1025
187.5 312.5 m 1
 250 312.5 l 1
 250 375 l 1
 187.5 375 l 1
 187.5 312.5 l 1025
187.5 250 m 1
 250 250 l 1
 250 312.5 l 1
 187.5 312.5 l 1
 187.5 250 l 1025
187.5 187.5 m 1
 250 187.5 l 1
 250 250 l 1
 187.5 250 l 1
 187.5 187.5 l 1025
187.5 125 m 1
 250 125 l 1
 250 187.5 l 1
 187.5 187.5 l 1
 187.5 125 l 1025
250 62.5 m 1
 312.5 62.5 l 1
 312.5 125 l 1
 250 125 l 1
 250 62.5 l 1025
250 0 m 1
 312.5 0 l 1
 312.5 62.5 l 1
 250 62.5 l 1
 250 0 l 1025
312.5 -62.5 m 1
 375 -62.5 l 1
 375 0 l 1
 312.5 0 l 1
 312.5 -62.5 l 1025
375 -125 m 1
 437.5 -125 l 1
 437.5 -62.5 l 1
 375 -62.5 l 1
 375 -125 l 1
EndSplineSet
EndChar

StartChar: parenright
Encoding: 41 41 40
Width: 500
VWidth: 0
Flags: HW
LayerCount: 2
Back
Fore
SplineSet
0 812.5 m 1
 62.5 812.5 l 1
 62.5 875 l 1
 0 875 l 1
 0 812.5 l 1025
62.5 750 m 1
 125 750 l 1
 125 812.5 l 1
 62.5 812.5 l 1
 62.5 750 l 1025
125 687.5 m 1
 187.5 687.5 l 1
 187.5 750 l 1
 125 750 l 1
 125 687.5 l 1025
125 625 m 1
 187.5 625 l 1
 187.5 687.5 l 1
 125 687.5 l 1
 125 625 l 1025
187.5 562.5 m 1
 250 562.5 l 1
 250 625 l 1
 187.5 625 l 1
 187.5 562.5 l 1025
187.5 500 m 1
 250 500 l 1
 250 562.5 l 1
 187.5 562.5 l 1
 187.5 500 l 1025
187.5 437.5 m 1
 250 437.5 l 1
 250 500 l 1
 187.5 500 l 1
 187.5 437.5 l 1025
187.5 375 m 1
 250 375 l 1
 250 437.5 l 1
 187.5 437.5 l 1
 187.5 375 l 1025
187.5 312.5 m 1
 250 312.5 l 1
 250 375 l 1
 187.5 375 l 1
 187.5 312.5 l 1025
187.5 250 m 1
 250 250 l 1
 250 312.5 l 1
 187.5 312.5 l 1
 187.5 250 l 1025
187.5 187.5 m 1
 250 187.5 l 1
 250 250 l 1
 187.5 250 l 1
 187.5 187.5 l 1025
187.5 125 m 1
 250 125 l 1
 250 187.5 l 1
 187.5 187.5 l 1
 187.5 125 l 1025
125 62.5 m 1
 187.5 62.5 l 1
 187.5 125 l 1
 125 125 l 1
 125 62.5 l 1025
125 0 m 1
 187.5 0 l 1
 187.5 62.5 l 1
 125 62.5 l 1
 125 0 l 1025
62.5 -62.5 m 1
 125 -62.5 l 1
 125 0 l 1
 62.5 0 l 1
 62.5 -62.5 l 1025
0 -125 m 1
 62.5 -125 l 1
 62.5 -62.5 l 1
 0 -62.5 l 1
 0 -125 l 1
EndSplineSet
EndChar

StartChar: asterisk
Encoding: 42 42 41
Width: 500
VWidth: 0
Flags: HW
LayerCount: 2
Back
Fore
SplineSet
187.5 625 m 1
 250 625 l 1
 250 687.5 l 1
 187.5 687.5 l 1
 187.5 625 l 1025
125 562.5 m 1
 312.5 562.5 l 1
 312.5 625 l 1
 125 625 l 1
 125 562.5 l 1025
0 500 m 1
 62.5 500 l 1
 62.5 562.5 l 1
 0 562.5 l 1
 0 500 l 1025
187.5 500 m 1
 250 500 l 1
 250 562.5 l 1
 187.5 562.5 l 1
 187.5 500 l 1025
375 500 m 1
 437.5 500 l 1
 437.5 562.5 l 1
 375 562.5 l 1
 375 500 l 1025
0 437.5 m 1
 125 437.5 l 1
 125 500 l 1
 0 500 l 1
 0 437.5 l 1025
187.5 437.5 m 1
 250 437.5 l 1
 250 500 l 1
 187.5 500 l 1
 187.5 437.5 l 1025
312.5 437.5 m 1
 437.5 437.5 l 1
 437.5 500 l 1
 312.5 500 l 1
 312.5 437.5 l 1025
125 375 m 1
 312.5 375 l 1
 312.5 437.5 l 1
 125 437.5 l 1
 125 375 l 1025
0 312.5 m 1
 125 312.5 l 1
 125 375 l 1
 0 375 l 1
 0 312.5 l 1025
187.5 312.5 m 1
 250 312.5 l 1
 250 375 l 1
 187.5 375 l 1
 187.5 312.5 l 1025
312.5 312.5 m 1
 437.5 312.5 l 1
 437.5 375 l 1
 312.5 375 l 1
 312.5 312.5 l 1025
0 250 m 1
 62.5 250 l 1
 62.5 312.5 l 1
 0 312.5 l 1
 0 250 l 1025
187.5 250 m 1
 250 250 l 1
 250 312.5 l 1
 187.5 312.5 l 1
 187.5 250 l 1025
375 250 m 1
 437.5 250 l 1
 437.5 312.5 l 1
 375 312.5 l 1
 375 250 l 1025
125 187.5 m 1
 312.5 187.5 l 1
 312.5 250 l 1
 125 250 l 1
 125 187.5 l 1025
187.5 125 m 1
 250 125 l 1
 250 187.5 l 1
 187.5 187.5 l 1
 187.5 125 l 1
EndSplineSet
EndChar

StartChar: plus
Encoding: 43 43 42
Width: 500
VWidth: 0
Flags: HW
LayerCount: 2
Back
Fore
SplineSet
187.5 625 m 1
 250 625 l 1
 250 687.5 l 1
 187.5 687.5 l 1
 187.5 625 l 1025
187.5 562.5 m 1
 250 562.5 l 1
 250 625 l 1
 187.5 625 l 1
 187.5 562.5 l 1025
187.5 500 m 1
 250 500 l 1
 250 562.5 l 1
 187.5 562.5 l 1
 187.5 500 l 1025
187.5 437.5 m 1
 250 437.5 l 1
 250 500 l 1
 187.5 500 l 1
 187.5 437.5 l 1025
0 375 m 1
 437.5 375 l 1
 437.5 437.5 l 1
 0 437.5 l 1
 0 375 l 1025
187.5 312.5 m 1
 250 312.5 l 1
 250 375 l 1
 187.5 375 l 1
 187.5 312.5 l 1025
187.5 250 m 1
 250 250 l 1
 250 312.5 l 1
 187.5 312.5 l 1
 187.5 250 l 1025
187.5 187.5 m 1
 250 187.5 l 1
 250 250 l 1
 187.5 250 l 1
 187.5 187.5 l 1025
187.5 125 m 1
 250 125 l 1
 250 187.5 l 1
 187.5 187.5 l 1
 187.5 125 l 1
EndSplineSet
EndChar

StartChar: comma
Encoding: 44 44 43
Width: 500
VWidth: 0
Flags: HW
LayerCount: 2
Back
Fore
SplineSet
0 125 m 1
 187.5 125 l 1
 187.5 187.5 l 1
 0 187.5 l 1
 0 125 l 1025
0 62.5 m 1
 187.5 62.5 l 1
 187.5 125 l 1
 0 125 l 1
 0 62.5 l 1025
125 0 m 1
 187.5 0 l 1
 187.5 62.5 l 1
 125 62.5 l 1
 125 0 l 1025
125 -62.5 m 1
 187.5 -62.5 l 1
 187.5 0 l 1
 125 0 l 1
 125 -62.5 l 1025
0 -125 m 1
 125 -125 l 1
 125 -62.5 l 1
 0 -62.5 l 1
 0 -125 l 1
EndSplineSet
EndChar

StartChar: hyphen
Encoding: 45 45 44
Width: 500
VWidth: 0
Flags: HW
LayerCount: 2
Back
Fore
SplineSet
0 375 m 1
 437.5 375 l 1
 437.5 437.5 l 1
 0 437.5 l 1
 0 375 l 1
EndSplineSet
EndChar

StartChar: period
Encoding: 46 46 45
Width: 500
VWidth: 0
Flags: HW
LayerCount: 2
Back
Fore
SplineSet
62.5 125 m 1
 125 125 l 1
 125 187.5 l 1
 62.5 187.5 l 1
 62.5 125 l 1025
0 62.5 m 1
 187.5 62.5 l 1
 187.5 125 l 1
 0 125 l 1
 0 62.5 l 1025
0 0 m 1
 187.5 0 l 1
 187.5 62.5 l 1
 0 62.5 l 1
 0 0 l 1025
62.5 -62.5 m 1
 125 -62.5 l 1
 125 0 l 1
 62.5 0 l 1
 62.5 -62.5 l 1
EndSplineSet
EndChar

StartChar: slash
Encoding: 47 47 46
Width: 500
VWidth: 0
Flags: HW
LayerCount: 2
Back
Fore
SplineSet
375 812.5 m 1
 437.5 812.5 l 1
 437.5 875 l 1
 375 875 l 1
 375 812.5 l 1025
375 750 m 1
 437.5 750 l 1
 437.5 812.5 l 1
 375 812.5 l 1
 375 750 l 1025
312.5 687.5 m 1
 375 687.5 l 1
 375 750 l 1
 312.5 750 l 1
 312.5 687.5 l 1025
312.5 625 m 1
 375 625 l 1
 375 687.5 l 1
 312.5 687.5 l 1
 312.5 625 l 1025
250 562.5 m 1
 312.5 562.5 l 1
 312.5 625 l 1
 250 625 l 1
 250 562.5 l 1025
250 500 m 1
 312.5 500 l 1
 312.5 562.5 l 1
 250 562.5 l 1
 250 500 l 1025
250 437.5 m 1
 312.5 437.5 l 1
 312.5 500 l 1
 250 500 l 1
 250 437.5 l 1025
187.5 375 m 1
 250 375 l 1
 250 437.5 l 1
 187.5 437.5 l 1
 187.5 375 l 1025
187.5 312.5 m 1
 250 312.5 l 1
 250 375 l 1
 187.5 375 l 1
 187.5 312.5 l 1025
187.5 250 m 1
 250 250 l 1
 250 312.5 l 1
 187.5 312.5 l 1
 187.5 250 l 1025
125 187.5 m 1
 187.5 187.5 l 1
 187.5 250 l 1
 125 250 l 1
 125 187.5 l 1025
125 125 m 1
 187.5 125 l 1
 187.5 187.5 l 1
 125 187.5 l 1
 125 125 l 1025
62.5 62.5 m 1
 125 62.5 l 1
 125 125 l 1
 62.5 125 l 1
 62.5 62.5 l 1025
62.5 0 m 1
 125 0 l 1
 125 62.5 l 1
 62.5 62.5 l 1
 62.5 0 l 1025
0 -62.5 m 1
 62.5 -62.5 l 1
 62.5 0 l 1
 0 0 l 1
 0 -62.5 l 1025
0 -125 m 1
 62.5 -125 l 1
 62.5 -62.5 l 1
 0 -62.5 l 1
 0 -125 l 1
EndSplineSet
EndChar

StartChar: zero
Encoding: 48 48 47
Width: 500
VWidth: 0
Flags: HW
LayerCount: 2
Back
Fore
SplineSet
187.5 750 m 1
 312.5 750 l 1
 312.5 812.5 l 1
 187.5 812.5 l 1
 187.5 750 l 1025
125 687.5 m 1
 187.5 687.5 l 1
 187.5 750 l 1
 125 750 l 1
 125 687.5 l 1025
312.5 687.5 m 1
 375 687.5 l 1
 375 750 l 1
 312.5 750 l 1
 312.5 687.5 l 1025
125 625 m 1
 187.5 625 l 1
 187.5 687.5 l 1
 125 687.5 l 1
 125 625 l 1025
312.5 625 m 1
 375 625 l 1
 375 687.5 l 1
 312.5 687.5 l 1
 312.5 625 l 1025
62.5 562.5 m 1
 125 562.5 l 1
 125 625 l 1
 62.5 625 l 1
 62.5 562.5 l 1025
375 562.5 m 1
 437.5 562.5 l 1
 437.5 625 l 1
 375 625 l 1
 375 562.5 l 1025
62.5 500 m 1
 125 500 l 1
 125 562.5 l 1
 62.5 562.5 l 1
 62.5 500 l 1025
375 500 m 1
 437.5 500 l 1
 437.5 562.5 l 1
 375 562.5 l 1
 375 500 l 1025
62.5 437.5 m 1
 125 437.5 l 1
 125 500 l 1
 62.5 500 l 1
 62.5 437.5 l 1025
375 437.5 m 1
 437.5 437.5 l 1
 437.5 500 l 1
 375 500 l 1
 375 437.5 l 1025
62.5 375 m 1
 125 375 l 1
 125 437.5 l 1
 62.5 437.5 l 1
 62.5 375 l 1025
375 375 m 1
 437.5 375 l 1
 437.5 437.5 l 1
 375 437.5 l 1
 375 375 l 1025
62.5 312.5 m 1
 125 312.5 l 1
 125 375 l 1
 62.5 375 l 1
 62.5 312.5 l 1025
375 312.5 m 1
 437.5 312.5 l 1
 437.5 375 l 1
 375 375 l 1
 375 312.5 l 1025
62.5 250 m 1
 125 250 l 1
 125 312.5 l 1
 62.5 312.5 l 1
 62.5 250 l 1025
375 250 m 1
 437.5 250 l 1
 437.5 312.5 l 1
 375 312.5 l 1
 375 250 l 1025
62.5 187.5 m 1
 125 187.5 l 1
 125 250 l 1
 62.5 250 l 1
 62.5 187.5 l 1025
375 187.5 m 1
 437.5 187.5 l 1
 437.5 250 l 1
 375 250 l 1
 375 187.5 l 1025
62.5 125 m 1
 125 125 l 1
 125 187.5 l 1
 62.5 187.5 l 1
 62.5 125 l 1025
375 125 m 1
 437.5 125 l 1
 437.5 187.5 l 1
 375 187.5 l 1
 375 125 l 1025
125 62.5 m 1
 187.5 62.5 l 1
 187.5 125 l 1
 125 125 l 1
 125 62.5 l 1025
312.5 62.5 m 1
 375 62.5 l 1
 375 125 l 1
 312.5 125 l 1
 312.5 62.5 l 1025
125 0 m 1
 187.5 0 l 1
 187.5 62.5 l 1
 125 62.5 l 1
 125 0 l 1025
312.5 0 m 1
 375 0 l 1
 375 62.5 l 1
 312.5 62.5 l 1
 312.5 0 l 1025
187.5 -62.5 m 1
 312.5 -62.5 l 1
 312.5 0 l 1
 187.5 0 l 1
 187.5 -62.5 l 1
EndSplineSet
EndChar

StartChar: one
Encoding: 49 49 48
Width: 500
VWidth: 0
Flags: HW
LayerCount: 2
Back
Fore
SplineSet
187.5 750 m 1
 250 750 l 1
 250 812.5 l 1
 187.5 812.5 l 1
 187.5 750 l 1025
62.5 687.5 m 1
 250 687.5 l 1
 250 750 l 1
 62.5 750 l 1
 62.5 687.5 l 1025
187.5 625 m 1
 250 625 l 1
 250 687.5 l 1
 187.5 687.5 l 1
 187.5 625 l 1025
187.5 562.5 m 1
 250 562.5 l 1
 250 625 l 1
 187.5 625 l 1
 187.5 562.5 l 1025
187.5 500 m 1
 250 500 l 1
 250 562.5 l 1
 187.5 562.5 l 1
 187.5 500 l 1025
187.5 437.5 m 1
 250 437.5 l 1
 250 500 l 1
 187.5 500 l 1
 187.5 437.5 l 1025
187.5 375 m 1
 250 375 l 1
 250 437.5 l 1
 187.5 437.5 l 1
 187.5 375 l 1025
187.5 312.5 m 1
 250 312.5 l 1
 250 375 l 1
 187.5 375 l 1
 187.5 312.5 l 1025
187.5 250 m 1
 250 250 l 1
 250 312.5 l 1
 187.5 312.5 l 1
 187.5 250 l 1025
187.5 187.5 m 1
 250 187.5 l 1
 250 250 l 1
 187.5 250 l 1
 187.5 187.5 l 1025
187.5 125 m 1
 250 125 l 1
 250 187.5 l 1
 187.5 187.5 l 1
 187.5 125 l 1025
187.5 62.5 m 1
 250 62.5 l 1
 250 125 l 1
 187.5 125 l 1
 187.5 62.5 l 1025
62.5 0 m 1
 375 0 l 1
 375 62.5 l 1
 62.5 62.5 l 1
 62.5 0 l 1
EndSplineSet
EndChar

StartChar: two
Encoding: 50 50 49
Width: 500
VWidth: 0
Flags: HW
LayerCount: 2
Back
Fore
SplineSet
187.5 750 m 1
 312.5 750 l 1
 312.5 812.5 l 1
 187.5 812.5 l 1
 187.5 750 l 1025
125 687.5 m 1
 187.5 687.5 l 1
 187.5 750 l 1
 125 750 l 1
 125 687.5 l 1025
312.5 687.5 m 1
 375 687.5 l 1
 375 750 l 1
 312.5 750 l 1
 312.5 687.5 l 1025
62.5 625 m 1
 125 625 l 1
 125 687.5 l 1
 62.5 687.5 l 1
 62.5 625 l 1025
375 625 m 1
 437.5 625 l 1
 437.5 687.5 l 1
 375 687.5 l 1
 375 625 l 1025
62.5 562.5 m 1
 187.5 562.5 l 1
 187.5 625 l 1
 62.5 625 l 1
 62.5 562.5 l 1025
375 562.5 m 1
 437.5 562.5 l 1
 437.5 625 l 1
 375 625 l 1
 375 562.5 l 1025
375 500 m 1
 437.5 500 l 1
 437.5 562.5 l 1
 375 562.5 l 1
 375 500 l 1025
312.5 437.5 m 1
 375 437.5 l 1
 375 500 l 1
 312.5 500 l 1
 312.5 437.5 l 1025
250 375 m 1
 312.5 375 l 1
 312.5 437.5 l 1
 250 437.5 l 1
 250 375 l 1025
250 312.5 m 1
 312.5 312.5 l 1
 312.5 375 l 1
 250 375 l 1
 250 312.5 l 1025
187.5 250 m 1
 250 250 l 1
 250 312.5 l 1
 187.5 312.5 l 1
 187.5 250 l 1025
125 187.5 m 1
 187.5 187.5 l 1
 187.5 250 l 1
 125 250 l 1
 125 187.5 l 1025
125 125 m 1
 187.5 125 l 1
 187.5 187.5 l 1
 125 187.5 l 1
 125 125 l 1025
375 125 m 1
 437.5 125 l 1
 437.5 187.5 l 1
 375 187.5 l 1
 375 125 l 1025
62.5 62.5 m 1
 125 62.5 l 1
 125 125 l 1
 62.5 125 l 1
 62.5 62.5 l 1025
375 62.5 m 1
 437.5 62.5 l 1
 437.5 125 l 1
 375 125 l 1
 375 62.5 l 1025
62.5 0 m 1
 437.5 0 l 1
 437.5 62.5 l 1
 62.5 62.5 l 1
 62.5 0 l 1
EndSplineSet
EndChar

StartChar: three
Encoding: 51 51 50
Width: 500
VWidth: 0
Flags: HW
LayerCount: 2
Back
Fore
SplineSet
125 750 m 1
 312.5 750 l 1
 312.5 812.5 l 1
 125 812.5 l 1
 125 750 l 1025
62.5 687.5 m 1
 125 687.5 l 1
 125 750 l 1
 62.5 750 l 1
 62.5 687.5 l 1025
312.5 687.5 m 1
 375 687.5 l 1
 375 750 l 1
 312.5 750 l 1
 312.5 687.5 l 1025
0 625 m 1
 62.5 625 l 1
 62.5 687.5 l 1
 0 687.5 l 1
 0 625 l 1025
375 625 m 1
 437.5 625 l 1
 437.5 687.5 l 1
 375 687.5 l 1
 375 625 l 1025
0 562.5 m 1
 62.5 562.5 l 1
 62.5 625 l 1
 0 625 l 1
 0 562.5 l 1025
375 562.5 m 1
 437.5 562.5 l 1
 437.5 625 l 1
 375 625 l 1
 375 562.5 l 1025
375 500 m 1
 437.5 500 l 1
 437.5 562.5 l 1
 375 562.5 l 1
 375 500 l 1025
312.5 437.5 m 1
 375 437.5 l 1
 375 500 l 1
 312.5 500 l 1
 312.5 437.5 l 1025
125 375 m 1
 312.5 375 l 1
 312.5 437.5 l 1
 125 437.5 l 1
 125 375 l 1025
312.5 312.5 m 1
 375 312.5 l 1
 375 375 l 1
 312.5 375 l 1
 312.5 312.5 l 1025
375 250 m 1
 437.5 250 l 1
 437.5 312.5 l 1
 375 312.5 l 1
 375 250 l 1025
0 187.5 m 1
 62.5 187.5 l 1
 62.5 250 l 1
 0 250 l 1
 0 187.5 l 1025
375 187.5 m 1
 437.5 187.5 l 1
 437.5 250 l 1
 375 250 l 1
 375 187.5 l 1025
0 125 m 1
 62.5 125 l 1
 62.5 187.5 l 1
 0 187.5 l 1
 0 125 l 1025
375 125 m 1
 437.5 125 l 1
 437.5 187.5 l 1
 375 187.5 l 1
 375 125 l 1025
62.5 62.5 m 1
 125 62.5 l 1
 125 125 l 1
 62.5 125 l 1
 62.5 62.5 l 1025
312.5 62.5 m 1
 375 62.5 l 1
 375 125 l 1
 312.5 125 l 1
 312.5 62.5 l 1025
125 0 m 1
 312.5 0 l 1
 312.5 62.5 l 1
 125 62.5 l 1
 125 0 l 1
EndSplineSet
EndChar

StartChar: four
Encoding: 52 52 51
Width: 500
VWidth: 0
Flags: HW
LayerCount: 2
Back
Fore
SplineSet
250 750 m 1
 312.5 750 l 1
 312.5 812.5 l 1
 250 812.5 l 1
 250 750 l 1025
187.5 687.5 m 1
 312.5 687.5 l 1
 312.5 750 l 1
 187.5 750 l 1
 187.5 687.5 l 1025
125 625 m 1
 187.5 625 l 1
 187.5 687.5 l 1
 125 687.5 l 1
 125 625 l 1025
250 625 m 1
 312.5 625 l 1
 312.5 687.5 l 1
 250 687.5 l 1
 250 625 l 1025
125 562.5 m 1
 187.5 562.5 l 1
 187.5 625 l 1
 125 625 l 1
 125 562.5 l 1025
250 562.5 m 1
 312.5 562.5 l 1
 312.5 625 l 1
 250 625 l 1
 250 562.5 l 1025
62.5 500 m 1
 125 500 l 1
 125 562.5 l 1
 62.5 562.5 l 1
 62.5 500 l 1025
250 500 m 1
 312.5 500 l 1
 312.5 562.5 l 1
 250 562.5 l 1
 250 500 l 1025
62.5 437.5 m 1
 125 437.5 l 1
 125 500 l 1
 62.5 500 l 1
 62.5 437.5 l 1025
250 437.5 m 1
 312.5 437.5 l 1
 312.5 500 l 1
 250 500 l 1
 250 437.5 l 1025
0 375 m 1
 62.5 375 l 1
 62.5 437.5 l 1
 0 437.5 l 1
 0 375 l 1025
250 375 m 1
 312.5 375 l 1
 312.5 437.5 l 1
 250 437.5 l 1
 250 375 l 1025
0 312.5 m 1
 62.5 312.5 l 1
 62.5 375 l 1
 0 375 l 1
 0 312.5 l 1025
250 312.5 m 1
 312.5 312.5 l 1
 312.5 375 l 1
 250 375 l 1
 250 312.5 l 1025
0 250 m 1
 437.5 250 l 1
 437.5 312.5 l 1
 0 312.5 l 1
 0 250 l 1025
250 187.5 m 1
 312.5 187.5 l 1
 312.5 250 l 1
 250 250 l 1
 250 187.5 l 1025
250 125 m 1
 312.5 125 l 1
 312.5 187.5 l 1
 250 187.5 l 1
 250 125 l 1025
250 62.5 m 1
 312.5 62.5 l 1
 312.5 125 l 1
 250 125 l 1
 250 62.5 l 1025
125 0 m 1
 375 0 l 1
 375 62.5 l 1
 125 62.5 l 1
 125 0 l 1
EndSplineSet
EndChar

StartChar: five
Encoding: 53 53 52
Width: 500
VWidth: 0
Flags: HW
LayerCount: 2
Back
Fore
SplineSet
0 750 m 1
 375 750 l 1
 375 812.5 l 1
 0 812.5 l 1
 0 750 l 1025
0 687.5 m 1
 62.5 687.5 l 1
 62.5 750 l 1
 0 750 l 1
 0 687.5 l 1025
0 625 m 1
 62.5 625 l 1
 62.5 687.5 l 1
 0 687.5 l 1
 0 625 l 1025
0 562.5 m 1
 62.5 562.5 l 1
 62.5 625 l 1
 0 625 l 1
 0 562.5 l 1025
0 500 m 1
 62.5 500 l 1
 62.5 562.5 l 1
 0 562.5 l 1
 0 500 l 1025
125 500 m 1
 312.5 500 l 1
 312.5 562.5 l 1
 125 562.5 l 1
 125 500 l 1025
0 437.5 m 1
 125 437.5 l 1
 125 500 l 1
 0 500 l 1
 0 437.5 l 1025
312.5 437.5 m 1
 375 437.5 l 1
 375 500 l 1
 312.5 500 l 1
 312.5 437.5 l 1025
0 375 m 1
 62.5 375 l 1
 62.5 437.5 l 1
 0 437.5 l 1
 0 375 l 1025
375 375 m 1
 437.5 375 l 1
 437.5 437.5 l 1
 375 437.5 l 1
 375 375 l 1025
375 312.5 m 1
 437.5 312.5 l 1
 437.5 375 l 1
 375 375 l 1
 375 312.5 l 1025
375 250 m 1
 437.5 250 l 1
 437.5 312.5 l 1
 375 312.5 l 1
 375 250 l 1025
0 187.5 m 1
 125 187.5 l 1
 125 250 l 1
 0 250 l 1
 0 187.5 l 1025
375 187.5 m 1
 437.5 187.5 l 1
 437.5 250 l 1
 375 250 l 1
 375 187.5 l 1025
0 125 m 1
 62.5 125 l 1
 62.5 187.5 l 1
 0 187.5 l 1
 0 125 l 1025
375 125 m 1
 437.5 125 l 1
 437.5 187.5 l 1
 375 187.5 l 1
 375 125 l 1025
62.5 62.5 m 1
 125 62.5 l 1
 125 125 l 1
 62.5 125 l 1
 62.5 62.5 l 1025
312.5 62.5 m 1
 375 62.5 l 1
 375 125 l 1
 312.5 125 l 1
 312.5 62.5 l 1025
125 0 m 1
 312.5 0 l 1
 312.5 62.5 l 1
 125 62.5 l 1
 125 0 l 1
EndSplineSet
EndChar

StartChar: six
Encoding: 54 54 53
Width: 500
VWidth: 0
Flags: HW
LayerCount: 2
Back
Fore
SplineSet
125 750 m 1
 375 750 l 1
 375 812.5 l 1
 125 812.5 l 1
 125 750 l 1025
62.5 687.5 m 1
 125 687.5 l 1
 125 750 l 1
 62.5 750 l 1
 62.5 687.5 l 1025
375 687.5 m 1
 437.5 687.5 l 1
 437.5 750 l 1
 375 750 l 1
 375 687.5 l 1025
62.5 625 m 1
 125 625 l 1
 125 687.5 l 1
 62.5 687.5 l 1
 62.5 625 l 1025
312.5 625 m 1
 437.5 625 l 1
 437.5 687.5 l 1
 312.5 687.5 l 1
 312.5 625 l 1025
0 562.5 m 1
 62.5 562.5 l 1
 62.5 625 l 1
 0 625 l 1
 0 562.5 l 1025
0 500 m 1
 62.5 500 l 1
 62.5 562.5 l 1
 0 562.5 l 1
 0 500 l 1025
0 437.5 m 1
 62.5 437.5 l 1
 62.5 500 l 1
 0 500 l 1
 0 437.5 l 1025
125 437.5 m 1
 312.5 437.5 l 1
 312.5 500 l 1
 125 500 l 1
 125 437.5 l 1025
0 375 m 1
 125 375 l 1
 125 437.5 l 1
 0 437.5 l 1
 0 375 l 1025
312.5 375 m 1
 375 375 l 1
 375 437.5 l 1
 312.5 437.5 l 1
 312.5 375 l 1025
0 312.5 m 1
 62.5 312.5 l 1
 62.5 375 l 1
 0 375 l 1
 0 312.5 l 1025
375 312.5 m 1
 437.5 312.5 l 1
 437.5 375 l 1
 375 375 l 1
 375 312.5 l 1025
0 250 m 1
 62.5 250 l 1
 62.5 312.5 l 1
 0 312.5 l 1
 0 250 l 1025
375 250 m 1
 437.5 250 l 1
 437.5 312.5 l 1
 375 312.5 l 1
 375 250 l 1025
0 187.5 m 1
 62.5 187.5 l 1
 62.5 250 l 1
 0 250 l 1
 0 187.5 l 1025
375 187.5 m 1
 437.5 187.5 l 1
 437.5 250 l 1
 375 250 l 1
 375 187.5 l 1025
0 125 m 1
 62.5 125 l 1
 62.5 187.5 l 1
 0 187.5 l 1
 0 125 l 1025
375 125 m 1
 437.5 125 l 1
 437.5 187.5 l 1
 375 187.5 l 1
 375 125 l 1025
62.5 62.5 m 1
 125 62.5 l 1
 125 125 l 1
 62.5 125 l 1
 62.5 62.5 l 1025
312.5 62.5 m 1
 375 62.5 l 1
 375 125 l 1
 312.5 125 l 1
 312.5 62.5 l 1025
125 0 m 1
 312.5 0 l 1
 312.5 62.5 l 1
 125 62.5 l 1
 125 0 l 1
EndSplineSet
EndChar

StartChar: seven
Encoding: 55 55 54
Width: 500
VWidth: 0
Flags: HW
LayerCount: 2
Back
Fore
SplineSet
0 750 m 1
 437.5 750 l 1
 437.5 812.5 l 1
 0 812.5 l 1
 0 750 l 1025
0 687.5 m 1
 62.5 687.5 l 1
 62.5 750 l 1
 0 750 l 1
 0 687.5 l 1025
375 687.5 m 1
 437.5 687.5 l 1
 437.5 750 l 1
 375 750 l 1
 375 687.5 l 1025
0 625 m 1
 62.5 625 l 1
 62.5 687.5 l 1
 0 687.5 l 1
 0 625 l 1025
375 625 m 1
 437.5 625 l 1
 437.5 687.5 l 1
 375 687.5 l 1
 375 625 l 1025
312.5 562.5 m 1
 375 562.5 l 1
 375 625 l 1
 312.5 625 l 1
 312.5 562.5 l 1025
312.5 500 m 1
 375 500 l 1
 375 562.5 l 1
 312.5 562.5 l 1
 312.5 500 l 1025
312.5 437.5 m 1
 375 437.5 l 1
 375 500 l 1
 312.5 500 l 1
 312.5 437.5 l 1025
250 375 m 1
 312.5 375 l 1
 312.5 437.5 l 1
 250 437.5 l 1
 250 375 l 1025
250 312.5 m 1
 312.5 312.5 l 1
 312.5 375 l 1
 250 375 l 1
 250 312.5 l 1025
250 250 m 1
 312.5 250 l 1
 312.5 312.5 l 1
 250 312.5 l 1
 250 250 l 1025
250 187.5 m 1
 312.5 187.5 l 1
 312.5 250 l 1
 250 250 l 1
 250 187.5 l 1025
187.5 125 m 1
 250 125 l 1
 250 187.5 l 1
 187.5 187.5 l 1
 187.5 125 l 1025
187.5 62.5 m 1
 250 62.5 l 1
 250 125 l 1
 187.5 125 l 1
 187.5 62.5 l 1025
187.5 0 m 1
 250 0 l 1
 250 62.5 l 1
 187.5 62.5 l 1
 187.5 0 l 1025
187.5 -62.5 m 1
 250 -62.5 l 1
 250 0 l 1
 187.5 0 l 1
 187.5 -62.5 l 1
EndSplineSet
EndChar

StartChar: eight
Encoding: 56 56 55
Width: 500
VWidth: 0
Flags: HW
LayerCount: 2
Back
Fore
SplineSet
125 750 m 1
 312.5 750 l 1
 312.5 812.5 l 1
 125 812.5 l 1
 125 750 l 1025
62.5 687.5 m 1
 125 687.5 l 1
 125 750 l 1
 62.5 750 l 1
 62.5 687.5 l 1025
312.5 687.5 m 1
 375 687.5 l 1
 375 750 l 1
 312.5 750 l 1
 312.5 687.5 l 1025
0 625 m 1
 62.5 625 l 1
 62.5 687.5 l 1
 0 687.5 l 1
 0 625 l 1025
375 625 m 1
 437.5 625 l 1
 437.5 687.5 l 1
 375 687.5 l 1
 375 625 l 1025
0 562.5 m 1
 62.5 562.5 l 1
 62.5 625 l 1
 0 625 l 1
 0 562.5 l 1025
375 562.5 m 1
 437.5 562.5 l 1
 437.5 625 l 1
 375 625 l 1
 375 562.5 l 1025
0 500 m 1
 62.5 500 l 1
 62.5 562.5 l 1
 0 562.5 l 1
 0 500 l 1025
375 500 m 1
 437.5 500 l 1
 437.5 562.5 l 1
 375 562.5 l 1
 375 500 l 1025
62.5 437.5 m 1
 125 437.5 l 1
 125 500 l 1
 62.5 500 l 1
 62.5 437.5 l 1025
312.5 437.5 m 1
 375 437.5 l 1
 375 500 l 1
 312.5 500 l 1
 312.5 437.5 l 1025
125 375 m 1
 312.5 375 l 1
 312.5 437.5 l 1
 125 437.5 l 1
 125 375 l 1025
62.5 312.5 m 1
 125 312.5 l 1
 125 375 l 1
 62.5 375 l 1
 62.5 312.5 l 1025
312.5 312.5 m 1
 375 312.5 l 1
 375 375 l 1
 312.5 375 l 1
 312.5 312.5 l 1025
0 250 m 1
 62.5 250 l 1
 62.5 312.5 l 1
 0 312.5 l 1
 0 250 l 1025
375 250 m 1
 437.5 250 l 1
 437.5 312.5 l 1
 375 312.5 l 1
 375 250 l 1025
0 187.5 m 1
 62.5 187.5 l 1
 62.5 250 l 1
 0 250 l 1
 0 187.5 l 1025
375 187.5 m 1
 437.5 187.5 l 1
 437.5 250 l 1
 375 250 l 1
 375 187.5 l 1025
0 125 m 1
 62.5 125 l 1
 62.5 187.5 l 1
 0 187.5 l 1
 0 125 l 1025
375 125 m 1
 437.5 125 l 1
 437.5 187.5 l 1
 375 187.5 l 1
 375 125 l 1025
62.5 62.5 m 1
 125 62.5 l 1
 125 125 l 1
 62.5 125 l 1
 62.5 62.5 l 1025
312.5 62.5 m 1
 375 62.5 l 1
 375 125 l 1
 312.5 125 l 1
 312.5 62.5 l 1025
125 0 m 1
 312.5 0 l 1
 312.5 62.5 l 1
 125 62.5 l 1
 125 0 l 1
EndSplineSet
EndChar

StartChar: nine
Encoding: 57 57 56
Width: 500
VWidth: 0
Flags: HW
LayerCount: 2
Back
Fore
SplineSet
125 750 m 1
 312.5 750 l 1
 312.5 812.5 l 1
 125 812.5 l 1
 125 750 l 1025
62.5 687.5 m 1
 125 687.5 l 1
 125 750 l 1
 62.5 750 l 1
 62.5 687.5 l 1025
312.5 687.5 m 1
 375 687.5 l 1
 375 750 l 1
 312.5 750 l 1
 312.5 687.5 l 1025
0 625 m 1
 62.5 625 l 1
 62.5 687.5 l 1
 0 687.5 l 1
 0 625 l 1025
375 625 m 1
 437.5 625 l 1
 437.5 687.5 l 1
 375 687.5 l 1
 375 625 l 1025
0 562.5 m 1
 62.5 562.5 l 1
 62.5 625 l 1
 0 625 l 1
 0 562.5 l 1025
375 562.5 m 1
 437.5 562.5 l 1
 437.5 625 l 1
 375 625 l 1
 375 562.5 l 1025
0 500 m 1
 62.5 500 l 1
 62.5 562.5 l 1
 0 562.5 l 1
 0 500 l 1025
375 500 m 1
 437.5 500 l 1
 437.5 562.5 l 1
 375 562.5 l 1
 375 500 l 1025
0 437.5 m 1
 62.5 437.5 l 1
 62.5 500 l 1
 0 500 l 1
 0 437.5 l 1025
375 437.5 m 1
 437.5 437.5 l 1
 437.5 500 l 1
 375 500 l 1
 375 437.5 l 1025
62.5 375 m 1
 125 375 l 1
 125 437.5 l 1
 62.5 437.5 l 1
 62.5 375 l 1025
312.5 375 m 1
 437.5 375 l 1
 437.5 437.5 l 1
 312.5 437.5 l 1
 312.5 375 l 1025
125 312.5 m 1
 312.5 312.5 l 1
 312.5 375 l 1
 125 375 l 1
 125 312.5 l 1025
375 312.5 m 1
 437.5 312.5 l 1
 437.5 375 l 1
 375 375 l 1
 375 312.5 l 1025
375 250 m 1
 437.5 250 l 1
 437.5 312.5 l 1
 375 312.5 l 1
 375 250 l 1025
375 187.5 m 1
 437.5 187.5 l 1
 437.5 250 l 1
 375 250 l 1
 375 187.5 l 1025
0 125 m 1
 62.5 125 l 1
 62.5 187.5 l 1
 0 187.5 l 1
 0 125 l 1025
375 125 m 1
 437.5 125 l 1
 437.5 187.5 l 1
 375 187.5 l 1
 375 125 l 1025
62.5 62.5 m 1
 125 62.5 l 1
 125 125 l 1
 62.5 125 l 1
 62.5 62.5 l 1025
312.5 62.5 m 1
 375 62.5 l 1
 375 125 l 1
 312.5 125 l 1
 312.5 62.5 l 1025
125 0 m 1
 312.5 0 l 1
 312.5 62.5 l 1
 125 62.5 l 1
 125 0 l 1
EndSplineSet
EndChar

StartChar: colon
Encoding: 58 58 57
Width: 500
VWidth: 0
Flags: HW
LayerCount: 2
Back
Fore
SplineSet
125 500 m 1
 312.5 500 l 1
 312.5 562.5 l 1
 125 562.5 l 1
 125 500 l 1025
125 437.5 m 1
 312.5 437.5 l 1
 312.5 500 l 1
 125 500 l 1
 125 437.5 l 1025
125 62.5 m 1
 312.5 62.5 l 1
 312.5 125 l 1
 125 125 l 1
 125 62.5 l 1025
125 0 m 1
 312.5 0 l 1
 312.5 62.5 l 1
 125 62.5 l 1
 125 0 l 1
EndSplineSet
EndChar

StartChar: semicolon
Encoding: 59 59 58
Width: 500
VWidth: 0
Flags: HW
LayerCount: 2
Back
Fore
SplineSet
125 500 m 1
 312.5 500 l 1
 312.5 562.5 l 1
 125 562.5 l 1
 125 500 l 1025
125 437.5 m 1
 312.5 437.5 l 1
 312.5 500 l 1
 125 500 l 1
 125 437.5 l 1025
125 125 m 1
 312.5 125 l 1
 312.5 187.5 l 1
 125 187.5 l 1
 125 125 l 1025
125 62.5 m 1
 312.5 62.5 l 1
 312.5 125 l 1
 125 125 l 1
 125 62.5 l 1025
187.5 0 m 1
 312.5 0 l 1
 312.5 62.5 l 1
 187.5 62.5 l 1
 187.5 0 l 1025
187.5 -62.5 m 1
 250 -62.5 l 1
 250 0 l 1
 187.5 0 l 1
 187.5 -62.5 l 1025
125 -125 m 1
 250 -125 l 1
 250 -62.5 l 1
 125 -62.5 l 1
 125 -125 l 1
EndSplineSet
EndChar

StartChar: less
Encoding: 60 60 59
Width: 500
VWidth: 0
Flags: HW
LayerCount: 2
Back
Fore
SplineSet
375 812.5 m 1
 437.5 812.5 l 1
 437.5 875 l 1
 375 875 l 1
 375 812.5 l 1025
312.5 750 m 1
 375 750 l 1
 375 812.5 l 1
 312.5 812.5 l 1
 312.5 750 l 1025
312.5 687.5 m 1
 375 687.5 l 1
 375 750 l 1
 312.5 750 l 1
 312.5 687.5 l 1025
250 625 m 1
 312.5 625 l 1
 312.5 687.5 l 1
 250 687.5 l 1
 250 625 l 1025
250 562.5 m 1
 312.5 562.5 l 1
 312.5 625 l 1
 250 625 l 1
 250 562.5 l 1025
187.5 500 m 1
 250 500 l 1
 250 562.5 l 1
 187.5 562.5 l 1
 187.5 500 l 1025
187.5 437.5 m 1
 250 437.5 l 1
 250 500 l 1
 187.5 500 l 1
 187.5 437.5 l 1025
125 375 m 1
 187.5 375 l 1
 187.5 437.5 l 1
 125 437.5 l 1
 125 375 l 1025
125 312.5 m 1
 187.5 312.5 l 1
 187.5 375 l 1
 125 375 l 1
 125 312.5 l 1025
187.5 250 m 1
 250 250 l 1
 250 312.5 l 1
 187.5 312.5 l 1
 187.5 250 l 1025
187.5 187.5 m 1
 250 187.5 l 1
 250 250 l 1
 187.5 250 l 1
 187.5 187.5 l 1025
250 125 m 1
 312.5 125 l 1
 312.5 187.5 l 1
 250 187.5 l 1
 250 125 l 1025
250 62.5 m 1
 312.5 62.5 l 1
 312.5 125 l 1
 250 125 l 1
 250 62.5 l 1025
312.5 0 m 1
 375 0 l 1
 375 62.5 l 1
 312.5 62.5 l 1
 312.5 0 l 1025
312.5 -62.5 m 1
 375 -62.5 l 1
 375 0 l 1
 312.5 0 l 1
 312.5 -62.5 l 1025
375 -125 m 1
 437.5 -125 l 1
 437.5 -62.5 l 1
 375 -62.5 l 1
 375 -125 l 1
EndSplineSet
EndChar

StartChar: equal
Encoding: 61 61 60
Width: 500
VWidth: 0
Flags: HW
LayerCount: 2
Back
Fore
SplineSet
0 500 m 1
 437.5 500 l 1
 437.5 562.5 l 1
 0 562.5 l 1
 0 500 l 1025
0 250 m 1
 437.5 250 l 1
 437.5 312.5 l 1
 0 312.5 l 1
 0 250 l 1
EndSplineSet
EndChar

StartChar: greater
Encoding: 62 62 61
Width: 500
VWidth: 0
Flags: HW
LayerCount: 2
Back
Fore
SplineSet
0 812.5 m 1
 62.5 812.5 l 1
 62.5 875 l 1
 0 875 l 1
 0 812.5 l 1025
62.5 750 m 1
 125 750 l 1
 125 812.5 l 1
 62.5 812.5 l 1
 62.5 750 l 1025
62.5 687.5 m 1
 125 687.5 l 1
 125 750 l 1
 62.5 750 l 1
 62.5 687.5 l 1025
125 625 m 1
 187.5 625 l 1
 187.5 687.5 l 1
 125 687.5 l 1
 125 625 l 1025
125 562.5 m 1
 187.5 562.5 l 1
 187.5 625 l 1
 125 625 l 1
 125 562.5 l 1025
187.5 500 m 1
 250 500 l 1
 250 562.5 l 1
 187.5 562.5 l 1
 187.5 500 l 1025
187.5 437.5 m 1
 250 437.5 l 1
 250 500 l 1
 187.5 500 l 1
 187.5 437.5 l 1025
250 375 m 1
 312.5 375 l 1
 312.5 437.5 l 1
 250 437.5 l 1
 250 375 l 1025
250 312.5 m 1
 312.5 312.5 l 1
 312.5 375 l 1
 250 375 l 1
 250 312.5 l 1025
187.5 250 m 1
 250 250 l 1
 250 312.5 l 1
 187.5 312.5 l 1
 187.5 250 l 1025
187.5 187.5 m 1
 250 187.5 l 1
 250 250 l 1
 187.5 250 l 1
 187.5 187.5 l 1025
125 125 m 1
 187.5 125 l 1
 187.5 187.5 l 1
 125 187.5 l 1
 125 125 l 1025
125 62.5 m 1
 187.5 62.5 l 1
 187.5 125 l 1
 125 125 l 1
 125 62.5 l 1025
62.5 0 m 1
 125 0 l 1
 125 62.5 l 1
 62.5 62.5 l 1
 62.5 0 l 1025
62.5 -62.5 m 1
 125 -62.5 l 1
 125 0 l 1
 62.5 0 l 1
 62.5 -62.5 l 1025
0 -125 m 1
 62.5 -125 l 1
 62.5 -62.5 l 1
 0 -62.5 l 1
 0 -125 l 1
EndSplineSet
EndChar

StartChar: question
Encoding: 63 63 62
Width: 500
VWidth: 0
Flags: HW
LayerCount: 2
Back
Fore
SplineSet
125 750 m 1
 312.5 750 l 1
 312.5 812.5 l 1
 125 812.5 l 1
 125 750 l 1025
62.5 687.5 m 1
 125 687.5 l 1
 125 750 l 1
 62.5 750 l 1
 62.5 687.5 l 1025
312.5 687.5 m 1
 375 687.5 l 1
 375 750 l 1
 312.5 750 l 1
 312.5 687.5 l 1025
0 625 m 1
 62.5 625 l 1
 62.5 687.5 l 1
 0 687.5 l 1
 0 625 l 1025
375 625 m 1
 437.5 625 l 1
 437.5 687.5 l 1
 375 687.5 l 1
 375 625 l 1025
0 562.5 m 1
 125 562.5 l 1
 125 625 l 1
 0 625 l 1
 0 562.5 l 1025
375 562.5 m 1
 437.5 562.5 l 1
 437.5 625 l 1
 375 625 l 1
 375 562.5 l 1025
375 500 m 1
 437.5 500 l 1
 437.5 562.5 l 1
 375 562.5 l 1
 375 500 l 1025
312.5 437.5 m 1
 375 437.5 l 1
 375 500 l 1
 312.5 500 l 1
 312.5 437.5 l 1025
312.5 375 m 1
 375 375 l 1
 375 437.5 l 1
 312.5 437.5 l 1
 312.5 375 l 1025
250 312.5 m 1
 312.5 312.5 l 1
 312.5 375 l 1
 250 375 l 1
 250 312.5 l 1025
187.5 250 m 1
 250 250 l 1
 250 312.5 l 1
 187.5 312.5 l 1
 187.5 250 l 1025
187.5 187.5 m 1
 250 187.5 l 1
 250 250 l 1
 187.5 250 l 1
 187.5 187.5 l 1025
187.5 0 m 1
 250 0 l 1
 250 62.5 l 1
 187.5 62.5 l 1
 187.5 0 l 1025
125 -62.5 m 1
 312.5 -62.5 l 1
 312.5 0 l 1
 125 0 l 1
 125 -62.5 l 1025
187.5 -125 m 1
 250 -125 l 1
 250 -62.5 l 1
 187.5 -62.5 l 1
 187.5 -125 l 1
EndSplineSet
EndChar

StartChar: at
Encoding: 64 64 63
Width: 500
VWidth: 0
Flags: HW
LayerCount: 2
Back
Fore
SplineSet
125 750 m 1
 375 750 l 1
 375 812.5 l 1
 125 812.5 l 1
 125 750 l 1025
62.5 687.5 m 1
 125 687.5 l 1
 125 750 l 1
 62.5 750 l 1
 62.5 687.5 l 1025
375 687.5 m 1
 437.5 687.5 l 1
 437.5 750 l 1
 375 750 l 1
 375 687.5 l 1025
0 625 m 1
 62.5 625 l 1
 62.5 687.5 l 1
 0 687.5 l 1
 0 625 l 1025
375 625 m 1
 437.5 625 l 1
 437.5 687.5 l 1
 375 687.5 l 1
 375 625 l 1025
0 562.5 m 1
 62.5 562.5 l 1
 62.5 625 l 1
 0 625 l 1
 0 562.5 l 1025
187.5 562.5 m 1
 312.5 562.5 l 1
 312.5 625 l 1
 187.5 625 l 1
 187.5 562.5 l 1025
375 562.5 m 1
 437.5 562.5 l 1
 437.5 625 l 1
 375 625 l 1
 375 562.5 l 1025
0 500 m 1
 62.5 500 l 1
 62.5 562.5 l 1
 0 562.5 l 1
 0 500 l 1025
125 500 m 1
 187.5 500 l 1
 187.5 562.5 l 1
 125 562.5 l 1
 125 500 l 1025
312.5 500 m 1
 437.5 500 l 1
 437.5 562.5 l 1
 312.5 562.5 l 1
 312.5 500 l 1025
0 437.5 m 1
 62.5 437.5 l 1
 62.5 500 l 1
 0 500 l 1
 0 437.5 l 1025
125 437.5 m 1
 187.5 437.5 l 1
 187.5 500 l 1
 125 500 l 1
 125 437.5 l 1025
375 437.5 m 1
 437.5 437.5 l 1
 437.5 500 l 1
 375 500 l 1
 375 437.5 l 1025
0 375 m 1
 62.5 375 l 1
 62.5 437.5 l 1
 0 437.5 l 1
 0 375 l 1025
125 375 m 1
 187.5 375 l 1
 187.5 437.5 l 1
 125 437.5 l 1
 125 375 l 1025
375 375 m 1
 437.5 375 l 1
 437.5 437.5 l 1
 375 437.5 l 1
 375 375 l 1025
0 312.5 m 1
 62.5 312.5 l 1
 62.5 375 l 1
 0 375 l 1
 0 312.5 l 1025
125 312.5 m 1
 187.5 312.5 l 1
 187.5 375 l 1
 125 375 l 1
 125 312.5 l 1025
375 312.5 m 1
 437.5 312.5 l 1
 437.5 375 l 1
 375 375 l 1
 375 312.5 l 1025
0 250 m 1
 62.5 250 l 1
 62.5 312.5 l 1
 0 312.5 l 1
 0 250 l 1025
125 250 m 1
 187.5 250 l 1
 187.5 312.5 l 1
 125 312.5 l 1
 125 250 l 1025
312.5 250 m 1
 437.5 250 l 1
 437.5 312.5 l 1
 312.5 312.5 l 1
 312.5 250 l 1025
0 187.5 m 1
 62.5 187.5 l 1
 62.5 250 l 1
 0 250 l 1
 0 187.5 l 1025
187.5 187.5 m 1
 312.5 187.5 l 1
 312.5 250 l 1
 187.5 250 l 1
 187.5 187.5 l 1025
375 187.5 m 1
 437.5 187.5 l 1
 437.5 250 l 1
 375 250 l 1
 375 187.5 l 1025
0 125 m 1
 62.5 125 l 1
 62.5 187.5 l 1
 0 187.5 l 1
 0 125 l 1025
62.5 62.5 m 1
 125 62.5 l 1
 125 125 l 1
 62.5 125 l 1
 62.5 62.5 l 1025
375 62.5 m 1
 437.5 62.5 l 1
 437.5 125 l 1
 375 125 l 1
 375 62.5 l 1025
125 0 m 1
 375 0 l 1
 375 62.5 l 1
 125 62.5 l 1
 125 0 l 1
EndSplineSet
EndChar

StartChar: A
Encoding: 65 65 64
Width: 500
VWidth: 0
Flags: HW
LayerCount: 2
Back
Fore
SplineSet
187.5 750 m 1
 250 750 l 1
 250 812.5 l 1
 187.5 812.5 l 1
 187.5 750 l 1025
125 687.5 m 1
 187.5 687.5 l 1
 187.5 750 l 1
 125 750 l 1
 125 687.5 l 1025
250 687.5 m 1
 312.5 687.5 l 1
 312.5 750 l 1
 250 750 l 1
 250 687.5 l 1025
125 625 m 1
 187.5 625 l 1
 187.5 687.5 l 1
 125 687.5 l 1
 125 625 l 1025
250 625 m 1
 312.5 625 l 1
 312.5 687.5 l 1
 250 687.5 l 1
 250 625 l 1025
125 562.5 m 1
 187.5 562.5 l 1
 187.5 625 l 1
 125 625 l 1
 125 562.5 l 1025
250 562.5 m 1
 312.5 562.5 l 1
 312.5 625 l 1
 250 625 l 1
 250 562.5 l 1025
62.5 500 m 1
 125 500 l 1
 125 562.5 l 1
 62.5 562.5 l 1
 62.5 500 l 1025
312.5 500 m 1
 375 500 l 1
 375 562.5 l 1
 312.5 562.5 l 1
 312.5 500 l 1025
62.5 437.5 m 1
 125 437.5 l 1
 125 500 l 1
 62.5 500 l 1
 62.5 437.5 l 1025
312.5 437.5 m 1
 375 437.5 l 1
 375 500 l 1
 312.5 500 l 1
 312.5 437.5 l 1025
62.5 375 m 1
 125 375 l 1
 125 437.5 l 1
 62.5 437.5 l 1
 62.5 375 l 1025
312.5 375 m 1
 375 375 l 1
 375 437.5 l 1
 312.5 437.5 l 1
 312.5 375 l 1025
62.5 312.5 m 1
 125 312.5 l 1
 125 375 l 1
 62.5 375 l 1
 62.5 312.5 l 1025
312.5 312.5 m 1
 375 312.5 l 1
 375 375 l 1
 312.5 375 l 1
 312.5 312.5 l 1025
62.5 250 m 1
 375 250 l 1
 375 312.5 l 1
 62.5 312.5 l 1
 62.5 250 l 1025
0 187.5 m 1
 62.5 187.5 l 1
 62.5 250 l 1
 0 250 l 1
 0 187.5 l 1025
375 187.5 m 1
 437.5 187.5 l 1
 437.5 250 l 1
 375 250 l 1
 375 187.5 l 1025
0 125 m 1
 62.5 125 l 1
 62.5 187.5 l 1
 0 187.5 l 1
 0 125 l 1025
375 125 m 1
 437.5 125 l 1
 437.5 187.5 l 1
 375 187.5 l 1
 375 125 l 1025
0 62.5 m 1
 62.5 62.5 l 1
 62.5 125 l 1
 0 125 l 1
 0 62.5 l 1025
375 62.5 m 1
 437.5 62.5 l 1
 437.5 125 l 1
 375 125 l 1
 375 62.5 l 1025
0 0 m 1
 125 0 l 1
 125 62.5 l 1
 0 62.5 l 1
 0 0 l 1025
312.5 0 m 1
 437.5 0 l 1
 437.5 62.5 l 1
 312.5 62.5 l 1
 312.5 0 l 1
EndSplineSet
EndChar

StartChar: B
Encoding: 66 66 65
Width: 500
VWidth: 0
Flags: HW
LayerCount: 2
Back
Fore
SplineSet
0 750 m 1
 312.5 750 l 1
 312.5 812.5 l 1
 0 812.5 l 1
 0 750 l 1025
62.5 687.5 m 1
 125 687.5 l 1
 125 750 l 1
 62.5 750 l 1
 62.5 687.5 l 1025
312.5 687.5 m 1
 375 687.5 l 1
 375 750 l 1
 312.5 750 l 1
 312.5 687.5 l 1025
62.5 625 m 1
 125 625 l 1
 125 687.5 l 1
 62.5 687.5 l 1
 62.5 625 l 1025
375 625 m 1
 437.5 625 l 1
 437.5 687.5 l 1
 375 687.5 l 1
 375 625 l 1025
62.5 562.5 m 1
 125 562.5 l 1
 125 625 l 1
 62.5 625 l 1
 62.5 562.5 l 1025
375 562.5 m 1
 437.5 562.5 l 1
 437.5 625 l 1
 375 625 l 1
 375 562.5 l 1025
62.5 500 m 1
 125 500 l 1
 125 562.5 l 1
 62.5 562.5 l 1
 62.5 500 l 1025
375 500 m 1
 437.5 500 l 1
 437.5 562.5 l 1
 375 562.5 l 1
 375 500 l 1025
62.5 437.5 m 1
 125 437.5 l 1
 125 500 l 1
 62.5 500 l 1
 62.5 437.5 l 1025
312.5 437.5 m 1
 375 437.5 l 1
 375 500 l 1
 312.5 500 l 1
 312.5 437.5 l 1025
62.5 375 m 1
 312.5 375 l 1
 312.5 437.5 l 1
 62.5 437.5 l 1
 62.5 375 l 1025
62.5 312.5 m 1
 125 312.5 l 1
 125 375 l 1
 62.5 375 l 1
 62.5 312.5 l 1025
312.5 312.5 m 1
 375 312.5 l 1
 375 375 l 1
 312.5 375 l 1
 312.5 312.5 l 1025
62.5 250 m 1
 125 250 l 1
 125 312.5 l 1
 62.5 312.5 l 1
 62.5 250 l 1025
375 250 m 1
 437.5 250 l 1
 437.5 312.5 l 1
 375 312.5 l 1
 375 250 l 1025
62.5 187.5 m 1
 125 187.5 l 1
 125 250 l 1
 62.5 250 l 1
 62.5 187.5 l 1025
375 187.5 m 1
 437.5 187.5 l 1
 437.5 250 l 1
 375 250 l 1
 375 187.5 l 1025
62.5 125 m 1
 125 125 l 1
 125 187.5 l 1
 62.5 187.5 l 1
 62.5 125 l 1025
375 125 m 1
 437.5 125 l 1
 437.5 187.5 l 1
 375 187.5 l 1
 375 125 l 1025
62.5 62.5 m 1
 125 62.5 l 1
 125 125 l 1
 62.5 125 l 1
 62.5 62.5 l 1025
375 62.5 m 1
 437.5 62.5 l 1
 437.5 125 l 1
 375 125 l 1
 375 62.5 l 1025
0 0 m 1
 375 0 l 1
 375 62.5 l 1
 0 62.5 l 1
 0 0 l 1
EndSplineSet
EndChar

StartChar: C
Encoding: 67 67 66
Width: 500
VWidth: 0
Flags: HW
LayerCount: 2
Back
Fore
SplineSet
125 750 m 1
 312.5 750 l 1
 312.5 812.5 l 1
 125 812.5 l 1
 125 750 l 1025
375 750 m 1
 437.5 750 l 1
 437.5 812.5 l 1
 375 812.5 l 1
 375 750 l 1025
62.5 687.5 m 1
 125 687.5 l 1
 125 750 l 1
 62.5 750 l 1
 62.5 687.5 l 1025
312.5 687.5 m 1
 437.5 687.5 l 1
 437.5 750 l 1
 312.5 750 l 1
 312.5 687.5 l 1025
62.5 625 m 1
 125 625 l 1
 125 687.5 l 1
 62.5 687.5 l 1
 62.5 625 l 1025
375 625 m 1
 437.5 625 l 1
 437.5 687.5 l 1
 375 687.5 l 1
 375 625 l 1025
0 562.5 m 1
 62.5 562.5 l 1
 62.5 625 l 1
 0 625 l 1
 0 562.5 l 1025
0 500 m 1
 62.5 500 l 1
 62.5 562.5 l 1
 0 562.5 l 1
 0 500 l 1025
0 437.5 m 1
 62.5 437.5 l 1
 62.5 500 l 1
 0 500 l 1
 0 437.5 l 1025
0 375 m 1
 62.5 375 l 1
 62.5 437.5 l 1
 0 437.5 l 1
 0 375 l 1025
0 312.5 m 1
 62.5 312.5 l 1
 62.5 375 l 1
 0 375 l 1
 0 312.5 l 1025
0 250 m 1
 62.5 250 l 1
 62.5 312.5 l 1
 0 312.5 l 1
 0 250 l 1025
0 187.5 m 1
 62.5 187.5 l 1
 62.5 250 l 1
 0 250 l 1
 0 187.5 l 1025
375 187.5 m 1
 437.5 187.5 l 1
 437.5 250 l 1
 375 250 l 1
 375 187.5 l 1025
62.5 125 m 1
 125 125 l 1
 125 187.5 l 1
 62.5 187.5 l 1
 62.5 125 l 1025
375 125 m 1
 437.5 125 l 1
 437.5 187.5 l 1
 375 187.5 l 1
 375 125 l 1025
62.5 62.5 m 1
 125 62.5 l 1
 125 125 l 1
 62.5 125 l 1
 62.5 62.5 l 1025
375 62.5 m 1
 437.5 62.5 l 1
 437.5 125 l 1
 375 125 l 1
 375 62.5 l 1025
125 0 m 1
 375 0 l 1
 375 62.5 l 1
 125 62.5 l 1
 125 0 l 1
EndSplineSet
EndChar

StartChar: D
Encoding: 68 68 67
Width: 500
VWidth: 0
Flags: HW
LayerCount: 2
Back
Fore
SplineSet
0 750 m 1
 312.5 750 l 1
 312.5 812.5 l 1
 0 812.5 l 1
 0 750 l 1025
62.5 687.5 m 1
 125 687.5 l 1
 125 750 l 1
 62.5 750 l 1
 62.5 687.5 l 1025
312.5 687.5 m 1
 375 687.5 l 1
 375 750 l 1
 312.5 750 l 1
 312.5 687.5 l 1025
62.5 625 m 1
 125 625 l 1
 125 687.5 l 1
 62.5 687.5 l 1
 62.5 625 l 1025
312.5 625 m 1
 375 625 l 1
 375 687.5 l 1
 312.5 687.5 l 1
 312.5 625 l 1025
62.5 562.5 m 1
 125 562.5 l 1
 125 625 l 1
 62.5 625 l 1
 62.5 562.5 l 1025
375 562.5 m 1
 437.5 562.5 l 1
 437.5 625 l 1
 375 625 l 1
 375 562.5 l 1025
62.5 500 m 1
 125 500 l 1
 125 562.5 l 1
 62.5 562.5 l 1
 62.5 500 l 1025
375 500 m 1
 437.5 500 l 1
 437.5 562.5 l 1
 375 562.5 l 1
 375 500 l 1025
62.5 437.5 m 1
 125 437.5 l 1
 125 500 l 1
 62.5 500 l 1
 62.5 437.5 l 1025
375 437.5 m 1
 437.5 437.5 l 1
 437.5 500 l 1
 375 500 l 1
 375 437.5 l 1025
62.5 375 m 1
 125 375 l 1
 125 437.5 l 1
 62.5 437.5 l 1
 62.5 375 l 1025
375 375 m 1
 437.5 375 l 1
 437.5 437.5 l 1
 375 437.5 l 1
 375 375 l 1025
62.5 312.5 m 1
 125 312.5 l 1
 125 375 l 1
 62.5 375 l 1
 62.5 312.5 l 1025
375 312.5 m 1
 437.5 312.5 l 1
 437.5 375 l 1
 375 375 l 1
 375 312.5 l 1025
62.5 250 m 1
 125 250 l 1
 125 312.5 l 1
 62.5 312.5 l 1
 62.5 250 l 1025
375 250 m 1
 437.5 250 l 1
 437.5 312.5 l 1
 375 312.5 l 1
 375 250 l 1025
62.5 187.5 m 1
 125 187.5 l 1
 125 250 l 1
 62.5 250 l 1
 62.5 187.5 l 1025
375 187.5 m 1
 437.5 187.5 l 1
 437.5 250 l 1
 375 250 l 1
 375 187.5 l 1025
62.5 125 m 1
 125 125 l 1
 125 187.5 l 1
 62.5 187.5 l 1
 62.5 125 l 1025
312.5 125 m 1
 375 125 l 1
 375 187.5 l 1
 312.5 187.5 l 1
 312.5 125 l 1025
62.5 62.5 m 1
 125 62.5 l 1
 125 125 l 1
 62.5 125 l 1
 62.5 62.5 l 1025
312.5 62.5 m 1
 375 62.5 l 1
 375 125 l 1
 312.5 125 l 1
 312.5 62.5 l 1025
0 0 m 1
 312.5 0 l 1
 312.5 62.5 l 1
 0 62.5 l 1
 0 0 l 1
EndSplineSet
EndChar

StartChar: E
Encoding: 69 69 68
Width: 500
VWidth: 0
Flags: HW
LayerCount: 2
Back
Fore
SplineSet
0 750 m 1
 437.5 750 l 1
 437.5 812.5 l 1
 0 812.5 l 1
 0 750 l 1025
62.5 687.5 m 1
 125 687.5 l 1
 125 750 l 1
 62.5 750 l 1
 62.5 687.5 l 1025
375 687.5 m 1
 437.5 687.5 l 1
 437.5 750 l 1
 375 750 l 1
 375 687.5 l 1025
62.5 625 m 1
 125 625 l 1
 125 687.5 l 1
 62.5 687.5 l 1
 62.5 625 l 1025
375 625 m 1
 437.5 625 l 1
 437.5 687.5 l 1
 375 687.5 l 1
 375 625 l 1025
62.5 562.5 m 1
 125 562.5 l 1
 125 625 l 1
 62.5 625 l 1
 62.5 562.5 l 1025
62.5 500 m 1
 125 500 l 1
 125 562.5 l 1
 62.5 562.5 l 1
 62.5 500 l 1025
250 500 m 1
 312.5 500 l 1
 312.5 562.5 l 1
 250 562.5 l 1
 250 500 l 1025
62.5 437.5 m 1
 125 437.5 l 1
 125 500 l 1
 62.5 500 l 1
 62.5 437.5 l 1025
250 437.5 m 1
 312.5 437.5 l 1
 312.5 500 l 1
 250 500 l 1
 250 437.5 l 1025
62.5 375 m 1
 312.5 375 l 1
 312.5 437.5 l 1
 62.5 437.5 l 1
 62.5 375 l 1025
62.5 312.5 m 1
 125 312.5 l 1
 125 375 l 1
 62.5 375 l 1
 62.5 312.5 l 1025
250 312.5 m 1
 312.5 312.5 l 1
 312.5 375 l 1
 250 375 l 1
 250 312.5 l 1025
62.5 250 m 1
 125 250 l 1
 125 312.5 l 1
 62.5 312.5 l 1
 62.5 250 l 1025
250 250 m 1
 312.5 250 l 1
 312.5 312.5 l 1
 250 312.5 l 1
 250 250 l 1025
62.5 187.5 m 1
 125 187.5 l 1
 125 250 l 1
 62.5 250 l 1
 62.5 187.5 l 1025
375 187.5 m 1
 437.5 187.5 l 1
 437.5 250 l 1
 375 250 l 1
 375 187.5 l 1025
62.5 125 m 1
 125 125 l 1
 125 187.5 l 1
 62.5 187.5 l 1
 62.5 125 l 1025
375 125 m 1
 437.5 125 l 1
 437.5 187.5 l 1
 375 187.5 l 1
 375 125 l 1025
62.5 62.5 m 1
 125 62.5 l 1
 125 125 l 1
 62.5 125 l 1
 62.5 62.5 l 1025
375 62.5 m 1
 437.5 62.5 l 1
 437.5 125 l 1
 375 125 l 1
 375 62.5 l 1025
0 0 m 1
 437.5 0 l 1
 437.5 62.5 l 1
 0 62.5 l 1
 0 0 l 1
EndSplineSet
EndChar

StartChar: F
Encoding: 70 70 69
Width: 500
VWidth: 0
Flags: HW
LayerCount: 2
Back
Fore
SplineSet
0 750 m 1
 437.5 750 l 1
 437.5 812.5 l 1
 0 812.5 l 1
 0 750 l 1025
62.5 687.5 m 1
 125 687.5 l 1
 125 750 l 1
 62.5 750 l 1
 62.5 687.5 l 1025
375 687.5 m 1
 437.5 687.5 l 1
 437.5 750 l 1
 375 750 l 1
 375 687.5 l 1025
62.5 625 m 1
 125 625 l 1
 125 687.5 l 1
 62.5 687.5 l 1
 62.5 625 l 1025
375 625 m 1
 437.5 625 l 1
 437.5 687.5 l 1
 375 687.5 l 1
 375 625 l 1025
62.5 562.5 m 1
 125 562.5 l 1
 125 625 l 1
 62.5 625 l 1
 62.5 562.5 l 1025
62.5 500 m 1
 125 500 l 1
 125 562.5 l 1
 62.5 562.5 l 1
 62.5 500 l 1025
250 500 m 1
 312.5 500 l 1
 312.5 562.5 l 1
 250 562.5 l 1
 250 500 l 1025
62.5 437.5 m 1
 125 437.5 l 1
 125 500 l 1
 62.5 500 l 1
 62.5 437.5 l 1025
250 437.5 m 1
 312.5 437.5 l 1
 312.5 500 l 1
 250 500 l 1
 250 437.5 l 1025
62.5 375 m 1
 312.5 375 l 1
 312.5 437.5 l 1
 62.5 437.5 l 1
 62.5 375 l 1025
62.5 312.5 m 1
 125 312.5 l 1
 125 375 l 1
 62.5 375 l 1
 62.5 312.5 l 1025
250 312.5 m 1
 312.5 312.5 l 1
 312.5 375 l 1
 250 375 l 1
 250 312.5 l 1025
62.5 250 m 1
 125 250 l 1
 125 312.5 l 1
 62.5 312.5 l 1
 62.5 250 l 1025
250 250 m 1
 312.5 250 l 1
 312.5 312.5 l 1
 250 312.5 l 1
 250 250 l 1025
62.5 187.5 m 1
 125 187.5 l 1
 125 250 l 1
 62.5 250 l 1
 62.5 187.5 l 1025
62.5 125 m 1
 125 125 l 1
 125 187.5 l 1
 62.5 187.5 l 1
 62.5 125 l 1025
62.5 62.5 m 1
 125 62.5 l 1
 125 125 l 1
 62.5 125 l 1
 62.5 62.5 l 1025
0 0 m 1
 250 0 l 1
 250 62.5 l 1
 0 62.5 l 1
 0 0 l 1
EndSplineSet
EndChar

StartChar: G
Encoding: 71 71 70
Width: 500
VWidth: 0
Flags: HW
LayerCount: 2
Back
Fore
SplineSet
187.5 750 m 1
 312.5 750 l 1
 312.5 812.5 l 1
 187.5 812.5 l 1
 187.5 750 l 1025
375 750 m 1
 437.5 750 l 1
 437.5 812.5 l 1
 375 812.5 l 1
 375 750 l 1025
125 687.5 m 1
 187.5 687.5 l 1
 187.5 750 l 1
 125 750 l 1
 125 687.5 l 1025
312.5 687.5 m 1
 437.5 687.5 l 1
 437.5 750 l 1
 312.5 750 l 1
 312.5 687.5 l 1025
62.5 625 m 1
 125 625 l 1
 125 687.5 l 1
 62.5 687.5 l 1
 62.5 625 l 1025
375 625 m 1
 437.5 625 l 1
 437.5 687.5 l 1
 375 687.5 l 1
 375 625 l 1025
62.5 562.5 m 1
 125 562.5 l 1
 125 625 l 1
 62.5 625 l 1
 62.5 562.5 l 1025
0 500 m 1
 62.5 500 l 1
 62.5 562.5 l 1
 0 562.5 l 1
 0 500 l 1025
0 437.5 m 1
 62.5 437.5 l 1
 62.5 500 l 1
 0 500 l 1
 0 437.5 l 1025
0 375 m 1
 62.5 375 l 1
 62.5 437.5 l 1
 0 437.5 l 1
 0 375 l 1025
250 375 m 1
 500 375 l 1
 500 437.5 l 1
 250 437.5 l 1
 250 375 l 1025
0 312.5 m 1
 62.5 312.5 l 1
 62.5 375 l 1
 0 375 l 1
 0 312.5 l 1025
375 312.5 m 1
 437.5 312.5 l 1
 437.5 375 l 1
 375 375 l 1
 375 312.5 l 1025
0 250 m 1
 62.5 250 l 1
 62.5 312.5 l 1
 0 312.5 l 1
 0 250 l 1025
375 250 m 1
 437.5 250 l 1
 437.5 312.5 l 1
 375 312.5 l 1
 375 250 l 1025
0 187.5 m 1
 62.5 187.5 l 1
 62.5 250 l 1
 0 250 l 1
 0 187.5 l 1025
375 187.5 m 1
 437.5 187.5 l 1
 437.5 250 l 1
 375 250 l 1
 375 187.5 l 1025
62.5 125 m 1
 125 125 l 1
 125 187.5 l 1
 62.5 187.5 l 1
 62.5 125 l 1025
375 125 m 1
 437.5 125 l 1
 437.5 187.5 l 1
 375 187.5 l 1
 375 125 l 1025
62.5 62.5 m 1
 187.5 62.5 l 1
 187.5 125 l 1
 62.5 125 l 1
 62.5 62.5 l 1025
312.5 62.5 m 1
 437.5 62.5 l 1
 437.5 125 l 1
 312.5 125 l 1
 312.5 62.5 l 1025
187.5 0 m 1
 312.5 0 l 1
 312.5 62.5 l 1
 187.5 62.5 l 1
 187.5 0 l 1025
375 0 m 1
 437.5 0 l 1
 437.5 62.5 l 1
 375 62.5 l 1
 375 0 l 1
EndSplineSet
EndChar

StartChar: H
Encoding: 72 72 71
Width: 500
VWidth: 0
Flags: HW
LayerCount: 2
Back
Fore
SplineSet
0 750 m 1
 187.5 750 l 1
 187.5 812.5 l 1
 0 812.5 l 1
 0 750 l 1025
312.5 750 m 1
 500 750 l 1
 500 812.5 l 1
 312.5 812.5 l 1
 312.5 750 l 1025
62.5 687.5 m 1
 125 687.5 l 1
 125 750 l 1
 62.5 750 l 1
 62.5 687.5 l 1025
375 687.5 m 1
 437.5 687.5 l 1
 437.5 750 l 1
 375 750 l 1
 375 687.5 l 1025
62.5 625 m 1
 125 625 l 1
 125 687.5 l 1
 62.5 687.5 l 1
 62.5 625 l 1025
375 625 m 1
 437.5 625 l 1
 437.5 687.5 l 1
 375 687.5 l 1
 375 625 l 1025
62.5 562.5 m 1
 125 562.5 l 1
 125 625 l 1
 62.5 625 l 1
 62.5 562.5 l 1025
375 562.5 m 1
 437.5 562.5 l 1
 437.5 625 l 1
 375 625 l 1
 375 562.5 l 1025
62.5 500 m 1
 125 500 l 1
 125 562.5 l 1
 62.5 562.5 l 1
 62.5 500 l 1025
375 500 m 1
 437.5 500 l 1
 437.5 562.5 l 1
 375 562.5 l 1
 375 500 l 1025
62.5 437.5 m 1
 437.5 437.5 l 1
 437.5 500 l 1
 62.5 500 l 1
 62.5 437.5 l 1025
62.5 375 m 1
 125 375 l 1
 125 437.5 l 1
 62.5 437.5 l 1
 62.5 375 l 1025
375 375 m 1
 437.5 375 l 1
 437.5 437.5 l 1
 375 437.5 l 1
 375 375 l 1025
62.5 312.5 m 1
 125 312.5 l 1
 125 375 l 1
 62.5 375 l 1
 62.5 312.5 l 1025
375 312.5 m 1
 437.5 312.5 l 1
 437.5 375 l 1
 375 375 l 1
 375 312.5 l 1025
62.5 250 m 1
 125 250 l 1
 125 312.5 l 1
 62.5 312.5 l 1
 62.5 250 l 1025
375 250 m 1
 437.5 250 l 1
 437.5 312.5 l 1
 375 312.5 l 1
 375 250 l 1025
62.5 187.5 m 1
 125 187.5 l 1
 125 250 l 1
 62.5 250 l 1
 62.5 187.5 l 1025
375 187.5 m 1
 437.5 187.5 l 1
 437.5 250 l 1
 375 250 l 1
 375 187.5 l 1025
62.5 125 m 1
 125 125 l 1
 125 187.5 l 1
 62.5 187.5 l 1
 62.5 125 l 1025
375 125 m 1
 437.5 125 l 1
 437.5 187.5 l 1
 375 187.5 l 1
 375 125 l 1025
62.5 62.5 m 1
 125 62.5 l 1
 125 125 l 1
 62.5 125 l 1
 62.5 62.5 l 1025
375 62.5 m 1
 437.5 62.5 l 1
 437.5 125 l 1
 375 125 l 1
 375 62.5 l 1025
0 0 m 1
 187.5 0 l 1
 187.5 62.5 l 1
 0 62.5 l 1
 0 0 l 1025
312.5 0 m 1
 500 0 l 1
 500 62.5 l 1
 312.5 62.5 l 1
 312.5 0 l 1
EndSplineSet
EndChar

StartChar: I
Encoding: 73 73 72
Width: 500
VWidth: 0
Flags: HW
LayerCount: 2
Back
Fore
SplineSet
0 750 m 1
 437.5 750 l 1
 437.5 812.5 l 1
 0 812.5 l 1
 0 750 l 1025
187.5 687.5 m 1
 250 687.5 l 1
 250 750 l 1
 187.5 750 l 1
 187.5 687.5 l 1025
187.5 625 m 1
 250 625 l 1
 250 687.5 l 1
 187.5 687.5 l 1
 187.5 625 l 1025
187.5 562.5 m 1
 250 562.5 l 1
 250 625 l 1
 187.5 625 l 1
 187.5 562.5 l 1025
187.5 500 m 1
 250 500 l 1
 250 562.5 l 1
 187.5 562.5 l 1
 187.5 500 l 1025
187.5 437.5 m 1
 250 437.5 l 1
 250 500 l 1
 187.5 500 l 1
 187.5 437.5 l 1025
187.5 375 m 1
 250 375 l 1
 250 437.5 l 1
 187.5 437.5 l 1
 187.5 375 l 1025
187.5 312.5 m 1
 250 312.5 l 1
 250 375 l 1
 187.5 375 l 1
 187.5 312.5 l 1025
187.5 250 m 1
 250 250 l 1
 250 312.5 l 1
 187.5 312.5 l 1
 187.5 250 l 1025
187.5 187.5 m 1
 250 187.5 l 1
 250 250 l 1
 187.5 250 l 1
 187.5 187.5 l 1025
187.5 125 m 1
 250 125 l 1
 250 187.5 l 1
 187.5 187.5 l 1
 187.5 125 l 1025
187.5 62.5 m 1
 250 62.5 l 1
 250 125 l 1
 187.5 125 l 1
 187.5 62.5 l 1025
0 0 m 1
 437.5 0 l 1
 437.5 62.5 l 1
 0 62.5 l 1
 0 0 l 1
EndSplineSet
EndChar

StartChar: J
Encoding: 74 74 73
Width: 500
VWidth: 0
Flags: HW
LayerCount: 2
Back
Fore
SplineSet
187.5 750 m 1
 500 750 l 1
 500 812.5 l 1
 187.5 812.5 l 1
 187.5 750 l 1025
375 687.5 m 1
 437.5 687.5 l 1
 437.5 750 l 1
 375 750 l 1
 375 687.5 l 1025
375 625 m 1
 437.5 625 l 1
 437.5 687.5 l 1
 375 687.5 l 1
 375 625 l 1025
375 562.5 m 1
 437.5 562.5 l 1
 437.5 625 l 1
 375 625 l 1
 375 562.5 l 1025
375 500 m 1
 437.5 500 l 1
 437.5 562.5 l 1
 375 562.5 l 1
 375 500 l 1025
375 437.5 m 1
 437.5 437.5 l 1
 437.5 500 l 1
 375 500 l 1
 375 437.5 l 1025
375 375 m 1
 437.5 375 l 1
 437.5 437.5 l 1
 375 437.5 l 1
 375 375 l 1025
375 312.5 m 1
 437.5 312.5 l 1
 437.5 375 l 1
 375 375 l 1
 375 312.5 l 1025
0 250 m 1
 62.5 250 l 1
 62.5 312.5 l 1
 0 312.5 l 1
 0 250 l 1025
375 250 m 1
 437.5 250 l 1
 437.5 312.5 l 1
 375 312.5 l 1
 375 250 l 1025
0 187.5 m 1
 62.5 187.5 l 1
 62.5 250 l 1
 0 250 l 1
 0 187.5 l 1025
375 187.5 m 1
 437.5 187.5 l 1
 437.5 250 l 1
 375 250 l 1
 375 187.5 l 1025
0 125 m 1
 62.5 125 l 1
 62.5 187.5 l 1
 0 187.5 l 1
 0 125 l 1025
375 125 m 1
 437.5 125 l 1
 437.5 187.5 l 1
 375 187.5 l 1
 375 125 l 1025
62.5 62.5 m 1
 125 62.5 l 1
 125 125 l 1
 62.5 125 l 1
 62.5 62.5 l 1025
312.5 62.5 m 1
 375 62.5 l 1
 375 125 l 1
 312.5 125 l 1
 312.5 62.5 l 1025
125 0 m 1
 312.5 0 l 1
 312.5 62.5 l 1
 125 62.5 l 1
 125 0 l 1
EndSplineSet
EndChar

StartChar: K
Encoding: 75 75 74
Width: 500
VWidth: 0
Flags: HW
LayerCount: 2
Back
Fore
SplineSet
0 750 m 1
 187.5 750 l 1
 187.5 812.5 l 1
 0 812.5 l 1
 0 750 l 1025
312.5 750 m 1
 437.5 750 l 1
 437.5 812.5 l 1
 312.5 812.5 l 1
 312.5 750 l 1025
62.5 687.5 m 1
 125 687.5 l 1
 125 750 l 1
 62.5 750 l 1
 62.5 687.5 l 1025
312.5 687.5 m 1
 375 687.5 l 1
 375 750 l 1
 312.5 750 l 1
 312.5 687.5 l 1025
62.5 625 m 1
 125 625 l 1
 125 687.5 l 1
 62.5 687.5 l 1
 62.5 625 l 1025
312.5 625 m 1
 375 625 l 1
 375 687.5 l 1
 312.5 687.5 l 1
 312.5 625 l 1025
62.5 562.5 m 1
 125 562.5 l 1
 125 625 l 1
 62.5 625 l 1
 62.5 562.5 l 1025
250 562.5 m 1
 312.5 562.5 l 1
 312.5 625 l 1
 250 625 l 1
 250 562.5 l 1025
62.5 500 m 1
 125 500 l 1
 125 562.5 l 1
 62.5 562.5 l 1
 62.5 500 l 1025
250 500 m 1
 312.5 500 l 1
 312.5 562.5 l 1
 250 562.5 l 1
 250 500 l 1025
62.5 437.5 m 1
 250 437.5 l 1
 250 500 l 1
 62.5 500 l 1
 62.5 437.5 l 1025
62.5 375 m 1
 125 375 l 1
 125 437.5 l 1
 62.5 437.5 l 1
 62.5 375 l 1025
187.5 375 m 1
 250 375 l 1
 250 437.5 l 1
 187.5 437.5 l 1
 187.5 375 l 1025
62.5 312.5 m 1
 125 312.5 l 1
 125 375 l 1
 62.5 375 l 1
 62.5 312.5 l 1025
250 312.5 m 1
 312.5 312.5 l 1
 312.5 375 l 1
 250 375 l 1
 250 312.5 l 1025
62.5 250 m 1
 125 250 l 1
 125 312.5 l 1
 62.5 312.5 l 1
 62.5 250 l 1025
250 250 m 1
 312.5 250 l 1
 312.5 312.5 l 1
 250 312.5 l 1
 250 250 l 1025
62.5 187.5 m 1
 125 187.5 l 1
 125 250 l 1
 62.5 250 l 1
 62.5 187.5 l 1025
312.5 187.5 m 1
 375 187.5 l 1
 375 250 l 1
 312.5 250 l 1
 312.5 187.5 l 1025
62.5 125 m 1
 125 125 l 1
 125 187.5 l 1
 62.5 187.5 l 1
 62.5 125 l 1025
312.5 125 m 1
 375 125 l 1
 375 187.5 l 1
 312.5 187.5 l 1
 312.5 125 l 1025
62.5 62.5 m 1
 125 62.5 l 1
 125 125 l 1
 62.5 125 l 1
 62.5 62.5 l 1025
375 62.5 m 1
 437.5 62.5 l 1
 437.5 125 l 1
 375 125 l 1
 375 62.5 l 1025
0 0 m 1
 187.5 0 l 1
 187.5 62.5 l 1
 0 62.5 l 1
 0 0 l 1025
375 0 m 1
 500 0 l 1
 500 62.5 l 1
 375 62.5 l 1
 375 0 l 1
EndSplineSet
EndChar

StartChar: L
Encoding: 76 76 75
Width: 500
VWidth: 0
Flags: HW
LayerCount: 2
Back
Fore
SplineSet
0 750 m 1
 250 750 l 1
 250 812.5 l 1
 0 812.5 l 1
 0 750 l 1025
62.5 687.5 m 1
 125 687.5 l 1
 125 750 l 1
 62.5 750 l 1
 62.5 687.5 l 1025
62.5 625 m 1
 125 625 l 1
 125 687.5 l 1
 62.5 687.5 l 1
 62.5 625 l 1025
62.5 562.5 m 1
 125 562.5 l 1
 125 625 l 1
 62.5 625 l 1
 62.5 562.5 l 1025
62.5 500 m 1
 125 500 l 1
 125 562.5 l 1
 62.5 562.5 l 1
 62.5 500 l 1025
62.5 437.5 m 1
 125 437.5 l 1
 125 500 l 1
 62.5 500 l 1
 62.5 437.5 l 1025
62.5 375 m 1
 125 375 l 1
 125 437.5 l 1
 62.5 437.5 l 1
 62.5 375 l 1025
62.5 312.5 m 1
 125 312.5 l 1
 125 375 l 1
 62.5 375 l 1
 62.5 312.5 l 1025
62.5 250 m 1
 125 250 l 1
 125 312.5 l 1
 62.5 312.5 l 1
 62.5 250 l 1025
62.5 187.5 m 1
 125 187.5 l 1
 125 250 l 1
 62.5 250 l 1
 62.5 187.5 l 1025
375 187.5 m 1
 437.5 187.5 l 1
 437.5 250 l 1
 375 250 l 1
 375 187.5 l 1025
62.5 125 m 1
 125 125 l 1
 125 187.5 l 1
 62.5 187.5 l 1
 62.5 125 l 1025
375 125 m 1
 437.5 125 l 1
 437.5 187.5 l 1
 375 187.5 l 1
 375 125 l 1025
62.5 62.5 m 1
 125 62.5 l 1
 125 125 l 1
 62.5 125 l 1
 62.5 62.5 l 1025
375 62.5 m 1
 437.5 62.5 l 1
 437.5 125 l 1
 375 125 l 1
 375 62.5 l 1025
0 0 m 1
 437.5 0 l 1
 437.5 62.5 l 1
 0 62.5 l 1
 0 0 l 1
EndSplineSet
EndChar

StartChar: M
Encoding: 77 77 76
Width: 500
VWidth: 0
Flags: HW
LayerCount: 2
Back
Fore
SplineSet
0 750 m 1
 62.5 750 l 1
 62.5 812.5 l 1
 0 812.5 l 1
 0 750 l 1025
375 750 m 1
 437.5 750 l 1
 437.5 812.5 l 1
 375 812.5 l 1
 375 750 l 1025
0 687.5 m 1
 125 687.5 l 1
 125 750 l 1
 0 750 l 1
 0 687.5 l 1025
312.5 687.5 m 1
 437.5 687.5 l 1
 437.5 750 l 1
 312.5 750 l 1
 312.5 687.5 l 1025
0 625 m 1
 62.5 625 l 1
 62.5 687.5 l 1
 0 687.5 l 1
 0 625 l 1025
125 625 m 1
 187.5 625 l 1
 187.5 687.5 l 1
 125 687.5 l 1
 125 625 l 1025
250 625 m 1
 312.5 625 l 1
 312.5 687.5 l 1
 250 687.5 l 1
 250 625 l 1025
375 625 m 1
 437.5 625 l 1
 437.5 687.5 l 1
 375 687.5 l 1
 375 625 l 1025
0 562.5 m 1
 62.5 562.5 l 1
 62.5 625 l 1
 0 625 l 1
 0 562.5 l 1025
125 562.5 m 1
 187.5 562.5 l 1
 187.5 625 l 1
 125 625 l 1
 125 562.5 l 1025
250 562.5 m 1
 312.5 562.5 l 1
 312.5 625 l 1
 250 625 l 1
 250 562.5 l 1025
375 562.5 m 1
 437.5 562.5 l 1
 437.5 625 l 1
 375 625 l 1
 375 562.5 l 1025
0 500 m 1
 62.5 500 l 1
 62.5 562.5 l 1
 0 562.5 l 1
 0 500 l 1025
125 500 m 1
 187.5 500 l 1
 187.5 562.5 l 1
 125 562.5 l 1
 125 500 l 1025
250 500 m 1
 312.5 500 l 1
 312.5 562.5 l 1
 250 562.5 l 1
 250 500 l 1025
375 500 m 1
 437.5 500 l 1
 437.5 562.5 l 1
 375 562.5 l 1
 375 500 l 1025
0 437.5 m 1
 62.5 437.5 l 1
 62.5 500 l 1
 0 500 l 1
 0 437.5 l 1025
187.5 437.5 m 1
 250 437.5 l 1
 250 500 l 1
 187.5 500 l 1
 187.5 437.5 l 1025
375 437.5 m 1
 437.5 437.5 l 1
 437.5 500 l 1
 375 500 l 1
 375 437.5 l 1025
0 375 m 1
 62.5 375 l 1
 62.5 437.5 l 1
 0 437.5 l 1
 0 375 l 1025
187.5 375 m 1
 250 375 l 1
 250 437.5 l 1
 187.5 437.5 l 1
 187.5 375 l 1025
375 375 m 1
 437.5 375 l 1
 437.5 437.5 l 1
 375 437.5 l 1
 375 375 l 1025
0 312.5 m 1
 62.5 312.5 l 1
 62.5 375 l 1
 0 375 l 1
 0 312.5 l 1025
187.5 312.5 m 1
 250 312.5 l 1
 250 375 l 1
 187.5 375 l 1
 187.5 312.5 l 1025
375 312.5 m 1
 437.5 312.5 l 1
 437.5 375 l 1
 375 375 l 1
 375 312.5 l 1025
0 250 m 1
 62.5 250 l 1
 62.5 312.5 l 1
 0 312.5 l 1
 0 250 l 1025
375 250 m 1
 437.5 250 l 1
 437.5 312.5 l 1
 375 312.5 l 1
 375 250 l 1025
0 187.5 m 1
 62.5 187.5 l 1
 62.5 250 l 1
 0 250 l 1
 0 187.5 l 1025
375 187.5 m 1
 437.5 187.5 l 1
 437.5 250 l 1
 375 250 l 1
 375 187.5 l 1025
0 125 m 1
 62.5 125 l 1
 62.5 187.5 l 1
 0 187.5 l 1
 0 125 l 1025
375 125 m 1
 437.5 125 l 1
 437.5 187.5 l 1
 375 187.5 l 1
 375 125 l 1025
0 62.5 m 1
 62.5 62.5 l 1
 62.5 125 l 1
 0 125 l 1
 0 62.5 l 1025
375 62.5 m 1
 437.5 62.5 l 1
 437.5 125 l 1
 375 125 l 1
 375 62.5 l 1025
0 0 m 1
 125 0 l 1
 125 62.5 l 1
 0 62.5 l 1
 0 0 l 1025
312.5 0 m 1
 437.5 0 l 1
 437.5 62.5 l 1
 312.5 62.5 l 1
 312.5 0 l 1
EndSplineSet
EndChar

StartChar: N
Encoding: 78 78 77
Width: 500
VWidth: 0
Flags: HW
LayerCount: 2
Back
Fore
SplineSet
0 750 m 1
 62.5 750 l 1
 62.5 812.5 l 1
 0 812.5 l 1
 0 750 l 1025
312.5 750 m 1
 500 750 l 1
 500 812.5 l 1
 312.5 812.5 l 1
 312.5 750 l 1025
0 687.5 m 1
 125 687.5 l 1
 125 750 l 1
 0 750 l 1
 0 687.5 l 1025
375 687.5 m 1
 437.5 687.5 l 1
 437.5 750 l 1
 375 750 l 1
 375 687.5 l 1025
0 625 m 1
 62.5 625 l 1
 62.5 687.5 l 1
 0 687.5 l 1
 0 625 l 1025
125 625 m 1
 187.5 625 l 1
 187.5 687.5 l 1
 125 687.5 l 1
 125 625 l 1025
375 625 m 1
 437.5 625 l 1
 437.5 687.5 l 1
 375 687.5 l 1
 375 625 l 1025
0 562.5 m 1
 62.5 562.5 l 1
 62.5 625 l 1
 0 625 l 1
 0 562.5 l 1025
125 562.5 m 1
 187.5 562.5 l 1
 187.5 625 l 1
 125 625 l 1
 125 562.5 l 1025
375 562.5 m 1
 437.5 562.5 l 1
 437.5 625 l 1
 375 625 l 1
 375 562.5 l 1025
0 500 m 1
 62.5 500 l 1
 62.5 562.5 l 1
 0 562.5 l 1
 0 500 l 1025
125 500 m 1
 187.5 500 l 1
 187.5 562.5 l 1
 125 562.5 l 1
 125 500 l 1025
375 500 m 1
 437.5 500 l 1
 437.5 562.5 l 1
 375 562.5 l 1
 375 500 l 1025
0 437.5 m 1
 62.5 437.5 l 1
 62.5 500 l 1
 0 500 l 1
 0 437.5 l 1025
187.5 437.5 m 1
 250 437.5 l 1
 250 500 l 1
 187.5 500 l 1
 187.5 437.5 l 1025
375 437.5 m 1
 437.5 437.5 l 1
 437.5 500 l 1
 375 500 l 1
 375 437.5 l 1025
0 375 m 1
 62.5 375 l 1
 62.5 437.5 l 1
 0 437.5 l 1
 0 375 l 1025
187.5 375 m 1
 250 375 l 1
 250 437.5 l 1
 187.5 437.5 l 1
 187.5 375 l 1025
375 375 m 1
 437.5 375 l 1
 437.5 437.5 l 1
 375 437.5 l 1
 375 375 l 1025
0 312.5 m 1
 62.5 312.5 l 1
 62.5 375 l 1
 0 375 l 1
 0 312.5 l 1025
187.5 312.5 m 1
 250 312.5 l 1
 250 375 l 1
 187.5 375 l 1
 187.5 312.5 l 1025
375 312.5 m 1
 437.5 312.5 l 1
 437.5 375 l 1
 375 375 l 1
 375 312.5 l 1025
0 250 m 1
 62.5 250 l 1
 62.5 312.5 l 1
 0 312.5 l 1
 0 250 l 1025
250 250 m 1
 312.5 250 l 1
 312.5 312.5 l 1
 250 312.5 l 1
 250 250 l 1025
375 250 m 1
 437.5 250 l 1
 437.5 312.5 l 1
 375 312.5 l 1
 375 250 l 1025
0 187.5 m 1
 62.5 187.5 l 1
 62.5 250 l 1
 0 250 l 1
 0 187.5 l 1025
250 187.5 m 1
 312.5 187.5 l 1
 312.5 250 l 1
 250 250 l 1
 250 187.5 l 1025
375 187.5 m 1
 437.5 187.5 l 1
 437.5 250 l 1
 375 250 l 1
 375 187.5 l 1025
0 125 m 1
 62.5 125 l 1
 62.5 187.5 l 1
 0 187.5 l 1
 0 125 l 1025
250 125 m 1
 312.5 125 l 1
 312.5 187.5 l 1
 250 187.5 l 1
 250 125 l 1025
375 125 m 1
 437.5 125 l 1
 437.5 187.5 l 1
 375 187.5 l 1
 375 125 l 1025
0 62.5 m 1
 62.5 62.5 l 1
 62.5 125 l 1
 0 125 l 1
 0 62.5 l 1025
312.5 62.5 m 1
 437.5 62.5 l 1
 437.5 125 l 1
 312.5 125 l 1
 312.5 62.5 l 1025
0 0 m 1
 125 0 l 1
 125 62.5 l 1
 0 62.5 l 1
 0 0 l 1025
375 0 m 1
 437.5 0 l 1
 437.5 62.5 l 1
 375 62.5 l 1
 375 0 l 1
EndSplineSet
EndChar

StartChar: O
Encoding: 79 79 78
Width: 500
VWidth: 0
Flags: HW
LayerCount: 2
Back
Fore
SplineSet
125 750 m 1
 312.5 750 l 1
 312.5 812.5 l 1
 125 812.5 l 1
 125 750 l 1025
62.5 687.5 m 1
 125 687.5 l 1
 125 750 l 1
 62.5 750 l 1
 62.5 687.5 l 1025
312.5 687.5 m 1
 375 687.5 l 1
 375 750 l 1
 312.5 750 l 1
 312.5 687.5 l 1025
0 625 m 1
 62.5 625 l 1
 62.5 687.5 l 1
 0 687.5 l 1
 0 625 l 1025
375 625 m 1
 437.5 625 l 1
 437.5 687.5 l 1
 375 687.5 l 1
 375 625 l 1025
0 562.5 m 1
 62.5 562.5 l 1
 62.5 625 l 1
 0 625 l 1
 0 562.5 l 1025
375 562.5 m 1
 437.5 562.5 l 1
 437.5 625 l 1
 375 625 l 1
 375 562.5 l 1025
0 500 m 1
 62.5 500 l 1
 62.5 562.5 l 1
 0 562.5 l 1
 0 500 l 1025
375 500 m 1
 437.5 500 l 1
 437.5 562.5 l 1
 375 562.5 l 1
 375 500 l 1025
0 437.5 m 1
 62.5 437.5 l 1
 62.5 500 l 1
 0 500 l 1
 0 437.5 l 1025
375 437.5 m 1
 437.5 437.5 l 1
 437.5 500 l 1
 375 500 l 1
 375 437.5 l 1025
0 375 m 1
 62.5 375 l 1
 62.5 437.5 l 1
 0 437.5 l 1
 0 375 l 1025
375 375 m 1
 437.5 375 l 1
 437.5 437.5 l 1
 375 437.5 l 1
 375 375 l 1025
0 312.5 m 1
 62.5 312.5 l 1
 62.5 375 l 1
 0 375 l 1
 0 312.5 l 1025
375 312.5 m 1
 437.5 312.5 l 1
 437.5 375 l 1
 375 375 l 1
 375 312.5 l 1025
0 250 m 1
 62.5 250 l 1
 62.5 312.5 l 1
 0 312.5 l 1
 0 250 l 1025
375 250 m 1
 437.5 250 l 1
 437.5 312.5 l 1
 375 312.5 l 1
 375 250 l 1025
0 187.5 m 1
 62.5 187.5 l 1
 62.5 250 l 1
 0 250 l 1
 0 187.5 l 1025
375 187.5 m 1
 437.5 187.5 l 1
 437.5 250 l 1
 375 250 l 1
 375 187.5 l 1025
0 125 m 1
 62.5 125 l 1
 62.5 187.5 l 1
 0 187.5 l 1
 0 125 l 1025
375 125 m 1
 437.5 125 l 1
 437.5 187.5 l 1
 375 187.5 l 1
 375 125 l 1025
62.5 62.5 m 1
 125 62.5 l 1
 125 125 l 1
 62.5 125 l 1
 62.5 62.5 l 1025
312.5 62.5 m 1
 375 62.5 l 1
 375 125 l 1
 312.5 125 l 1
 312.5 62.5 l 1025
125 0 m 1
 312.5 0 l 1
 312.5 62.5 l 1
 125 62.5 l 1
 125 0 l 1
EndSplineSet
EndChar

StartChar: P
Encoding: 80 80 79
Width: 500
VWidth: 0
Flags: HW
LayerCount: 2
Back
Fore
SplineSet
0 750 m 1
 312.5 750 l 1
 312.5 812.5 l 1
 0 812.5 l 1
 0 750 l 1025
62.5 687.5 m 1
 125 687.5 l 1
 125 750 l 1
 62.5 750 l 1
 62.5 687.5 l 1025
312.5 687.5 m 1
 375 687.5 l 1
 375 750 l 1
 312.5 750 l 1
 312.5 687.5 l 1025
62.5 625 m 1
 125 625 l 1
 125 687.5 l 1
 62.5 687.5 l 1
 62.5 625 l 1025
375 625 m 1
 437.5 625 l 1
 437.5 687.5 l 1
 375 687.5 l 1
 375 625 l 1025
62.5 562.5 m 1
 125 562.5 l 1
 125 625 l 1
 62.5 625 l 1
 62.5 562.5 l 1025
375 562.5 m 1
 437.5 562.5 l 1
 437.5 625 l 1
 375 625 l 1
 375 562.5 l 1025
62.5 500 m 1
 125 500 l 1
 125 562.5 l 1
 62.5 562.5 l 1
 62.5 500 l 1025
375 500 m 1
 437.5 500 l 1
 437.5 562.5 l 1
 375 562.5 l 1
 375 500 l 1025
62.5 437.5 m 1
 125 437.5 l 1
 125 500 l 1
 62.5 500 l 1
 62.5 437.5 l 1025
375 437.5 m 1
 437.5 437.5 l 1
 437.5 500 l 1
 375 500 l 1
 375 437.5 l 1025
62.5 375 m 1
 125 375 l 1
 125 437.5 l 1
 62.5 437.5 l 1
 62.5 375 l 1025
312.5 375 m 1
 375 375 l 1
 375 437.5 l 1
 312.5 437.5 l 1
 312.5 375 l 1025
62.5 312.5 m 1
 312.5 312.5 l 1
 312.5 375 l 1
 62.5 375 l 1
 62.5 312.5 l 1025
62.5 250 m 1
 125 250 l 1
 125 312.5 l 1
 62.5 312.5 l 1
 62.5 250 l 1025
62.5 187.5 m 1
 125 187.5 l 1
 125 250 l 1
 62.5 250 l 1
 62.5 187.5 l 1025
62.5 125 m 1
 125 125 l 1
 125 187.5 l 1
 62.5 187.5 l 1
 62.5 125 l 1025
62.5 62.5 m 1
 125 62.5 l 1
 125 125 l 1
 62.5 125 l 1
 62.5 62.5 l 1025
0 0 m 1
 250 0 l 1
 250 62.5 l 1
 0 62.5 l 1
 0 0 l 1
EndSplineSet
EndChar

StartChar: Q
Encoding: 81 81 80
Width: 500
VWidth: 0
Flags: HW
LayerCount: 2
Back
Fore
SplineSet
125 750 m 1
 312.5 750 l 1
 312.5 812.5 l 1
 125 812.5 l 1
 125 750 l 1025
62.5 687.5 m 1
 125 687.5 l 1
 125 750 l 1
 62.5 750 l 1
 62.5 687.5 l 1025
312.5 687.5 m 1
 375 687.5 l 1
 375 750 l 1
 312.5 750 l 1
 312.5 687.5 l 1025
62.5 625 m 1
 125 625 l 1
 125 687.5 l 1
 62.5 687.5 l 1
 62.5 625 l 1025
312.5 625 m 1
 375 625 l 1
 375 687.5 l 1
 312.5 687.5 l 1
 312.5 625 l 1025
0 562.5 m 1
 62.5 562.5 l 1
 62.5 625 l 1
 0 625 l 1
 0 562.5 l 1025
375 562.5 m 1
 437.5 562.5 l 1
 437.5 625 l 1
 375 625 l 1
 375 562.5 l 1025
0 500 m 1
 62.5 500 l 1
 62.5 562.5 l 1
 0 562.5 l 1
 0 500 l 1025
375 500 m 1
 437.5 500 l 1
 437.5 562.5 l 1
 375 562.5 l 1
 375 500 l 1025
0 437.5 m 1
 62.5 437.5 l 1
 62.5 500 l 1
 0 500 l 1
 0 437.5 l 1025
375 437.5 m 1
 437.5 437.5 l 1
 437.5 500 l 1
 375 500 l 1
 375 437.5 l 1025
0 375 m 1
 62.5 375 l 1
 62.5 437.5 l 1
 0 437.5 l 1
 0 375 l 1025
375 375 m 1
 437.5 375 l 1
 437.5 437.5 l 1
 375 437.5 l 1
 375 375 l 1025
0 312.5 m 1
 62.5 312.5 l 1
 62.5 375 l 1
 0 375 l 1
 0 312.5 l 1025
375 312.5 m 1
 437.5 312.5 l 1
 437.5 375 l 1
 375 375 l 1
 375 312.5 l 1025
0 250 m 1
 62.5 250 l 1
 62.5 312.5 l 1
 0 312.5 l 1
 0 250 l 1025
375 250 m 1
 437.5 250 l 1
 437.5 312.5 l 1
 375 312.5 l 1
 375 250 l 1025
0 187.5 m 1
 62.5 187.5 l 1
 62.5 250 l 1
 0 250 l 1
 0 187.5 l 1025
125 187.5 m 1
 312.5 187.5 l 1
 312.5 250 l 1
 125 250 l 1
 125 187.5 l 1025
375 187.5 m 1
 437.5 187.5 l 1
 437.5 250 l 1
 375 250 l 1
 375 187.5 l 1025
62.5 125 m 1
 125 125 l 1
 125 187.5 l 1
 62.5 187.5 l 1
 62.5 125 l 1025
312.5 125 m 1
 375 125 l 1
 375 187.5 l 1
 312.5 187.5 l 1
 312.5 125 l 1025
62.5 62.5 m 1
 125 62.5 l 1
 125 125 l 1
 62.5 125 l 1
 62.5 62.5 l 1025
312.5 62.5 m 1
 375 62.5 l 1
 375 125 l 1
 312.5 125 l 1
 312.5 62.5 l 1025
125 0 m 1
 312.5 0 l 1
 312.5 62.5 l 1
 125 62.5 l 1
 125 0 l 1025
250 -62.5 m 1
 312.5 -62.5 l 1
 312.5 0 l 1
 250 0 l 1
 250 -62.5 l 1025
312.5 -125 m 1
 437.5 -125 l 1
 437.5 -62.5 l 1
 312.5 -62.5 l 1
 312.5 -125 l 1
EndSplineSet
EndChar

StartChar: R
Encoding: 82 82 81
Width: 500
VWidth: 0
Flags: HW
LayerCount: 2
Back
Fore
SplineSet
0 750 m 1
 312.5 750 l 1
 312.5 812.5 l 1
 0 812.5 l 1
 0 750 l 1025
62.5 687.5 m 1
 125 687.5 l 1
 125 750 l 1
 62.5 750 l 1
 62.5 687.5 l 1025
312.5 687.5 m 1
 375 687.5 l 1
 375 750 l 1
 312.5 750 l 1
 312.5 687.5 l 1025
62.5 625 m 1
 125 625 l 1
 125 687.5 l 1
 62.5 687.5 l 1
 62.5 625 l 1025
375 625 m 1
 437.5 625 l 1
 437.5 687.5 l 1
 375 687.5 l 1
 375 625 l 1025
62.5 562.5 m 1
 125 562.5 l 1
 125 625 l 1
 62.5 625 l 1
 62.5 562.5 l 1025
375 562.5 m 1
 437.5 562.5 l 1
 437.5 625 l 1
 375 625 l 1
 375 562.5 l 1025
62.5 500 m 1
 125 500 l 1
 125 562.5 l 1
 62.5 562.5 l 1
 62.5 500 l 1025
375 500 m 1
 437.5 500 l 1
 437.5 562.5 l 1
 375 562.5 l 1
 375 500 l 1025
62.5 437.5 m 1
 125 437.5 l 1
 125 500 l 1
 62.5 500 l 1
 62.5 437.5 l 1025
312.5 437.5 m 1
 375 437.5 l 1
 375 500 l 1
 312.5 500 l 1
 312.5 437.5 l 1025
62.5 375 m 1
 312.5 375 l 1
 312.5 437.5 l 1
 62.5 437.5 l 1
 62.5 375 l 1025
62.5 312.5 m 1
 125 312.5 l 1
 125 375 l 1
 62.5 375 l 1
 62.5 312.5 l 1025
250 312.5 m 1
 312.5 312.5 l 1
 312.5 375 l 1
 250 375 l 1
 250 312.5 l 1025
62.5 250 m 1
 125 250 l 1
 125 312.5 l 1
 62.5 312.5 l 1
 62.5 250 l 1025
312.5 250 m 1
 375 250 l 1
 375 312.5 l 1
 312.5 312.5 l 1
 312.5 250 l 1025
62.5 187.5 m 1
 125 187.5 l 1
 125 250 l 1
 62.5 250 l 1
 62.5 187.5 l 1025
312.5 187.5 m 1
 375 187.5 l 1
 375 250 l 1
 312.5 250 l 1
 312.5 187.5 l 1025
62.5 125 m 1
 125 125 l 1
 125 187.5 l 1
 62.5 187.5 l 1
 62.5 125 l 1025
312.5 125 m 1
 375 125 l 1
 375 187.5 l 1
 312.5 187.5 l 1
 312.5 125 l 1025
62.5 62.5 m 1
 125 62.5 l 1
 125 125 l 1
 62.5 125 l 1
 62.5 62.5 l 1025
375 62.5 m 1
 437.5 62.5 l 1
 437.5 125 l 1
 375 125 l 1
 375 62.5 l 1025
0 0 m 1
 187.5 0 l 1
 187.5 62.5 l 1
 0 62.5 l 1
 0 0 l 1025
375 0 m 1
 500 0 l 1
 500 62.5 l 1
 375 62.5 l 1
 375 0 l 1
EndSplineSet
EndChar

StartChar: S
Encoding: 83 83 82
Width: 500
VWidth: 0
Flags: HW
LayerCount: 2
Back
Fore
SplineSet
125 750 m 1
 250 750 l 1
 250 812.5 l 1
 125 812.5 l 1
 125 750 l 1025
312.5 750 m 1
 375 750 l 1
 375 812.5 l 1
 312.5 812.5 l 1
 312.5 750 l 1025
62.5 687.5 m 1
 125 687.5 l 1
 125 750 l 1
 62.5 750 l 1
 62.5 687.5 l 1025
250 687.5 m 1
 375 687.5 l 1
 375 750 l 1
 250 750 l 1
 250 687.5 l 1025
0 625 m 1
 62.5 625 l 1
 62.5 687.5 l 1
 0 687.5 l 1
 0 625 l 1025
312.5 625 m 1
 375 625 l 1
 375 687.5 l 1
 312.5 687.5 l 1
 312.5 625 l 1025
0 562.5 m 1
 62.5 562.5 l 1
 62.5 625 l 1
 0 625 l 1
 0 562.5 l 1025
0 500 m 1
 62.5 500 l 1
 62.5 562.5 l 1
 0 562.5 l 1
 0 500 l 1025
62.5 437.5 m 1
 187.5 437.5 l 1
 187.5 500 l 1
 62.5 500 l 1
 62.5 437.5 l 1025
187.5 375 m 1
 312.5 375 l 1
 312.5 437.5 l 1
 187.5 437.5 l 1
 187.5 375 l 1025
312.5 312.5 m 1
 375 312.5 l 1
 375 375 l 1
 312.5 375 l 1
 312.5 312.5 l 1025
0 250 m 1
 62.5 250 l 1
 62.5 312.5 l 1
 0 312.5 l 1
 0 250 l 1025
375 250 m 1
 437.5 250 l 1
 437.5 312.5 l 1
 375 312.5 l 1
 375 250 l 1025
0 187.5 m 1
 62.5 187.5 l 1
 62.5 250 l 1
 0 250 l 1
 0 187.5 l 1025
375 187.5 m 1
 437.5 187.5 l 1
 437.5 250 l 1
 375 250 l 1
 375 187.5 l 1025
0 125 m 1
 62.5 125 l 1
 62.5 187.5 l 1
 0 187.5 l 1
 0 125 l 1025
375 125 m 1
 437.5 125 l 1
 437.5 187.5 l 1
 375 187.5 l 1
 375 125 l 1025
0 62.5 m 1
 125 62.5 l 1
 125 125 l 1
 0 125 l 1
 0 62.5 l 1025
312.5 62.5 m 1
 375 62.5 l 1
 375 125 l 1
 312.5 125 l 1
 312.5 62.5 l 1025
0 0 m 1
 62.5 0 l 1
 62.5 62.5 l 1
 0 62.5 l 1
 0 0 l 1025
125 0 m 1
 312.5 0 l 1
 312.5 62.5 l 1
 125 62.5 l 1
 125 0 l 1
EndSplineSet
EndChar

StartChar: T
Encoding: 84 84 83
Width: 500
VWidth: 0
Flags: HW
LayerCount: 2
Back
Fore
SplineSet
0 750 m 1
 437.5 750 l 1
 437.5 812.5 l 1
 0 812.5 l 1
 0 750 l 1025
0 687.5 m 1
 62.5 687.5 l 1
 62.5 750 l 1
 0 750 l 1
 0 687.5 l 1025
187.5 687.5 m 1
 250 687.5 l 1
 250 750 l 1
 187.5 750 l 1
 187.5 687.5 l 1025
375 687.5 m 1
 437.5 687.5 l 1
 437.5 750 l 1
 375 750 l 1
 375 687.5 l 1025
0 625 m 1
 62.5 625 l 1
 62.5 687.5 l 1
 0 687.5 l 1
 0 625 l 1025
187.5 625 m 1
 250 625 l 1
 250 687.5 l 1
 187.5 687.5 l 1
 187.5 625 l 1025
375 625 m 1
 437.5 625 l 1
 437.5 687.5 l 1
 375 687.5 l 1
 375 625 l 1025
187.5 562.5 m 1
 250 562.5 l 1
 250 625 l 1
 187.5 625 l 1
 187.5 562.5 l 1025
187.5 500 m 1
 250 500 l 1
 250 562.5 l 1
 187.5 562.5 l 1
 187.5 500 l 1025
187.5 437.5 m 1
 250 437.5 l 1
 250 500 l 1
 187.5 500 l 1
 187.5 437.5 l 1025
187.5 375 m 1
 250 375 l 1
 250 437.5 l 1
 187.5 437.5 l 1
 187.5 375 l 1025
187.5 312.5 m 1
 250 312.5 l 1
 250 375 l 1
 187.5 375 l 1
 187.5 312.5 l 1025
187.5 250 m 1
 250 250 l 1
 250 312.5 l 1
 187.5 312.5 l 1
 187.5 250 l 1025
187.5 187.5 m 1
 250 187.5 l 1
 250 250 l 1
 187.5 250 l 1
 187.5 187.5 l 1025
187.5 125 m 1
 250 125 l 1
 250 187.5 l 1
 187.5 187.5 l 1
 187.5 125 l 1025
187.5 62.5 m 1
 250 62.5 l 1
 250 125 l 1
 187.5 125 l 1
 187.5 62.5 l 1025
62.5 0 m 1
 375 0 l 1
 375 62.5 l 1
 62.5 62.5 l 1
 62.5 0 l 1
EndSplineSet
EndChar

StartChar: U
Encoding: 85 85 84
Width: 500
VWidth: 0
Flags: HW
LayerCount: 2
Back
Fore
SplineSet
0 750 m 1
 187.5 750 l 1
 187.5 812.5 l 1
 0 812.5 l 1
 0 750 l 1025
312.5 750 m 1
 500 750 l 1
 500 812.5 l 1
 312.5 812.5 l 1
 312.5 750 l 1025
62.5 687.5 m 1
 125 687.5 l 1
 125 750 l 1
 62.5 750 l 1
 62.5 687.5 l 1025
375 687.5 m 1
 437.5 687.5 l 1
 437.5 750 l 1
 375 750 l 1
 375 687.5 l 1025
62.5 625 m 1
 125 625 l 1
 125 687.5 l 1
 62.5 687.5 l 1
 62.5 625 l 1025
375 625 m 1
 437.5 625 l 1
 437.5 687.5 l 1
 375 687.5 l 1
 375 625 l 1025
62.5 562.5 m 1
 125 562.5 l 1
 125 625 l 1
 62.5 625 l 1
 62.5 562.5 l 1025
375 562.5 m 1
 437.5 562.5 l 1
 437.5 625 l 1
 375 625 l 1
 375 562.5 l 1025
62.5 500 m 1
 125 500 l 1
 125 562.5 l 1
 62.5 562.5 l 1
 62.5 500 l 1025
375 500 m 1
 437.5 500 l 1
 437.5 562.5 l 1
 375 562.5 l 1
 375 500 l 1025
62.5 437.5 m 1
 125 437.5 l 1
 125 500 l 1
 62.5 500 l 1
 62.5 437.5 l 1025
375 437.5 m 1
 437.5 437.5 l 1
 437.5 500 l 1
 375 500 l 1
 375 437.5 l 1025
62.5 375 m 1
 125 375 l 1
 125 437.5 l 1
 62.5 437.5 l 1
 62.5 375 l 1025
375 375 m 1
 437.5 375 l 1
 437.5 437.5 l 1
 375 437.5 l 1
 375 375 l 1025
62.5 312.5 m 1
 125 312.5 l 1
 125 375 l 1
 62.5 375 l 1
 62.5 312.5 l 1025
375 312.5 m 1
 437.5 312.5 l 1
 437.5 375 l 1
 375 375 l 1
 375 312.5 l 1025
62.5 250 m 1
 125 250 l 1
 125 312.5 l 1
 62.5 312.5 l 1
 62.5 250 l 1025
375 250 m 1
 437.5 250 l 1
 437.5 312.5 l 1
 375 312.5 l 1
 375 250 l 1025
62.5 187.5 m 1
 125 187.5 l 1
 125 250 l 1
 62.5 250 l 1
 62.5 187.5 l 1025
375 187.5 m 1
 437.5 187.5 l 1
 437.5 250 l 1
 375 250 l 1
 375 187.5 l 1025
62.5 125 m 1
 125 125 l 1
 125 187.5 l 1
 62.5 187.5 l 1
 62.5 125 l 1025
375 125 m 1
 437.5 125 l 1
 437.5 187.5 l 1
 375 187.5 l 1
 375 125 l 1025
62.5 62.5 m 1
 125 62.5 l 1
 125 125 l 1
 62.5 125 l 1
 62.5 62.5 l 1025
375 62.5 m 1
 437.5 62.5 l 1
 437.5 125 l 1
 375 125 l 1
 375 62.5 l 1025
125 0 m 1
 375 0 l 1
 375 62.5 l 1
 125 62.5 l 1
 125 0 l 1
EndSplineSet
EndChar

StartChar: V
Encoding: 86 86 85
Width: 500
VWidth: 0
Flags: HW
LayerCount: 2
Back
Fore
SplineSet
0 750 m 1
 125 750 l 1
 125 812.5 l 1
 0 812.5 l 1
 0 750 l 1025
312.5 750 m 1
 437.5 750 l 1
 437.5 812.5 l 1
 312.5 812.5 l 1
 312.5 750 l 1025
0 687.5 m 1
 62.5 687.5 l 1
 62.5 750 l 1
 0 750 l 1
 0 687.5 l 1025
375 687.5 m 1
 437.5 687.5 l 1
 437.5 750 l 1
 375 750 l 1
 375 687.5 l 1025
0 625 m 1
 62.5 625 l 1
 62.5 687.5 l 1
 0 687.5 l 1
 0 625 l 1025
375 625 m 1
 437.5 625 l 1
 437.5 687.5 l 1
 375 687.5 l 1
 375 625 l 1025
0 562.5 m 1
 62.5 562.5 l 1
 62.5 625 l 1
 0 625 l 1
 0 562.5 l 1025
375 562.5 m 1
 437.5 562.5 l 1
 437.5 625 l 1
 375 625 l 1
 375 562.5 l 1025
0 500 m 1
 62.5 500 l 1
 62.5 562.5 l 1
 0 562.5 l 1
 0 500 l 1025
375 500 m 1
 437.5 500 l 1
 437.5 562.5 l 1
 375 562.5 l 1
 375 500 l 1025
62.5 437.5 m 1
 125 437.5 l 1
 125 500 l 1
 62.5 500 l 1
 62.5 437.5 l 1025
312.5 437.5 m 1
 375 437.5 l 1
 375 500 l 1
 312.5 500 l 1
 312.5 437.5 l 1025
62.5 375 m 1
 125 375 l 1
 125 437.5 l 1
 62.5 437.5 l 1
 62.5 375 l 1025
312.5 375 m 1
 375 375 l 1
 375 437.5 l 1
 312.5 437.5 l 1
 312.5 375 l 1025
62.5 312.5 m 1
 125 312.5 l 1
 125 375 l 1
 62.5 375 l 1
 62.5 312.5 l 1025
312.5 312.5 m 1
 375 312.5 l 1
 375 375 l 1
 312.5 375 l 1
 312.5 312.5 l 1025
62.5 250 m 1
 125 250 l 1
 125 312.5 l 1
 62.5 312.5 l 1
 62.5 250 l 1025
312.5 250 m 1
 375 250 l 1
 375 312.5 l 1
 312.5 312.5 l 1
 312.5 250 l 1025
125 187.5 m 1
 187.5 187.5 l 1
 187.5 250 l 1
 125 250 l 1
 125 187.5 l 1025
250 187.5 m 1
 312.5 187.5 l 1
 312.5 250 l 1
 250 250 l 1
 250 187.5 l 1025
125 125 m 1
 187.5 125 l 1
 187.5 187.5 l 1
 125 187.5 l 1
 125 125 l 1025
250 125 m 1
 312.5 125 l 1
 312.5 187.5 l 1
 250 187.5 l 1
 250 125 l 1025
187.5 62.5 m 1
 250 62.5 l 1
 250 125 l 1
 187.5 125 l 1
 187.5 62.5 l 1025
187.5 0 m 1
 250 0 l 1
 250 62.5 l 1
 187.5 62.5 l 1
 187.5 0 l 1
EndSplineSet
EndChar

StartChar: W
Encoding: 87 87 86
Width: 500
VWidth: 0
Flags: HW
LayerCount: 2
Back
Fore
SplineSet
0 750 m 1
 125 750 l 1
 125 812.5 l 1
 0 812.5 l 1
 0 750 l 1025
312.5 750 m 1
 437.5 750 l 1
 437.5 812.5 l 1
 312.5 812.5 l 1
 312.5 750 l 1025
0 687.5 m 1
 62.5 687.5 l 1
 62.5 750 l 1
 0 750 l 1
 0 687.5 l 1025
375 687.5 m 1
 437.5 687.5 l 1
 437.5 750 l 1
 375 750 l 1
 375 687.5 l 1025
0 625 m 1
 62.5 625 l 1
 62.5 687.5 l 1
 0 687.5 l 1
 0 625 l 1025
375 625 m 1
 437.5 625 l 1
 437.5 687.5 l 1
 375 687.5 l 1
 375 625 l 1025
0 562.5 m 1
 62.5 562.5 l 1
 62.5 625 l 1
 0 625 l 1
 0 562.5 l 1025
375 562.5 m 1
 437.5 562.5 l 1
 437.5 625 l 1
 375 625 l 1
 375 562.5 l 1025
0 500 m 1
 62.5 500 l 1
 62.5 562.5 l 1
 0 562.5 l 1
 0 500 l 1025
187.5 500 m 1
 250 500 l 1
 250 562.5 l 1
 187.5 562.5 l 1
 187.5 500 l 1025
375 500 m 1
 437.5 500 l 1
 437.5 562.5 l 1
 375 562.5 l 1
 375 500 l 1025
0 437.5 m 1
 62.5 437.5 l 1
 62.5 500 l 1
 0 500 l 1
 0 437.5 l 1025
187.5 437.5 m 1
 250 437.5 l 1
 250 500 l 1
 187.5 500 l 1
 187.5 437.5 l 1025
375 437.5 m 1
 437.5 437.5 l 1
 437.5 500 l 1
 375 500 l 1
 375 437.5 l 1025
0 375 m 1
 62.5 375 l 1
 62.5 437.5 l 1
 0 437.5 l 1
 0 375 l 1025
187.5 375 m 1
 250 375 l 1
 250 437.5 l 1
 187.5 437.5 l 1
 187.5 375 l 1025
375 375 m 1
 437.5 375 l 1
 437.5 437.5 l 1
 375 437.5 l 1
 375 375 l 1025
0 312.5 m 1
 62.5 312.5 l 1
 62.5 375 l 1
 0 375 l 1
 0 312.5 l 1025
125 312.5 m 1
 187.5 312.5 l 1
 187.5 375 l 1
 125 375 l 1
 125 312.5 l 1025
250 312.5 m 1
 312.5 312.5 l 1
 312.5 375 l 1
 250 375 l 1
 250 312.5 l 1025
375 312.5 m 1
 437.5 312.5 l 1
 437.5 375 l 1
 375 375 l 1
 375 312.5 l 1025
0 250 m 1
 62.5 250 l 1
 62.5 312.5 l 1
 0 312.5 l 1
 0 250 l 1025
125 250 m 1
 187.5 250 l 1
 187.5 312.5 l 1
 125 312.5 l 1
 125 250 l 1025
250 250 m 1
 312.5 250 l 1
 312.5 312.5 l 1
 250 312.5 l 1
 250 250 l 1025
375 250 m 1
 437.5 250 l 1
 437.5 312.5 l 1
 375 312.5 l 1
 375 250 l 1025
0 187.5 m 1
 62.5 187.5 l 1
 62.5 250 l 1
 0 250 l 1
 0 187.5 l 1025
125 187.5 m 1
 187.5 187.5 l 1
 187.5 250 l 1
 125 250 l 1
 125 187.5 l 1025
250 187.5 m 1
 312.5 187.5 l 1
 312.5 250 l 1
 250 250 l 1
 250 187.5 l 1025
375 187.5 m 1
 437.5 187.5 l 1
 437.5 250 l 1
 375 250 l 1
 375 187.5 l 1025
62.5 125 m 1
 125 125 l 1
 125 187.5 l 1
 62.5 187.5 l 1
 62.5 125 l 1025
312.5 125 m 1
 375 125 l 1
 375 187.5 l 1
 312.5 187.5 l 1
 312.5 125 l 1025
62.5 62.5 m 1
 125 62.5 l 1
 125 125 l 1
 62.5 125 l 1
 62.5 62.5 l 1025
312.5 62.5 m 1
 375 62.5 l 1
 375 125 l 1
 312.5 125 l 1
 312.5 62.5 l 1025
62.5 0 m 1
 125 0 l 1
 125 62.5 l 1
 62.5 62.5 l 1
 62.5 0 l 1025
312.5 0 m 1
 375 0 l 1
 375 62.5 l 1
 312.5 62.5 l 1
 312.5 0 l 1
EndSplineSet
EndChar

StartChar: X
Encoding: 88 88 87
Width: 500
VWidth: 0
Flags: HW
LayerCount: 2
Back
Fore
SplineSet
0 750 m 1
 187.5 750 l 1
 187.5 812.5 l 1
 0 812.5 l 1
 0 750 l 1025
250 750 m 1
 437.5 750 l 1
 437.5 812.5 l 1
 250 812.5 l 1
 250 750 l 1025
62.5 687.5 m 1
 125 687.5 l 1
 125 750 l 1
 62.5 750 l 1
 62.5 687.5 l 1025
312.5 687.5 m 1
 375 687.5 l 1
 375 750 l 1
 312.5 750 l 1
 312.5 687.5 l 1025
62.5 625 m 1
 125 625 l 1
 125 687.5 l 1
 62.5 687.5 l 1
 62.5 625 l 1025
312.5 625 m 1
 375 625 l 1
 375 687.5 l 1
 312.5 687.5 l 1
 312.5 625 l 1025
125 562.5 m 1
 187.5 562.5 l 1
 187.5 625 l 1
 125 625 l 1
 125 562.5 l 1025
250 562.5 m 1
 312.5 562.5 l 1
 312.5 625 l 1
 250 625 l 1
 250 562.5 l 1025
125 500 m 1
 187.5 500 l 1
 187.5 562.5 l 1
 125 562.5 l 1
 125 500 l 1025
250 500 m 1
 312.5 500 l 1
 312.5 562.5 l 1
 250 562.5 l 1
 250 500 l 1025
187.5 437.5 m 1
 250 437.5 l 1
 250 500 l 1
 187.5 500 l 1
 187.5 437.5 l 1025
125 375 m 1
 187.5 375 l 1
 187.5 437.5 l 1
 125 437.5 l 1
 125 375 l 1025
250 375 m 1
 312.5 375 l 1
 312.5 437.5 l 1
 250 437.5 l 1
 250 375 l 1025
125 312.5 m 1
 187.5 312.5 l 1
 187.5 375 l 1
 125 375 l 1
 125 312.5 l 1025
250 312.5 m 1
 312.5 312.5 l 1
 312.5 375 l 1
 250 375 l 1
 250 312.5 l 1025
125 250 m 1
 187.5 250 l 1
 187.5 312.5 l 1
 125 312.5 l 1
 125 250 l 1025
250 250 m 1
 312.5 250 l 1
 312.5 312.5 l 1
 250 312.5 l 1
 250 250 l 1025
62.5 187.5 m 1
 125 187.5 l 1
 125 250 l 1
 62.5 250 l 1
 62.5 187.5 l 1025
312.5 187.5 m 1
 375 187.5 l 1
 375 250 l 1
 312.5 250 l 1
 312.5 187.5 l 1025
62.5 125 m 1
 125 125 l 1
 125 187.5 l 1
 62.5 187.5 l 1
 62.5 125 l 1025
312.5 125 m 1
 375 125 l 1
 375 187.5 l 1
 312.5 187.5 l 1
 312.5 125 l 1025
0 62.5 m 1
 62.5 62.5 l 1
 62.5 125 l 1
 0 125 l 1
 0 62.5 l 1025
375 62.5 m 1
 437.5 62.5 l 1
 437.5 125 l 1
 375 125 l 1
 375 62.5 l 1025
0 0 m 1
 125 0 l 1
 125 62.5 l 1
 0 62.5 l 1
 0 0 l 1025
312.5 0 m 1
 437.5 0 l 1
 437.5 62.5 l 1
 312.5 62.5 l 1
 312.5 0 l 1
EndSplineSet
EndChar

StartChar: Y
Encoding: 89 89 88
Width: 500
VWidth: 0
Flags: HW
LayerCount: 2
Back
Fore
SplineSet
0 750 m 1
 125 750 l 1
 125 812.5 l 1
 0 812.5 l 1
 0 750 l 1025
312.5 750 m 1
 437.5 750 l 1
 437.5 812.5 l 1
 312.5 812.5 l 1
 312.5 750 l 1025
0 687.5 m 1
 62.5 687.5 l 1
 62.5 750 l 1
 0 750 l 1
 0 687.5 l 1025
375 687.5 m 1
 437.5 687.5 l 1
 437.5 750 l 1
 375 750 l 1
 375 687.5 l 1025
62.5 625 m 1
 125 625 l 1
 125 687.5 l 1
 62.5 687.5 l 1
 62.5 625 l 1025
312.5 625 m 1
 375 625 l 1
 375 687.5 l 1
 312.5 687.5 l 1
 312.5 625 l 1025
62.5 562.5 m 1
 125 562.5 l 1
 125 625 l 1
 62.5 625 l 1
 62.5 562.5 l 1025
312.5 562.5 m 1
 375 562.5 l 1
 375 625 l 1
 312.5 625 l 1
 312.5 562.5 l 1025
62.5 500 m 1
 125 500 l 1
 125 562.5 l 1
 62.5 562.5 l 1
 62.5 500 l 1025
312.5 500 m 1
 375 500 l 1
 375 562.5 l 1
 312.5 562.5 l 1
 312.5 500 l 1025
125 437.5 m 1
 187.5 437.5 l 1
 187.5 500 l 1
 125 500 l 1
 125 437.5 l 1025
250 437.5 m 1
 312.5 437.5 l 1
 312.5 500 l 1
 250 500 l 1
 250 437.5 l 1025
125 375 m 1
 187.5 375 l 1
 187.5 437.5 l 1
 125 437.5 l 1
 125 375 l 1025
250 375 m 1
 312.5 375 l 1
 312.5 437.5 l 1
 250 437.5 l 1
 250 375 l 1025
187.5 312.5 m 1
 250 312.5 l 1
 250 375 l 1
 187.5 375 l 1
 187.5 312.5 l 1025
187.5 250 m 1
 250 250 l 1
 250 312.5 l 1
 187.5 312.5 l 1
 187.5 250 l 1025
187.5 187.5 m 1
 250 187.5 l 1
 250 250 l 1
 187.5 250 l 1
 187.5 187.5 l 1025
187.5 125 m 1
 250 125 l 1
 250 187.5 l 1
 187.5 187.5 l 1
 187.5 125 l 1025
187.5 62.5 m 1
 250 62.5 l 1
 250 125 l 1
 187.5 125 l 1
 187.5 62.5 l 1025
62.5 0 m 1
 375 0 l 1
 375 62.5 l 1
 62.5 62.5 l 1
 62.5 0 l 1
EndSplineSet
EndChar

StartChar: Z
Encoding: 90 90 89
Width: 500
VWidth: 0
Flags: HW
LayerCount: 2
Back
Fore
SplineSet
0 750 m 1
 437.5 750 l 1
 437.5 812.5 l 1
 0 812.5 l 1
 0 750 l 1025
0 687.5 m 1
 62.5 687.5 l 1
 62.5 750 l 1
 0 750 l 1
 0 687.5 l 1025
312.5 687.5 m 1
 375 687.5 l 1
 375 750 l 1
 312.5 750 l 1
 312.5 687.5 l 1025
0 625 m 1
 62.5 625 l 1
 62.5 687.5 l 1
 0 687.5 l 1
 0 625 l 1025
250 625 m 1
 312.5 625 l 1
 312.5 687.5 l 1
 250 687.5 l 1
 250 625 l 1025
250 562.5 m 1
 312.5 562.5 l 1
 312.5 625 l 1
 250 625 l 1
 250 562.5 l 1025
187.5 500 m 1
 250 500 l 1
 250 562.5 l 1
 187.5 562.5 l 1
 187.5 500 l 1025
187.5 437.5 m 1
 250 437.5 l 1
 250 500 l 1
 187.5 500 l 1
 187.5 437.5 l 1025
187.5 375 m 1
 250 375 l 1
 250 437.5 l 1
 187.5 437.5 l 1
 187.5 375 l 1025
125 312.5 m 1
 187.5 312.5 l 1
 187.5 375 l 1
 125 375 l 1
 125 312.5 l 1025
125 250 m 1
 187.5 250 l 1
 187.5 312.5 l 1
 125 312.5 l 1
 125 250 l 1025
62.5 187.5 m 1
 125 187.5 l 1
 125 250 l 1
 62.5 250 l 1
 62.5 187.5 l 1025
375 187.5 m 1
 437.5 187.5 l 1
 437.5 250 l 1
 375 250 l 1
 375 187.5 l 1025
62.5 125 m 1
 125 125 l 1
 125 187.5 l 1
 62.5 187.5 l 1
 62.5 125 l 1025
375 125 m 1
 437.5 125 l 1
 437.5 187.5 l 1
 375 187.5 l 1
 375 125 l 1025
0 62.5 m 1
 62.5 62.5 l 1
 62.5 125 l 1
 0 125 l 1
 0 62.5 l 1025
375 62.5 m 1
 437.5 62.5 l 1
 437.5 125 l 1
 375 125 l 1
 375 62.5 l 1025
0 0 m 1
 437.5 0 l 1
 437.5 62.5 l 1
 0 62.5 l 1
 0 0 l 1
EndSplineSet
EndChar

StartChar: bracketleft
Encoding: 91 91 90
Width: 500
VWidth: 0
Flags: HW
LayerCount: 2
Back
Fore
SplineSet
187.5 812.5 m 1
 437.5 812.5 l 1
 437.5 875 l 1
 187.5 875 l 1
 187.5 812.5 l 1025
187.5 750 m 1
 250 750 l 1
 250 812.5 l 1
 187.5 812.5 l 1
 187.5 750 l 1025
187.5 687.5 m 1
 250 687.5 l 1
 250 750 l 1
 187.5 750 l 1
 187.5 687.5 l 1025
187.5 625 m 1
 250 625 l 1
 250 687.5 l 1
 187.5 687.5 l 1
 187.5 625 l 1025
187.5 562.5 m 1
 250 562.5 l 1
 250 625 l 1
 187.5 625 l 1
 187.5 562.5 l 1025
187.5 500 m 1
 250 500 l 1
 250 562.5 l 1
 187.5 562.5 l 1
 187.5 500 l 1025
187.5 437.5 m 1
 250 437.5 l 1
 250 500 l 1
 187.5 500 l 1
 187.5 437.5 l 1025
187.5 375 m 1
 250 375 l 1
 250 437.5 l 1
 187.5 437.5 l 1
 187.5 375 l 1025
187.5 312.5 m 1
 250 312.5 l 1
 250 375 l 1
 187.5 375 l 1
 187.5 312.5 l 1025
187.5 250 m 1
 250 250 l 1
 250 312.5 l 1
 187.5 312.5 l 1
 187.5 250 l 1025
187.5 187.5 m 1
 250 187.5 l 1
 250 250 l 1
 187.5 250 l 1
 187.5 187.5 l 1025
187.5 125 m 1
 250 125 l 1
 250 187.5 l 1
 187.5 187.5 l 1
 187.5 125 l 1025
187.5 62.5 m 1
 250 62.5 l 1
 250 125 l 1
 187.5 125 l 1
 187.5 62.5 l 1025
187.5 0 m 1
 250 0 l 1
 250 62.5 l 1
 187.5 62.5 l 1
 187.5 0 l 1025
187.5 -62.5 m 1
 250 -62.5 l 1
 250 0 l 1
 187.5 0 l 1
 187.5 -62.5 l 1025
187.5 -125 m 1
 437.5 -125 l 1
 437.5 -62.5 l 1
 187.5 -62.5 l 1
 187.5 -125 l 1
EndSplineSet
EndChar

StartChar: backslash
Encoding: 92 92 91
Width: 500
VWidth: 0
Flags: HW
LayerCount: 2
Back
Fore
SplineSet
0 750 m 1
 62.5 750 l 1
 62.5 812.5 l 1
 0 812.5 l 1
 0 750 l 1025
0 687.5 m 1
 62.5 687.5 l 1
 62.5 750 l 1
 0 750 l 1
 0 687.5 l 1025
62.5 625 m 1
 125 625 l 1
 125 687.5 l 1
 62.5 687.5 l 1
 62.5 625 l 1025
62.5 562.5 m 1
 125 562.5 l 1
 125 625 l 1
 62.5 625 l 1
 62.5 562.5 l 1025
125 500 m 1
 187.5 500 l 1
 187.5 562.5 l 1
 125 562.5 l 1
 125 500 l 1025
125 437.5 m 1
 187.5 437.5 l 1
 187.5 500 l 1
 125 500 l 1
 125 437.5 l 1025
187.5 375 m 1
 250 375 l 1
 250 437.5 l 1
 187.5 437.5 l 1
 187.5 375 l 1025
187.5 312.5 m 1
 250 312.5 l 1
 250 375 l 1
 187.5 375 l 1
 187.5 312.5 l 1025
250 250 m 1
 312.5 250 l 1
 312.5 312.5 l 1
 250 312.5 l 1
 250 250 l 1025
250 187.5 m 1
 312.5 187.5 l 1
 312.5 250 l 1
 250 250 l 1
 250 187.5 l 1025
312.5 125 m 1
 375 125 l 1
 375 187.5 l 1
 312.5 187.5 l 1
 312.5 125 l 1025
312.5 62.5 m 1
 375 62.5 l 1
 375 125 l 1
 312.5 125 l 1
 312.5 62.5 l 1025
375 0 m 1
 437.5 0 l 1
 437.5 62.5 l 1
 375 62.5 l 1
 375 0 l 1025
375 -62.5 m 1
 437.5 -62.5 l 1
 437.5 0 l 1
 375 0 l 1
 375 -62.5 l 1
EndSplineSet
EndChar

StartChar: bracketright
Encoding: 93 93 92
Width: 500
VWidth: 0
Flags: HW
LayerCount: 2
Back
Fore
SplineSet
0 812.5 m 1
 250 812.5 l 1
 250 875 l 1
 0 875 l 1
 0 812.5 l 1025
187.5 750 m 1
 250 750 l 1
 250 812.5 l 1
 187.5 812.5 l 1
 187.5 750 l 1025
187.5 687.5 m 1
 250 687.5 l 1
 250 750 l 1
 187.5 750 l 1
 187.5 687.5 l 1025
187.5 625 m 1
 250 625 l 1
 250 687.5 l 1
 187.5 687.5 l 1
 187.5 625 l 1025
187.5 562.5 m 1
 250 562.5 l 1
 250 625 l 1
 187.5 625 l 1
 187.5 562.5 l 1025
187.5 500 m 1
 250 500 l 1
 250 562.5 l 1
 187.5 562.5 l 1
 187.5 500 l 1025
187.5 437.5 m 1
 250 437.5 l 1
 250 500 l 1
 187.5 500 l 1
 187.5 437.5 l 1025
187.5 375 m 1
 250 375 l 1
 250 437.5 l 1
 187.5 437.5 l 1
 187.5 375 l 1025
187.5 312.5 m 1
 250 312.5 l 1
 250 375 l 1
 187.5 375 l 1
 187.5 312.5 l 1025
187.5 250 m 1
 250 250 l 1
 250 312.5 l 1
 187.5 312.5 l 1
 187.5 250 l 1025
187.5 187.5 m 1
 250 187.5 l 1
 250 250 l 1
 187.5 250 l 1
 187.5 187.5 l 1025
187.5 125 m 1
 250 125 l 1
 250 187.5 l 1
 187.5 187.5 l 1
 187.5 125 l 1025
187.5 62.5 m 1
 250 62.5 l 1
 250 125 l 1
 187.5 125 l 1
 187.5 62.5 l 1025
187.5 0 m 1
 250 0 l 1
 250 62.5 l 1
 187.5 62.5 l 1
 187.5 0 l 1025
187.5 -62.5 m 1
 250 -62.5 l 1
 250 0 l 1
 187.5 0 l 1
 187.5 -62.5 l 1025
0 -125 m 1
 250 -125 l 1
 250 -62.5 l 1
 0 -62.5 l 1
 0 -125 l 1
EndSplineSet
EndChar

StartChar: asciicircum
Encoding: 94 94 93
Width: 500
VWidth: 0
Flags: HW
LayerCount: 2
Back
Fore
SplineSet
187.5 812.5 m 1
 250 812.5 l 1
 250 875 l 1
 187.5 875 l 1
 187.5 812.5 l 1025
125 750 m 1
 187.5 750 l 1
 187.5 812.5 l 1
 125 812.5 l 1
 125 750 l 1025
250 750 m 1
 312.5 750 l 1
 312.5 812.5 l 1
 250 812.5 l 1
 250 750 l 1025
62.5 687.5 m 1
 125 687.5 l 1
 125 750 l 1
 62.5 750 l 1
 62.5 687.5 l 1025
312.5 687.5 m 1
 375 687.5 l 1
 375 750 l 1
 312.5 750 l 1
 312.5 687.5 l 1025
0 625 m 1
 62.5 625 l 1
 62.5 687.5 l 1
 0 687.5 l 1
 0 625 l 1025
375 625 m 1
 437.5 625 l 1
 437.5 687.5 l 1
 375 687.5 l 1
 375 625 l 1
EndSplineSet
EndChar

StartChar: underscore
Encoding: 95 95 94
Width: 500
VWidth: 0
Flags: HW
LayerCount: 2
Back
Fore
SplineSet
0 -125 m 1
 437.5 -125 l 1
 437.5 -62.5 l 1
 0 -62.5 l 1
 0 -125 l 1
EndSplineSet
EndChar

StartChar: grave
Encoding: 96 96 95
Width: 500
VWidth: 0
Flags: HW
LayerCount: 2
Back
Fore
SplineSet
125 812.5 m 1
 250 812.5 l 1
 250 875 l 1
 125 875 l 1
 125 812.5 l 1025
125 750 m 1
 250 750 l 1
 250 812.5 l 1
 125 812.5 l 1
 125 750 l 1025
125 687.5 m 1
 187.5 687.5 l 1
 187.5 750 l 1
 125 750 l 1
 125 687.5 l 1025
125 625 m 1
 187.5 625 l 1
 187.5 687.5 l 1
 125 687.5 l 1
 125 625 l 1025
187.5 562.5 m 1
 250 562.5 l 1
 250 625 l 1
 187.5 625 l 1
 187.5 562.5 l 1
EndSplineSet
EndChar

StartChar: a
Encoding: 97 97 96
Width: 500
VWidth: 0
Flags: HW
LayerCount: 2
Back
Fore
SplineSet
125 500 m 1
 375 500 l 1
 375 562.5 l 1
 125 562.5 l 1
 125 500 l 1025
62.5 437.5 m 1
 125 437.5 l 1
 125 500 l 1
 62.5 500 l 1
 62.5 437.5 l 1025
375 437.5 m 1
 437.5 437.5 l 1
 437.5 500 l 1
 375 500 l 1
 375 437.5 l 1025
375 375 m 1
 437.5 375 l 1
 437.5 437.5 l 1
 375 437.5 l 1
 375 375 l 1025
125 312.5 m 1
 437.5 312.5 l 1
 437.5 375 l 1
 125 375 l 1
 125 312.5 l 1025
62.5 250 m 1
 125 250 l 1
 125 312.5 l 1
 62.5 312.5 l 1
 62.5 250 l 1025
375 250 m 1
 437.5 250 l 1
 437.5 312.5 l 1
 375 312.5 l 1
 375 250 l 1025
0 187.5 m 1
 62.5 187.5 l 1
 62.5 250 l 1
 0 250 l 1
 0 187.5 l 1025
375 187.5 m 1
 437.5 187.5 l 1
 437.5 250 l 1
 375 250 l 1
 375 187.5 l 1025
0 125 m 1
 62.5 125 l 1
 62.5 187.5 l 1
 0 187.5 l 1
 0 125 l 1025
375 125 m 1
 437.5 125 l 1
 437.5 187.5 l 1
 375 187.5 l 1
 375 125 l 1025
0 62.5 m 1
 62.5 62.5 l 1
 62.5 125 l 1
 0 125 l 1
 0 62.5 l 1025
312.5 62.5 m 1
 437.5 62.5 l 1
 437.5 125 l 1
 312.5 125 l 1
 312.5 62.5 l 1025
62.5 0 m 1
 312.5 0 l 1
 312.5 62.5 l 1
 62.5 62.5 l 1
 62.5 0 l 1025
375 0 m 1
 500 0 l 1
 500 62.5 l 1
 375 62.5 l 1
 375 0 l 1
EndSplineSet
EndChar

StartChar: b
Encoding: 98 98 97
Width: 500
VWidth: 0
Flags: HW
LayerCount: 2
Back
Fore
SplineSet
0 750 m 1
 125 750 l 1
 125 812.5 l 1
 0 812.5 l 1
 0 750 l 1025
62.5 687.5 m 1
 125 687.5 l 1
 125 750 l 1
 62.5 750 l 1
 62.5 687.5 l 1025
62.5 625 m 1
 125 625 l 1
 125 687.5 l 1
 62.5 687.5 l 1
 62.5 625 l 1025
62.5 562.5 m 1
 125 562.5 l 1
 125 625 l 1
 62.5 625 l 1
 62.5 562.5 l 1025
62.5 500 m 1
 312.5 500 l 1
 312.5 562.5 l 1
 62.5 562.5 l 1
 62.5 500 l 1025
62.5 437.5 m 1
 125 437.5 l 1
 125 500 l 1
 62.5 500 l 1
 62.5 437.5 l 1025
312.5 437.5 m 1
 375 437.5 l 1
 375 500 l 1
 312.5 500 l 1
 312.5 437.5 l 1025
62.5 375 m 1
 125 375 l 1
 125 437.5 l 1
 62.5 437.5 l 1
 62.5 375 l 1025
375 375 m 1
 437.5 375 l 1
 437.5 437.5 l 1
 375 437.5 l 1
 375 375 l 1025
62.5 312.5 m 1
 125 312.5 l 1
 125 375 l 1
 62.5 375 l 1
 62.5 312.5 l 1025
375 312.5 m 1
 437.5 312.5 l 1
 437.5 375 l 1
 375 375 l 1
 375 312.5 l 1025
62.5 250 m 1
 125 250 l 1
 125 312.5 l 1
 62.5 312.5 l 1
 62.5 250 l 1025
375 250 m 1
 437.5 250 l 1
 437.5 312.5 l 1
 375 312.5 l 1
 375 250 l 1025
62.5 187.5 m 1
 125 187.5 l 1
 125 250 l 1
 62.5 250 l 1
 62.5 187.5 l 1025
375 187.5 m 1
 437.5 187.5 l 1
 437.5 250 l 1
 375 250 l 1
 375 187.5 l 1025
62.5 125 m 1
 125 125 l 1
 125 187.5 l 1
 62.5 187.5 l 1
 62.5 125 l 1025
375 125 m 1
 437.5 125 l 1
 437.5 187.5 l 1
 375 187.5 l 1
 375 125 l 1025
62.5 62.5 m 1
 125 62.5 l 1
 125 125 l 1
 62.5 125 l 1
 62.5 62.5 l 1025
312.5 62.5 m 1
 375 62.5 l 1
 375 125 l 1
 312.5 125 l 1
 312.5 62.5 l 1025
62.5 0 m 1
 312.5 0 l 1
 312.5 62.5 l 1
 62.5 62.5 l 1
 62.5 0 l 1
EndSplineSet
EndChar

StartChar: c
Encoding: 99 99 98
Width: 500
VWidth: 0
Flags: HW
LayerCount: 2
Back
Fore
SplineSet
125 500 m 1
 312.5 500 l 1
 312.5 562.5 l 1
 125 562.5 l 1
 125 500 l 1025
375 500 m 1
 437.5 500 l 1
 437.5 562.5 l 1
 375 562.5 l 1
 375 500 l 1025
62.5 437.5 m 1
 125 437.5 l 1
 125 500 l 1
 62.5 500 l 1
 62.5 437.5 l 1025
312.5 437.5 m 1
 437.5 437.5 l 1
 437.5 500 l 1
 312.5 500 l 1
 312.5 437.5 l 1025
0 375 m 1
 62.5 375 l 1
 62.5 437.5 l 1
 0 437.5 l 1
 0 375 l 1025
375 375 m 1
 437.5 375 l 1
 437.5 437.5 l 1
 375 437.5 l 1
 375 375 l 1025
0 312.5 m 1
 62.5 312.5 l 1
 62.5 375 l 1
 0 375 l 1
 0 312.5 l 1025
0 250 m 1
 62.5 250 l 1
 62.5 312.5 l 1
 0 312.5 l 1
 0 250 l 1025
0 187.5 m 1
 62.5 187.5 l 1
 62.5 250 l 1
 0 250 l 1
 0 187.5 l 1025
0 125 m 1
 62.5 125 l 1
 62.5 187.5 l 1
 0 187.5 l 1
 0 125 l 1025
375 125 m 1
 437.5 125 l 1
 437.5 187.5 l 1
 375 187.5 l 1
 375 125 l 1025
62.5 62.5 m 1
 125 62.5 l 1
 125 125 l 1
 62.5 125 l 1
 62.5 62.5 l 1025
375 62.5 m 1
 437.5 62.5 l 1
 437.5 125 l 1
 375 125 l 1
 375 62.5 l 1025
125 0 m 1
 375 0 l 1
 375 62.5 l 1
 125 62.5 l 1
 125 0 l 1
EndSplineSet
EndChar

StartChar: d
Encoding: 100 100 99
Width: 500
VWidth: 0
Flags: HW
LayerCount: 2
Back
Fore
SplineSet
312.5 750 m 1
 437.5 750 l 1
 437.5 812.5 l 1
 312.5 812.5 l 1
 312.5 750 l 1025
312.5 687.5 m 1
 375 687.5 l 1
 375 750 l 1
 312.5 750 l 1
 312.5 687.5 l 1025
312.5 625 m 1
 375 625 l 1
 375 687.5 l 1
 312.5 687.5 l 1
 312.5 625 l 1025
312.5 562.5 m 1
 375 562.5 l 1
 375 625 l 1
 312.5 625 l 1
 312.5 562.5 l 1025
125 500 m 1
 375 500 l 1
 375 562.5 l 1
 125 562.5 l 1
 125 500 l 1025
62.5 437.5 m 1
 125 437.5 l 1
 125 500 l 1
 62.5 500 l 1
 62.5 437.5 l 1025
312.5 437.5 m 1
 375 437.5 l 1
 375 500 l 1
 312.5 500 l 1
 312.5 437.5 l 1025
0 375 m 1
 62.5 375 l 1
 62.5 437.5 l 1
 0 437.5 l 1
 0 375 l 1025
312.5 375 m 1
 375 375 l 1
 375 437.5 l 1
 312.5 437.5 l 1
 312.5 375 l 1025
0 312.5 m 1
 62.5 312.5 l 1
 62.5 375 l 1
 0 375 l 1
 0 312.5 l 1025
312.5 312.5 m 1
 375 312.5 l 1
 375 375 l 1
 312.5 375 l 1
 312.5 312.5 l 1025
0 250 m 1
 62.5 250 l 1
 62.5 312.5 l 1
 0 312.5 l 1
 0 250 l 1025
312.5 250 m 1
 375 250 l 1
 375 312.5 l 1
 312.5 312.5 l 1
 312.5 250 l 1025
0 187.5 m 1
 62.5 187.5 l 1
 62.5 250 l 1
 0 250 l 1
 0 187.5 l 1025
312.5 187.5 m 1
 375 187.5 l 1
 375 250 l 1
 312.5 250 l 1
 312.5 187.5 l 1025
0 125 m 1
 62.5 125 l 1
 62.5 187.5 l 1
 0 187.5 l 1
 0 125 l 1025
312.5 125 m 1
 375 125 l 1
 375 187.5 l 1
 312.5 187.5 l 1
 312.5 125 l 1025
62.5 62.5 m 1
 125 62.5 l 1
 125 125 l 1
 62.5 125 l 1
 62.5 62.5 l 1025
312.5 62.5 m 1
 375 62.5 l 1
 375 125 l 1
 312.5 125 l 1
 312.5 62.5 l 1025
125 0 m 1
 437.5 0 l 1
 437.5 62.5 l 1
 125 62.5 l 1
 125 0 l 1
EndSplineSet
EndChar

StartChar: e
Encoding: 101 101 100
Width: 500
VWidth: 0
Flags: HW
LayerCount: 2
Back
Fore
SplineSet
125 500 m 1
 312.5 500 l 1
 312.5 562.5 l 1
 125 562.5 l 1
 125 500 l 1025
62.5 437.5 m 1
 125 437.5 l 1
 125 500 l 1
 62.5 500 l 1
 62.5 437.5 l 1025
312.5 437.5 m 1
 375 437.5 l 1
 375 500 l 1
 312.5 500 l 1
 312.5 437.5 l 1025
0 375 m 1
 62.5 375 l 1
 62.5 437.5 l 1
 0 437.5 l 1
 0 375 l 1025
375 375 m 1
 437.5 375 l 1
 437.5 437.5 l 1
 375 437.5 l 1
 375 375 l 1025
0 312.5 m 1
 437.5 312.5 l 1
 437.5 375 l 1
 0 375 l 1
 0 312.5 l 1025
0 250 m 1
 62.5 250 l 1
 62.5 312.5 l 1
 0 312.5 l 1
 0 250 l 1025
0 187.5 m 1
 62.5 187.5 l 1
 62.5 250 l 1
 0 250 l 1
 0 187.5 l 1025
0 125 m 1
 62.5 125 l 1
 62.5 187.5 l 1
 0 187.5 l 1
 0 125 l 1025
375 125 m 1
 437.5 125 l 1
 437.5 187.5 l 1
 375 187.5 l 1
 375 125 l 1025
62.5 62.5 m 1
 125 62.5 l 1
 125 125 l 1
 62.5 125 l 1
 62.5 62.5 l 1025
375 62.5 m 1
 437.5 62.5 l 1
 437.5 125 l 1
 375 125 l 1
 375 62.5 l 1025
125 0 m 1
 375 0 l 1
 375 62.5 l 1
 125 62.5 l 1
 125 0 l 1
EndSplineSet
EndChar

StartChar: f
Encoding: 102 102 101
Width: 500
VWidth: 0
Flags: HW
LayerCount: 2
Back
Fore
SplineSet
250 750 m 1
 437.5 750 l 1
 437.5 812.5 l 1
 250 812.5 l 1
 250 750 l 1025
187.5 687.5 m 1
 250 687.5 l 1
 250 750 l 1
 187.5 750 l 1
 187.5 687.5 l 1025
437.5 687.5 m 1
 500 687.5 l 1
 500 750 l 1
 437.5 750 l 1
 437.5 687.5 l 1025
187.5 625 m 1
 250 625 l 1
 250 687.5 l 1
 187.5 687.5 l 1
 187.5 625 l 1025
187.5 562.5 m 1
 250 562.5 l 1
 250 625 l 1
 187.5 625 l 1
 187.5 562.5 l 1025
0 500 m 1
 437.5 500 l 1
 437.5 562.5 l 1
 0 562.5 l 1
 0 500 l 1025
187.5 437.5 m 1
 250 437.5 l 1
 250 500 l 1
 187.5 500 l 1
 187.5 437.5 l 1025
187.5 375 m 1
 250 375 l 1
 250 437.5 l 1
 187.5 437.5 l 1
 187.5 375 l 1025
187.5 312.5 m 1
 250 312.5 l 1
 250 375 l 1
 187.5 375 l 1
 187.5 312.5 l 1025
187.5 250 m 1
 250 250 l 1
 250 312.5 l 1
 187.5 312.5 l 1
 187.5 250 l 1025
187.5 187.5 m 1
 250 187.5 l 1
 250 250 l 1
 187.5 250 l 1
 187.5 187.5 l 1025
187.5 125 m 1
 250 125 l 1
 250 187.5 l 1
 187.5 187.5 l 1
 187.5 125 l 1025
187.5 62.5 m 1
 250 62.5 l 1
 250 125 l 1
 187.5 125 l 1
 187.5 62.5 l 1025
62.5 0 m 1
 375 0 l 1
 375 62.5 l 1
 62.5 62.5 l 1
 62.5 0 l 1
EndSplineSet
EndChar

StartChar: g
Encoding: 103 103 102
Width: 500
VWidth: 0
Flags: HW
LayerCount: 2
Back
Fore
SplineSet
125 500 m 1
 312.5 500 l 1
 312.5 562.5 l 1
 125 562.5 l 1
 125 500 l 1025
375 500 m 1
 500 500 l 1
 500 562.5 l 1
 375 562.5 l 1
 375 500 l 1025
62.5 437.5 m 1
 125 437.5 l 1
 125 500 l 1
 62.5 500 l 1
 62.5 437.5 l 1025
312.5 437.5 m 1
 375 437.5 l 1
 375 500 l 1
 312.5 500 l 1
 312.5 437.5 l 1025
62.5 375 m 1
 125 375 l 1
 125 437.5 l 1
 62.5 437.5 l 1
 62.5 375 l 1025
312.5 375 m 1
 375 375 l 1
 375 437.5 l 1
 312.5 437.5 l 1
 312.5 375 l 1025
62.5 312.5 m 1
 125 312.5 l 1
 125 375 l 1
 62.5 375 l 1
 62.5 312.5 l 1025
312.5 312.5 m 1
 375 312.5 l 1
 375 375 l 1
 312.5 375 l 1
 312.5 312.5 l 1025
125 250 m 1
 312.5 250 l 1
 312.5 312.5 l 1
 125 312.5 l 1
 125 250 l 1025
62.5 187.5 m 1
 125 187.5 l 1
 125 250 l 1
 62.5 250 l 1
 62.5 187.5 l 1025
62.5 125 m 1
 312.5 125 l 1
 312.5 187.5 l 1
 62.5 187.5 l 1
 62.5 125 l 1025
0 62.5 m 1
 62.5 62.5 l 1
 62.5 125 l 1
 0 125 l 1
 0 62.5 l 1025
312.5 62.5 m 1
 375 62.5 l 1
 375 125 l 1
 312.5 125 l 1
 312.5 62.5 l 1025
0 0 m 1
 62.5 0 l 1
 62.5 62.5 l 1
 0 62.5 l 1
 0 0 l 1025
375 0 m 1
 437.5 0 l 1
 437.5 62.5 l 1
 375 62.5 l 1
 375 0 l 1025
0 -62.5 m 1
 62.5 -62.5 l 1
 62.5 0 l 1
 0 0 l 1
 0 -62.5 l 1025
375 -62.5 m 1
 437.5 -62.5 l 1
 437.5 0 l 1
 375 0 l 1
 375 -62.5 l 1025
62.5 -125 m 1
 375 -125 l 1
 375 -62.5 l 1
 62.5 -62.5 l 1
 62.5 -125 l 1
EndSplineSet
EndChar

StartChar: h
Encoding: 104 104 103
Width: 500
VWidth: 0
Flags: HW
LayerCount: 2
Back
Fore
SplineSet
0 750 m 1
 125 750 l 1
 125 812.5 l 1
 0 812.5 l 1
 0 750 l 1025
62.5 687.5 m 1
 125 687.5 l 1
 125 750 l 1
 62.5 750 l 1
 62.5 687.5 l 1025
62.5 625 m 1
 125 625 l 1
 125 687.5 l 1
 62.5 687.5 l 1
 62.5 625 l 1025
62.5 562.5 m 1
 125 562.5 l 1
 125 625 l 1
 62.5 625 l 1
 62.5 562.5 l 1025
62.5 500 m 1
 125 500 l 1
 125 562.5 l 1
 62.5 562.5 l 1
 62.5 500 l 1025
187.5 500 m 1
 375 500 l 1
 375 562.5 l 1
 187.5 562.5 l 1
 187.5 500 l 1025
62.5 437.5 m 1
 187.5 437.5 l 1
 187.5 500 l 1
 62.5 500 l 1
 62.5 437.5 l 1025
375 437.5 m 1
 437.5 437.5 l 1
 437.5 500 l 1
 375 500 l 1
 375 437.5 l 1025
62.5 375 m 1
 125 375 l 1
 125 437.5 l 1
 62.5 437.5 l 1
 62.5 375 l 1025
375 375 m 1
 437.5 375 l 1
 437.5 437.5 l 1
 375 437.5 l 1
 375 375 l 1025
62.5 312.5 m 1
 125 312.5 l 1
 125 375 l 1
 62.5 375 l 1
 62.5 312.5 l 1025
375 312.5 m 1
 437.5 312.5 l 1
 437.5 375 l 1
 375 375 l 1
 375 312.5 l 1025
62.5 250 m 1
 125 250 l 1
 125 312.5 l 1
 62.5 312.5 l 1
 62.5 250 l 1025
375 250 m 1
 437.5 250 l 1
 437.5 312.5 l 1
 375 312.5 l 1
 375 250 l 1025
62.5 187.5 m 1
 125 187.5 l 1
 125 250 l 1
 62.5 250 l 1
 62.5 187.5 l 1025
375 187.5 m 1
 437.5 187.5 l 1
 437.5 250 l 1
 375 250 l 1
 375 187.5 l 1025
62.5 125 m 1
 125 125 l 1
 125 187.5 l 1
 62.5 187.5 l 1
 62.5 125 l 1025
375 125 m 1
 437.5 125 l 1
 437.5 187.5 l 1
 375 187.5 l 1
 375 125 l 1025
62.5 62.5 m 1
 125 62.5 l 1
 125 125 l 1
 62.5 125 l 1
 62.5 62.5 l 1025
375 62.5 m 1
 437.5 62.5 l 1
 437.5 125 l 1
 375 125 l 1
 375 62.5 l 1025
0 0 m 1
 187.5 0 l 1
 187.5 62.5 l 1
 0 62.5 l 1
 0 0 l 1025
312.5 0 m 1
 500 0 l 1
 500 62.5 l 1
 312.5 62.5 l 1
 312.5 0 l 1
EndSplineSet
EndChar

StartChar: i
Encoding: 105 105 104
Width: 500
VWidth: 0
Flags: HW
LayerCount: 2
Back
Fore
SplineSet
187.5 812.5 m 1
 312.5 812.5 l 1
 312.5 875 l 1
 187.5 875 l 1
 187.5 812.5 l 1025
187.5 750 m 1
 312.5 750 l 1
 312.5 812.5 l 1
 187.5 812.5 l 1
 187.5 750 l 1025
62.5 500 m 1
 312.5 500 l 1
 312.5 562.5 l 1
 62.5 562.5 l 1
 62.5 500 l 1025
250 437.5 m 1
 312.5 437.5 l 1
 312.5 500 l 1
 250 500 l 1
 250 437.5 l 1025
250 375 m 1
 312.5 375 l 1
 312.5 437.5 l 1
 250 437.5 l 1
 250 375 l 1025
250 312.5 m 1
 312.5 312.5 l 1
 312.5 375 l 1
 250 375 l 1
 250 312.5 l 1025
250 250 m 1
 312.5 250 l 1
 312.5 312.5 l 1
 250 312.5 l 1
 250 250 l 1025
250 187.5 m 1
 312.5 187.5 l 1
 312.5 250 l 1
 250 250 l 1
 250 187.5 l 1025
250 125 m 1
 312.5 125 l 1
 312.5 187.5 l 1
 250 187.5 l 1
 250 125 l 1025
250 62.5 m 1
 312.5 62.5 l 1
 312.5 125 l 1
 250 125 l 1
 250 62.5 l 1025
0 0 m 1
 500 0 l 1
 500 62.5 l 1
 0 62.5 l 1
 0 0 l 1
EndSplineSet
EndChar

StartChar: j
Encoding: 106 106 105
Width: 500
VWidth: 0
Flags: HW
LayerCount: 2
Back
Fore
SplineSet
312.5 812.5 m 1
 437.5 812.5 l 1
 437.5 875 l 1
 312.5 875 l 1
 312.5 812.5 l 1025
312.5 750 m 1
 437.5 750 l 1
 437.5 812.5 l 1
 312.5 812.5 l 1
 312.5 750 l 1025
125 500 m 1
 437.5 500 l 1
 437.5 562.5 l 1
 125 562.5 l 1
 125 500 l 1025
375 437.5 m 1
 437.5 437.5 l 1
 437.5 500 l 1
 375 500 l 1
 375 437.5 l 1025
375 375 m 1
 437.5 375 l 1
 437.5 437.5 l 1
 375 437.5 l 1
 375 375 l 1025
375 312.5 m 1
 437.5 312.5 l 1
 437.5 375 l 1
 375 375 l 1
 375 312.5 l 1025
375 250 m 1
 437.5 250 l 1
 437.5 312.5 l 1
 375 312.5 l 1
 375 250 l 1025
375 187.5 m 1
 437.5 187.5 l 1
 437.5 250 l 1
 375 250 l 1
 375 187.5 l 1025
375 125 m 1
 437.5 125 l 1
 437.5 187.5 l 1
 375 187.5 l 1
 375 125 l 1025
0 62.5 m 1
 62.5 62.5 l 1
 62.5 125 l 1
 0 125 l 1
 0 62.5 l 1025
375 62.5 m 1
 437.5 62.5 l 1
 437.5 125 l 1
 375 125 l 1
 375 62.5 l 1025
0 0 m 1
 62.5 0 l 1
 62.5 62.5 l 1
 0 62.5 l 1
 0 0 l 1025
375 0 m 1
 437.5 0 l 1
 437.5 62.5 l 1
 375 62.5 l 1
 375 0 l 1025
62.5 -62.5 m 1
 125 -62.5 l 1
 125 0 l 1
 62.5 0 l 1
 62.5 -62.5 l 1025
312.5 -62.5 m 1
 375 -62.5 l 1
 375 0 l 1
 312.5 0 l 1
 312.5 -62.5 l 1025
125 -125 m 1
 312.5 -125 l 1
 312.5 -62.5 l 1
 125 -62.5 l 1
 125 -125 l 1
EndSplineSet
EndChar

StartChar: k
Encoding: 107 107 106
Width: 500
VWidth: 0
Flags: HW
LayerCount: 2
Back
Fore
SplineSet
0 750 m 1
 125 750 l 1
 125 812.5 l 1
 0 812.5 l 1
 0 750 l 1025
62.5 687.5 m 1
 125 687.5 l 1
 125 750 l 1
 62.5 750 l 1
 62.5 687.5 l 1025
62.5 625 m 1
 125 625 l 1
 125 687.5 l 1
 62.5 687.5 l 1
 62.5 625 l 1025
62.5 562.5 m 1
 125 562.5 l 1
 125 625 l 1
 62.5 625 l 1
 62.5 562.5 l 1025
62.5 500 m 1
 125 500 l 1
 125 562.5 l 1
 62.5 562.5 l 1
 62.5 500 l 1025
375 500 m 1
 437.5 500 l 1
 437.5 562.5 l 1
 375 562.5 l 1
 375 500 l 1025
62.5 437.5 m 1
 125 437.5 l 1
 125 500 l 1
 62.5 500 l 1
 62.5 437.5 l 1025
312.5 437.5 m 1
 375 437.5 l 1
 375 500 l 1
 312.5 500 l 1
 312.5 437.5 l 1025
62.5 375 m 1
 125 375 l 1
 125 437.5 l 1
 62.5 437.5 l 1
 62.5 375 l 1025
250 375 m 1
 312.5 375 l 1
 312.5 437.5 l 1
 250 437.5 l 1
 250 375 l 1025
62.5 312.5 m 1
 125 312.5 l 1
 125 375 l 1
 62.5 375 l 1
 62.5 312.5 l 1025
187.5 312.5 m 1
 312.5 312.5 l 1
 312.5 375 l 1
 187.5 375 l 1
 187.5 312.5 l 1025
62.5 250 m 1
 187.5 250 l 1
 187.5 312.5 l 1
 62.5 312.5 l 1
 62.5 250 l 1025
312.5 250 m 1
 375 250 l 1
 375 312.5 l 1
 312.5 312.5 l 1
 312.5 250 l 1025
62.5 187.5 m 1
 125 187.5 l 1
 125 250 l 1
 62.5 250 l 1
 62.5 187.5 l 1025
312.5 187.5 m 1
 375 187.5 l 1
 375 250 l 1
 312.5 250 l 1
 312.5 187.5 l 1025
62.5 125 m 1
 125 125 l 1
 125 187.5 l 1
 62.5 187.5 l 1
 62.5 125 l 1025
375 125 m 1
 437.5 125 l 1
 437.5 187.5 l 1
 375 187.5 l 1
 375 125 l 1025
62.5 62.5 m 1
 125 62.5 l 1
 125 125 l 1
 62.5 125 l 1
 62.5 62.5 l 1025
375 62.5 m 1
 437.5 62.5 l 1
 437.5 125 l 1
 375 125 l 1
 375 62.5 l 1025
0 0 m 1
 187.5 0 l 1
 187.5 62.5 l 1
 0 62.5 l 1
 0 0 l 1025
375 0 m 1
 500 0 l 1
 500 62.5 l 1
 375 62.5 l 1
 375 0 l 1
EndSplineSet
EndChar

StartChar: l
Encoding: 108 108 107
Width: 500
VWidth: 0
Flags: HW
LayerCount: 2
Back
Fore
SplineSet
62.5 750 m 1
 312.5 750 l 1
 312.5 812.5 l 1
 62.5 812.5 l 1
 62.5 750 l 1025
250 687.5 m 1
 312.5 687.5 l 1
 312.5 750 l 1
 250 750 l 1
 250 687.5 l 1025
250 625 m 1
 312.5 625 l 1
 312.5 687.5 l 1
 250 687.5 l 1
 250 625 l 1025
250 562.5 m 1
 312.5 562.5 l 1
 312.5 625 l 1
 250 625 l 1
 250 562.5 l 1025
250 500 m 1
 312.5 500 l 1
 312.5 562.5 l 1
 250 562.5 l 1
 250 500 l 1025
250 437.5 m 1
 312.5 437.5 l 1
 312.5 500 l 1
 250 500 l 1
 250 437.5 l 1025
250 375 m 1
 312.5 375 l 1
 312.5 437.5 l 1
 250 437.5 l 1
 250 375 l 1025
250 312.5 m 1
 312.5 312.5 l 1
 312.5 375 l 1
 250 375 l 1
 250 312.5 l 1025
250 250 m 1
 312.5 250 l 1
 312.5 312.5 l 1
 250 312.5 l 1
 250 250 l 1025
250 187.5 m 1
 312.5 187.5 l 1
 312.5 250 l 1
 250 250 l 1
 250 187.5 l 1025
250 125 m 1
 312.5 125 l 1
 312.5 187.5 l 1
 250 187.5 l 1
 250 125 l 1025
250 62.5 m 1
 312.5 62.5 l 1
 312.5 125 l 1
 250 125 l 1
 250 62.5 l 1025
0 0 m 1
 500 0 l 1
 500 62.5 l 1
 0 62.5 l 1
 0 0 l 1
EndSplineSet
EndChar

StartChar: m
Encoding: 109 109 108
Width: 500
VWidth: 0
Flags: HW
LayerCount: 2
Back
Fore
SplineSet
62.5 500 m 1
 187.5 500 l 1
 187.5 562.5 l 1
 62.5 562.5 l 1
 62.5 500 l 1025
250 500 m 1
 375 500 l 1
 375 562.5 l 1
 250 562.5 l 1
 250 500 l 1025
0 437.5 m 1
 62.5 437.5 l 1
 62.5 500 l 1
 0 500 l 1
 0 437.5 l 1025
187.5 437.5 m 1
 250 437.5 l 1
 250 500 l 1
 187.5 500 l 1
 187.5 437.5 l 1025
375 437.5 m 1
 437.5 437.5 l 1
 437.5 500 l 1
 375 500 l 1
 375 437.5 l 1025
0 375 m 1
 62.5 375 l 1
 62.5 437.5 l 1
 0 437.5 l 1
 0 375 l 1025
187.5 375 m 1
 250 375 l 1
 250 437.5 l 1
 187.5 437.5 l 1
 187.5 375 l 1025
375 375 m 1
 437.5 375 l 1
 437.5 437.5 l 1
 375 437.5 l 1
 375 375 l 1025
0 312.5 m 1
 62.5 312.5 l 1
 62.5 375 l 1
 0 375 l 1
 0 312.5 l 1025
187.5 312.5 m 1
 250 312.5 l 1
 250 375 l 1
 187.5 375 l 1
 187.5 312.5 l 1025
375 312.5 m 1
 437.5 312.5 l 1
 437.5 375 l 1
 375 375 l 1
 375 312.5 l 1025
0 250 m 1
 62.5 250 l 1
 62.5 312.5 l 1
 0 312.5 l 1
 0 250 l 1025
187.5 250 m 1
 250 250 l 1
 250 312.5 l 1
 187.5 312.5 l 1
 187.5 250 l 1025
375 250 m 1
 437.5 250 l 1
 437.5 312.5 l 1
 375 312.5 l 1
 375 250 l 1025
0 187.5 m 1
 62.5 187.5 l 1
 62.5 250 l 1
 0 250 l 1
 0 187.5 l 1025
187.5 187.5 m 1
 250 187.5 l 1
 250 250 l 1
 187.5 250 l 1
 187.5 187.5 l 1025
375 187.5 m 1
 437.5 187.5 l 1
 437.5 250 l 1
 375 250 l 1
 375 187.5 l 1025
0 125 m 1
 62.5 125 l 1
 62.5 187.5 l 1
 0 187.5 l 1
 0 125 l 1025
187.5 125 m 1
 250 125 l 1
 250 187.5 l 1
 187.5 187.5 l 1
 187.5 125 l 1025
375 125 m 1
 437.5 125 l 1
 437.5 187.5 l 1
 375 187.5 l 1
 375 125 l 1025
0 62.5 m 1
 62.5 62.5 l 1
 62.5 125 l 1
 0 125 l 1
 0 62.5 l 1025
187.5 62.5 m 1
 250 62.5 l 1
 250 125 l 1
 187.5 125 l 1
 187.5 62.5 l 1025
375 62.5 m 1
 437.5 62.5 l 1
 437.5 125 l 1
 375 125 l 1
 375 62.5 l 1025
0 0 m 1
 125 0 l 1
 125 62.5 l 1
 0 62.5 l 1
 0 0 l 1025
187.5 0 m 1
 312.5 0 l 1
 312.5 62.5 l 1
 187.5 62.5 l 1
 187.5 0 l 1025
375 0 m 1
 500 0 l 1
 500 62.5 l 1
 375 62.5 l 1
 375 0 l 1
EndSplineSet
EndChar

StartChar: n
Encoding: 110 110 109
Width: 500
VWidth: 0
Flags: HW
LayerCount: 2
Back
Fore
SplineSet
0 500 m 1
 125 500 l 1
 125 562.5 l 1
 0 562.5 l 1
 0 500 l 1025
187.5 500 m 1
 375 500 l 1
 375 562.5 l 1
 187.5 562.5 l 1
 187.5 500 l 1025
62.5 437.5 m 1
 187.5 437.5 l 1
 187.5 500 l 1
 62.5 500 l 1
 62.5 437.5 l 1025
375 437.5 m 1
 437.5 437.5 l 1
 437.5 500 l 1
 375 500 l 1
 375 437.5 l 1025
62.5 375 m 1
 125 375 l 1
 125 437.5 l 1
 62.5 437.5 l 1
 62.5 375 l 1025
375 375 m 1
 437.5 375 l 1
 437.5 437.5 l 1
 375 437.5 l 1
 375 375 l 1025
62.5 312.5 m 1
 125 312.5 l 1
 125 375 l 1
 62.5 375 l 1
 62.5 312.5 l 1025
375 312.5 m 1
 437.5 312.5 l 1
 437.5 375 l 1
 375 375 l 1
 375 312.5 l 1025
62.5 250 m 1
 125 250 l 1
 125 312.5 l 1
 62.5 312.5 l 1
 62.5 250 l 1025
375 250 m 1
 437.5 250 l 1
 437.5 312.5 l 1
 375 312.5 l 1
 375 250 l 1025
62.5 187.5 m 1
 125 187.5 l 1
 125 250 l 1
 62.5 250 l 1
 62.5 187.5 l 1025
375 187.5 m 1
 437.5 187.5 l 1
 437.5 250 l 1
 375 250 l 1
 375 187.5 l 1025
62.5 125 m 1
 125 125 l 1
 125 187.5 l 1
 62.5 187.5 l 1
 62.5 125 l 1025
375 125 m 1
 437.5 125 l 1
 437.5 187.5 l 1
 375 187.5 l 1
 375 125 l 1025
62.5 62.5 m 1
 125 62.5 l 1
 125 125 l 1
 62.5 125 l 1
 62.5 62.5 l 1025
375 62.5 m 1
 437.5 62.5 l 1
 437.5 125 l 1
 375 125 l 1
 375 62.5 l 1025
0 0 m 1
 187.5 0 l 1
 187.5 62.5 l 1
 0 62.5 l 1
 0 0 l 1025
312.5 0 m 1
 500 0 l 1
 500 62.5 l 1
 312.5 62.5 l 1
 312.5 0 l 1
EndSplineSet
EndChar

StartChar: o
Encoding: 111 111 110
Width: 500
VWidth: 0
Flags: HW
LayerCount: 2
Back
Fore
SplineSet
125 500 m 1
 312.5 500 l 1
 312.5 562.5 l 1
 125 562.5 l 1
 125 500 l 1025
62.5 437.5 m 1
 125 437.5 l 1
 125 500 l 1
 62.5 500 l 1
 62.5 437.5 l 1025
312.5 437.5 m 1
 375 437.5 l 1
 375 500 l 1
 312.5 500 l 1
 312.5 437.5 l 1025
0 375 m 1
 62.5 375 l 1
 62.5 437.5 l 1
 0 437.5 l 1
 0 375 l 1025
375 375 m 1
 437.5 375 l 1
 437.5 437.5 l 1
 375 437.5 l 1
 375 375 l 1025
0 312.5 m 1
 62.5 312.5 l 1
 62.5 375 l 1
 0 375 l 1
 0 312.5 l 1025
375 312.5 m 1
 437.5 312.5 l 1
 437.5 375 l 1
 375 375 l 1
 375 312.5 l 1025
0 250 m 1
 62.5 250 l 1
 62.5 312.5 l 1
 0 312.5 l 1
 0 250 l 1025
375 250 m 1
 437.5 250 l 1
 437.5 312.5 l 1
 375 312.5 l 1
 375 250 l 1025
0 187.5 m 1
 62.5 187.5 l 1
 62.5 250 l 1
 0 250 l 1
 0 187.5 l 1025
375 187.5 m 1
 437.5 187.5 l 1
 437.5 250 l 1
 375 250 l 1
 375 187.5 l 1025
0 125 m 1
 62.5 125 l 1
 62.5 187.5 l 1
 0 187.5 l 1
 0 125 l 1025
375 125 m 1
 437.5 125 l 1
 437.5 187.5 l 1
 375 187.5 l 1
 375 125 l 1025
62.5 62.5 m 1
 125 62.5 l 1
 125 125 l 1
 62.5 125 l 1
 62.5 62.5 l 1025
312.5 62.5 m 1
 375 62.5 l 1
 375 125 l 1
 312.5 125 l 1
 312.5 62.5 l 1025
125 0 m 1
 312.5 0 l 1
 312.5 62.5 l 1
 125 62.5 l 1
 125 0 l 1
EndSplineSet
EndChar

StartChar: p
Encoding: 112 112 111
Width: 500
VWidth: 0
Flags: HW
LayerCount: 2
Back
Fore
SplineSet
0 500 m 1
 312.5 500 l 1
 312.5 562.5 l 1
 0 562.5 l 1
 0 500 l 1025
62.5 437.5 m 1
 125 437.5 l 1
 125 500 l 1
 62.5 500 l 1
 62.5 437.5 l 1025
312.5 437.5 m 1
 375 437.5 l 1
 375 500 l 1
 312.5 500 l 1
 312.5 437.5 l 1025
62.5 375 m 1
 125 375 l 1
 125 437.5 l 1
 62.5 437.5 l 1
 62.5 375 l 1025
375 375 m 1
 437.5 375 l 1
 437.5 437.5 l 1
 375 437.5 l 1
 375 375 l 1025
62.5 312.5 m 1
 125 312.5 l 1
 125 375 l 1
 62.5 375 l 1
 62.5 312.5 l 1025
375 312.5 m 1
 437.5 312.5 l 1
 437.5 375 l 1
 375 375 l 1
 375 312.5 l 1025
62.5 250 m 1
 125 250 l 1
 125 312.5 l 1
 62.5 312.5 l 1
 62.5 250 l 1025
375 250 m 1
 437.5 250 l 1
 437.5 312.5 l 1
 375 312.5 l 1
 375 250 l 1025
62.5 187.5 m 1
 125 187.5 l 1
 125 250 l 1
 62.5 250 l 1
 62.5 187.5 l 1025
375 187.5 m 1
 437.5 187.5 l 1
 437.5 250 l 1
 375 250 l 1
 375 187.5 l 1025
62.5 125 m 1
 125 125 l 1
 125 187.5 l 1
 62.5 187.5 l 1
 62.5 125 l 1025
312.5 125 m 1
 375 125 l 1
 375 187.5 l 1
 312.5 187.5 l 1
 312.5 125 l 1025
62.5 62.5 m 1
 312.5 62.5 l 1
 312.5 125 l 1
 62.5 125 l 1
 62.5 62.5 l 1025
62.5 0 m 1
 125 0 l 1
 125 62.5 l 1
 62.5 62.5 l 1
 62.5 0 l 1025
62.5 -62.5 m 1
 125 -62.5 l 1
 125 0 l 1
 62.5 0 l 1
 62.5 -62.5 l 1025
0 -125 m 1
 250 -125 l 1
 250 -62.5 l 1
 0 -62.5 l 1
 0 -125 l 1
EndSplineSet
EndChar

StartChar: q
Encoding: 113 113 112
Width: 500
VWidth: 0
Flags: HW
LayerCount: 2
Back
Fore
SplineSet
125 500 m 1
 437.5 500 l 1
 437.5 562.5 l 1
 125 562.5 l 1
 125 500 l 1025
62.5 437.5 m 1
 125 437.5 l 1
 125 500 l 1
 62.5 500 l 1
 62.5 437.5 l 1025
312.5 437.5 m 1
 375 437.5 l 1
 375 500 l 1
 312.5 500 l 1
 312.5 437.5 l 1025
0 375 m 1
 62.5 375 l 1
 62.5 437.5 l 1
 0 437.5 l 1
 0 375 l 1025
312.5 375 m 1
 375 375 l 1
 375 437.5 l 1
 312.5 437.5 l 1
 312.5 375 l 1025
0 312.5 m 1
 62.5 312.5 l 1
 62.5 375 l 1
 0 375 l 1
 0 312.5 l 1025
312.5 312.5 m 1
 375 312.5 l 1
 375 375 l 1
 312.5 375 l 1
 312.5 312.5 l 1025
0 250 m 1
 62.5 250 l 1
 62.5 312.5 l 1
 0 312.5 l 1
 0 250 l 1025
312.5 250 m 1
 375 250 l 1
 375 312.5 l 1
 312.5 312.5 l 1
 312.5 250 l 1025
0 187.5 m 1
 62.5 187.5 l 1
 62.5 250 l 1
 0 250 l 1
 0 187.5 l 1025
312.5 187.5 m 1
 375 187.5 l 1
 375 250 l 1
 312.5 250 l 1
 312.5 187.5 l 1025
62.5 125 m 1
 125 125 l 1
 125 187.5 l 1
 62.5 187.5 l 1
 62.5 125 l 1025
312.5 125 m 1
 375 125 l 1
 375 187.5 l 1
 312.5 187.5 l 1
 312.5 125 l 1025
125 62.5 m 1
 375 62.5 l 1
 375 125 l 1
 125 125 l 1
 125 62.5 l 1025
312.5 0 m 1
 375 0 l 1
 375 62.5 l 1
 312.5 62.5 l 1
 312.5 0 l 1025
312.5 -62.5 m 1
 375 -62.5 l 1
 375 0 l 1
 312.5 0 l 1
 312.5 -62.5 l 1025
187.5 -125 m 1
 437.5 -125 l 1
 437.5 -62.5 l 1
 187.5 -62.5 l 1
 187.5 -125 l 1
EndSplineSet
EndChar

StartChar: r
Encoding: 114 114 113
Width: 500
VWidth: 0
Flags: HW
LayerCount: 2
Back
Fore
SplineSet
0 500 m 1
 187.5 500 l 1
 187.5 562.5 l 1
 0 562.5 l 1
 0 500 l 1025
250 500 m 1
 375 500 l 1
 375 562.5 l 1
 250 562.5 l 1
 250 500 l 1025
125 437.5 m 1
 250 437.5 l 1
 250 500 l 1
 125 500 l 1
 125 437.5 l 1025
375 437.5 m 1
 437.5 437.5 l 1
 437.5 500 l 1
 375 500 l 1
 375 437.5 l 1025
125 375 m 1
 187.5 375 l 1
 187.5 437.5 l 1
 125 437.5 l 1
 125 375 l 1025
375 375 m 1
 437.5 375 l 1
 437.5 437.5 l 1
 375 437.5 l 1
 375 375 l 1025
125 312.5 m 1
 187.5 312.5 l 1
 187.5 375 l 1
 125 375 l 1
 125 312.5 l 1025
125 250 m 1
 187.5 250 l 1
 187.5 312.5 l 1
 125 312.5 l 1
 125 250 l 1025
125 187.5 m 1
 187.5 187.5 l 1
 187.5 250 l 1
 125 250 l 1
 125 187.5 l 1025
125 125 m 1
 187.5 125 l 1
 187.5 187.5 l 1
 125 187.5 l 1
 125 125 l 1025
125 62.5 m 1
 187.5 62.5 l 1
 187.5 125 l 1
 125 125 l 1
 125 62.5 l 1025
0 0 m 1
 375 0 l 1
 375 62.5 l 1
 0 62.5 l 1
 0 0 l 1
EndSplineSet
EndChar

StartChar: s
Encoding: 115 115 114
Width: 500
VWidth: 0
Flags: HW
LayerCount: 2
Back
Fore
SplineSet
125 500 m 1
 312.5 500 l 1
 312.5 562.5 l 1
 125 562.5 l 1
 125 500 l 1025
375 500 m 1
 437.5 500 l 1
 437.5 562.5 l 1
 375 562.5 l 1
 375 500 l 1025
62.5 437.5 m 1
 125 437.5 l 1
 125 500 l 1
 62.5 500 l 1
 62.5 437.5 l 1025
312.5 437.5 m 1
 437.5 437.5 l 1
 437.5 500 l 1
 312.5 500 l 1
 312.5 437.5 l 1025
62.5 375 m 1
 125 375 l 1
 125 437.5 l 1
 62.5 437.5 l 1
 62.5 375 l 1025
375 375 m 1
 437.5 375 l 1
 437.5 437.5 l 1
 375 437.5 l 1
 375 375 l 1025
62.5 312.5 m 1
 125 312.5 l 1
 125 375 l 1
 62.5 375 l 1
 62.5 312.5 l 1025
125 250 m 1
 375 250 l 1
 375 312.5 l 1
 125 312.5 l 1
 125 250 l 1025
375 187.5 m 1
 437.5 187.5 l 1
 437.5 250 l 1
 375 250 l 1
 375 187.5 l 1025
0 125 m 1
 62.5 125 l 1
 62.5 187.5 l 1
 0 187.5 l 1
 0 125 l 1025
375 125 m 1
 437.5 125 l 1
 437.5 187.5 l 1
 375 187.5 l 1
 375 125 l 1025
0 62.5 m 1
 125 62.5 l 1
 125 125 l 1
 0 125 l 1
 0 62.5 l 1025
375 62.5 m 1
 437.5 62.5 l 1
 437.5 125 l 1
 375 125 l 1
 375 62.5 l 1025
0 0 m 1
 62.5 0 l 1
 62.5 62.5 l 1
 0 62.5 l 1
 0 0 l 1025
125 0 m 1
 375 0 l 1
 375 62.5 l 1
 125 62.5 l 1
 125 0 l 1
EndSplineSet
EndChar

StartChar: t
Encoding: 116 116 115
Width: 500
VWidth: 0
Flags: HW
LayerCount: 2
Back
Fore
SplineSet
125 687.5 m 1
 187.5 687.5 l 1
 187.5 750 l 1
 125 750 l 1
 125 687.5 l 1025
125 625 m 1
 187.5 625 l 1
 187.5 687.5 l 1
 125 687.5 l 1
 125 625 l 1025
125 562.5 m 1
 187.5 562.5 l 1
 187.5 625 l 1
 125 625 l 1
 125 562.5 l 1025
0 500 m 1
 375 500 l 1
 375 562.5 l 1
 0 562.5 l 1
 0 500 l 1025
125 437.5 m 1
 187.5 437.5 l 1
 187.5 500 l 1
 125 500 l 1
 125 437.5 l 1025
125 375 m 1
 187.5 375 l 1
 187.5 437.5 l 1
 125 437.5 l 1
 125 375 l 1025
125 312.5 m 1
 187.5 312.5 l 1
 187.5 375 l 1
 125 375 l 1
 125 312.5 l 1025
125 250 m 1
 187.5 250 l 1
 187.5 312.5 l 1
 125 312.5 l 1
 125 250 l 1025
125 187.5 m 1
 187.5 187.5 l 1
 187.5 250 l 1
 125 250 l 1
 125 187.5 l 1025
125 125 m 1
 187.5 125 l 1
 187.5 187.5 l 1
 125 187.5 l 1
 125 125 l 1025
375 125 m 1
 437.5 125 l 1
 437.5 187.5 l 1
 375 187.5 l 1
 375 125 l 1025
125 62.5 m 1
 187.5 62.5 l 1
 187.5 125 l 1
 125 125 l 1
 125 62.5 l 1025
375 62.5 m 1
 437.5 62.5 l 1
 437.5 125 l 1
 375 125 l 1
 375 62.5 l 1025
187.5 0 m 1
 375 0 l 1
 375 62.5 l 1
 187.5 62.5 l 1
 187.5 0 l 1
EndSplineSet
EndChar

StartChar: u
Encoding: 117 117 116
Width: 500
VWidth: 0
Flags: HW
LayerCount: 2
Back
Fore
SplineSet
0 500 m 1
 125 500 l 1
 125 562.5 l 1
 0 562.5 l 1
 0 500 l 1025
312.5 500 m 1
 437.5 500 l 1
 437.5 562.5 l 1
 312.5 562.5 l 1
 312.5 500 l 1025
62.5 437.5 m 1
 125 437.5 l 1
 125 500 l 1
 62.5 500 l 1
 62.5 437.5 l 1025
375 437.5 m 1
 437.5 437.5 l 1
 437.5 500 l 1
 375 500 l 1
 375 437.5 l 1025
62.5 375 m 1
 125 375 l 1
 125 437.5 l 1
 62.5 437.5 l 1
 62.5 375 l 1025
375 375 m 1
 437.5 375 l 1
 437.5 437.5 l 1
 375 437.5 l 1
 375 375 l 1025
62.5 312.5 m 1
 125 312.5 l 1
 125 375 l 1
 62.5 375 l 1
 62.5 312.5 l 1025
375 312.5 m 1
 437.5 312.5 l 1
 437.5 375 l 1
 375 375 l 1
 375 312.5 l 1025
62.5 250 m 1
 125 250 l 1
 125 312.5 l 1
 62.5 312.5 l 1
 62.5 250 l 1025
375 250 m 1
 437.5 250 l 1
 437.5 312.5 l 1
 375 312.5 l 1
 375 250 l 1025
62.5 187.5 m 1
 125 187.5 l 1
 125 250 l 1
 62.5 250 l 1
 62.5 187.5 l 1025
375 187.5 m 1
 437.5 187.5 l 1
 437.5 250 l 1
 375 250 l 1
 375 187.5 l 1025
62.5 125 m 1
 125 125 l 1
 125 187.5 l 1
 62.5 187.5 l 1
 62.5 125 l 1025
375 125 m 1
 437.5 125 l 1
 437.5 187.5 l 1
 375 187.5 l 1
 375 125 l 1025
62.5 62.5 m 1
 125 62.5 l 1
 125 125 l 1
 62.5 125 l 1
 62.5 62.5 l 1025
312.5 62.5 m 1
 437.5 62.5 l 1
 437.5 125 l 1
 312.5 125 l 1
 312.5 62.5 l 1025
125 0 m 1
 312.5 0 l 1
 312.5 62.5 l 1
 125 62.5 l 1
 125 0 l 1025
437.5 0 m 1
 500 0 l 1
 500 62.5 l 1
 437.5 62.5 l 1
 437.5 0 l 1
EndSplineSet
EndChar

StartChar: v
Encoding: 118 118 117
Width: 500
VWidth: 0
Flags: HW
LayerCount: 2
Back
Fore
SplineSet
0 500 m 1
 125 500 l 1
 125 562.5 l 1
 0 562.5 l 1
 0 500 l 1025
312.5 500 m 1
 437.5 500 l 1
 437.5 562.5 l 1
 312.5 562.5 l 1
 312.5 500 l 1025
0 437.5 m 1
 62.5 437.5 l 1
 62.5 500 l 1
 0 500 l 1
 0 437.5 l 1025
375 437.5 m 1
 437.5 437.5 l 1
 437.5 500 l 1
 375 500 l 1
 375 437.5 l 1025
0 375 m 1
 62.5 375 l 1
 62.5 437.5 l 1
 0 437.5 l 1
 0 375 l 1025
375 375 m 1
 437.5 375 l 1
 437.5 437.5 l 1
 375 437.5 l 1
 375 375 l 1025
62.5 312.5 m 1
 125 312.5 l 1
 125 375 l 1
 62.5 375 l 1
 62.5 312.5 l 1025
312.5 312.5 m 1
 375 312.5 l 1
 375 375 l 1
 312.5 375 l 1
 312.5 312.5 l 1025
62.5 250 m 1
 125 250 l 1
 125 312.5 l 1
 62.5 312.5 l 1
 62.5 250 l 1025
312.5 250 m 1
 375 250 l 1
 375 312.5 l 1
 312.5 312.5 l 1
 312.5 250 l 1025
62.5 187.5 m 1
 125 187.5 l 1
 125 250 l 1
 62.5 250 l 1
 62.5 187.5 l 1025
312.5 187.5 m 1
 375 187.5 l 1
 375 250 l 1
 312.5 250 l 1
 312.5 187.5 l 1025
125 125 m 1
 187.5 125 l 1
 187.5 187.5 l 1
 125 187.5 l 1
 125 125 l 1025
250 125 m 1
 312.5 125 l 1
 312.5 187.5 l 1
 250 187.5 l 1
 250 125 l 1025
125 62.5 m 1
 187.5 62.5 l 1
 187.5 125 l 1
 125 125 l 1
 125 62.5 l 1025
250 62.5 m 1
 312.5 62.5 l 1
 312.5 125 l 1
 250 125 l 1
 250 62.5 l 1025
187.5 0 m 1
 250 0 l 1
 250 62.5 l 1
 187.5 62.5 l 1
 187.5 0 l 1
EndSplineSet
EndChar

StartChar: w
Encoding: 119 119 118
Width: 500
VWidth: 0
Flags: HW
LayerCount: 2
Back
Fore
SplineSet
0 500 m 1
 62.5 500 l 1
 62.5 562.5 l 1
 0 562.5 l 1
 0 500 l 1025
187.5 500 m 1
 250 500 l 1
 250 562.5 l 1
 187.5 562.5 l 1
 187.5 500 l 1025
375 500 m 1
 437.5 500 l 1
 437.5 562.5 l 1
 375 562.5 l 1
 375 500 l 1025
0 437.5 m 1
 62.5 437.5 l 1
 62.5 500 l 1
 0 500 l 1
 0 437.5 l 1025
187.5 437.5 m 1
 250 437.5 l 1
 250 500 l 1
 187.5 500 l 1
 187.5 437.5 l 1025
375 437.5 m 1
 437.5 437.5 l 1
 437.5 500 l 1
 375 500 l 1
 375 437.5 l 1025
0 375 m 1
 62.5 375 l 1
 62.5 437.5 l 1
 0 437.5 l 1
 0 375 l 1025
187.5 375 m 1
 250 375 l 1
 250 437.5 l 1
 187.5 437.5 l 1
 187.5 375 l 1025
375 375 m 1
 437.5 375 l 1
 437.5 437.5 l 1
 375 437.5 l 1
 375 375 l 1025
0 312.5 m 1
 62.5 312.5 l 1
 62.5 375 l 1
 0 375 l 1
 0 312.5 l 1025
187.5 312.5 m 1
 250 312.5 l 1
 250 375 l 1
 187.5 375 l 1
 187.5 312.5 l 1025
375 312.5 m 1
 437.5 312.5 l 1
 437.5 375 l 1
 375 375 l 1
 375 312.5 l 1025
0 250 m 1
 62.5 250 l 1
 62.5 312.5 l 1
 0 312.5 l 1
 0 250 l 1025
125 250 m 1
 187.5 250 l 1
 187.5 312.5 l 1
 125 312.5 l 1
 125 250 l 1025
250 250 m 1
 312.5 250 l 1
 312.5 312.5 l 1
 250 312.5 l 1
 250 250 l 1025
375 250 m 1
 437.5 250 l 1
 437.5 312.5 l 1
 375 312.5 l 1
 375 250 l 1025
0 187.5 m 1
 62.5 187.5 l 1
 62.5 250 l 1
 0 250 l 1
 0 187.5 l 1025
125 187.5 m 1
 187.5 187.5 l 1
 187.5 250 l 1
 125 250 l 1
 125 187.5 l 1025
250 187.5 m 1
 312.5 187.5 l 1
 312.5 250 l 1
 250 250 l 1
 250 187.5 l 1025
375 187.5 m 1
 437.5 187.5 l 1
 437.5 250 l 1
 375 250 l 1
 375 187.5 l 1025
62.5 125 m 1
 125 125 l 1
 125 187.5 l 1
 62.5 187.5 l 1
 62.5 125 l 1025
312.5 125 m 1
 375 125 l 1
 375 187.5 l 1
 312.5 187.5 l 1
 312.5 125 l 1025
62.5 62.5 m 1
 125 62.5 l 1
 125 125 l 1
 62.5 125 l 1
 62.5 62.5 l 1025
312.5 62.5 m 1
 375 62.5 l 1
 375 125 l 1
 312.5 125 l 1
 312.5 62.5 l 1025
62.5 0 m 1
 125 0 l 1
 125 62.5 l 1
 62.5 62.5 l 1
 62.5 0 l 1025
312.5 0 m 1
 375 0 l 1
 375 62.5 l 1
 312.5 62.5 l 1
 312.5 0 l 1
EndSplineSet
EndChar

StartChar: x
Encoding: 120 120 119
Width: 500
VWidth: 0
Flags: HW
LayerCount: 2
Back
Fore
SplineSet
0 500 m 1
 187.5 500 l 1
 187.5 562.5 l 1
 0 562.5 l 1
 0 500 l 1025
250 500 m 1
 437.5 500 l 1
 437.5 562.5 l 1
 250 562.5 l 1
 250 500 l 1025
62.5 437.5 m 1
 125 437.5 l 1
 125 500 l 1
 62.5 500 l 1
 62.5 437.5 l 1025
312.5 437.5 m 1
 375 437.5 l 1
 375 500 l 1
 312.5 500 l 1
 312.5 437.5 l 1025
125 375 m 1
 187.5 375 l 1
 187.5 437.5 l 1
 125 437.5 l 1
 125 375 l 1025
250 375 m 1
 312.5 375 l 1
 312.5 437.5 l 1
 250 437.5 l 1
 250 375 l 1025
125 312.5 m 1
 187.5 312.5 l 1
 187.5 375 l 1
 125 375 l 1
 125 312.5 l 1025
250 312.5 m 1
 312.5 312.5 l 1
 312.5 375 l 1
 250 375 l 1
 250 312.5 l 1025
187.5 250 m 1
 250 250 l 1
 250 312.5 l 1
 187.5 312.5 l 1
 187.5 250 l 1025
125 187.5 m 1
 187.5 187.5 l 1
 187.5 250 l 1
 125 250 l 1
 125 187.5 l 1025
250 187.5 m 1
 312.5 187.5 l 1
 312.5 250 l 1
 250 250 l 1
 250 187.5 l 1025
125 125 m 1
 187.5 125 l 1
 187.5 187.5 l 1
 125 187.5 l 1
 125 125 l 1025
250 125 m 1
 312.5 125 l 1
 312.5 187.5 l 1
 250 187.5 l 1
 250 125 l 1025
62.5 62.5 m 1
 125 62.5 l 1
 125 125 l 1
 62.5 125 l 1
 62.5 62.5 l 1025
312.5 62.5 m 1
 375 62.5 l 1
 375 125 l 1
 312.5 125 l 1
 312.5 62.5 l 1025
0 0 m 1
 187.5 0 l 1
 187.5 62.5 l 1
 0 62.5 l 1
 0 0 l 1025
250 0 m 1
 437.5 0 l 1
 437.5 62.5 l 1
 250 62.5 l 1
 250 0 l 1
EndSplineSet
EndChar

StartChar: y
Encoding: 121 121 120
Width: 500
VWidth: 0
Flags: HW
LayerCount: 2
Back
Fore
SplineSet
0 500 m 1
 187.5 500 l 1
 187.5 562.5 l 1
 0 562.5 l 1
 0 500 l 1025
312.5 500 m 1
 500 500 l 1
 500 562.5 l 1
 312.5 562.5 l 1
 312.5 500 l 1025
62.5 437.5 m 1
 125 437.5 l 1
 125 500 l 1
 62.5 500 l 1
 62.5 437.5 l 1025
375 437.5 m 1
 437.5 437.5 l 1
 437.5 500 l 1
 375 500 l 1
 375 437.5 l 1025
125 375 m 1
 187.5 375 l 1
 187.5 437.5 l 1
 125 437.5 l 1
 125 375 l 1025
375 375 m 1
 437.5 375 l 1
 437.5 437.5 l 1
 375 437.5 l 1
 375 375 l 1025
125 312.5 m 1
 187.5 312.5 l 1
 187.5 375 l 1
 125 375 l 1
 125 312.5 l 1025
312.5 312.5 m 1
 375 312.5 l 1
 375 375 l 1
 312.5 375 l 1
 312.5 312.5 l 1025
187.5 250 m 1
 250 250 l 1
 250 312.5 l 1
 187.5 312.5 l 1
 187.5 250 l 1025
312.5 250 m 1
 375 250 l 1
 375 312.5 l 1
 312.5 312.5 l 1
 312.5 250 l 1025
250 187.5 m 1
 312.5 187.5 l 1
 312.5 250 l 1
 250 250 l 1
 250 187.5 l 1025
250 125 m 1
 312.5 125 l 1
 312.5 187.5 l 1
 250 187.5 l 1
 250 125 l 1025
187.5 62.5 m 1
 250 62.5 l 1
 250 125 l 1
 187.5 125 l 1
 187.5 62.5 l 1025
0 0 m 1
 62.5 0 l 1
 62.5 62.5 l 1
 0 62.5 l 1
 0 0 l 1025
187.5 0 m 1
 250 0 l 1
 250 62.5 l 1
 187.5 62.5 l 1
 187.5 0 l 1025
0 -62.5 m 1
 62.5 -62.5 l 1
 62.5 0 l 1
 0 0 l 1
 0 -62.5 l 1025
125 -62.5 m 1
 187.5 -62.5 l 1
 187.5 0 l 1
 125 0 l 1
 125 -62.5 l 1025
62.5 -125 m 1
 125 -125 l 1
 125 -62.5 l 1
 62.5 -62.5 l 1
 62.5 -125 l 1
EndSplineSet
EndChar

StartChar: z
Encoding: 122 122 121
Width: 500
VWidth: 0
Flags: HW
LayerCount: 2
Back
Fore
SplineSet
62.5 500 m 1
 437.5 500 l 1
 437.5 562.5 l 1
 62.5 562.5 l 1
 62.5 500 l 1025
62.5 437.5 m 1
 125 437.5 l 1
 125 500 l 1
 62.5 500 l 1
 62.5 437.5 l 1025
312.5 437.5 m 1
 375 437.5 l 1
 375 500 l 1
 312.5 500 l 1
 312.5 437.5 l 1025
250 375 m 1
 312.5 375 l 1
 312.5 437.5 l 1
 250 437.5 l 1
 250 375 l 1025
250 312.5 m 1
 312.5 312.5 l 1
 312.5 375 l 1
 250 375 l 1
 250 312.5 l 1025
187.5 250 m 1
 250 250 l 1
 250 312.5 l 1
 187.5 312.5 l 1
 187.5 250 l 1025
187.5 187.5 m 1
 250 187.5 l 1
 250 250 l 1
 187.5 250 l 1
 187.5 187.5 l 1025
125 125 m 1
 187.5 125 l 1
 187.5 187.5 l 1
 125 187.5 l 1
 125 125 l 1025
375 125 m 1
 437.5 125 l 1
 437.5 187.5 l 1
 375 187.5 l 1
 375 125 l 1025
62.5 62.5 m 1
 125 62.5 l 1
 125 125 l 1
 62.5 125 l 1
 62.5 62.5 l 1025
375 62.5 m 1
 437.5 62.5 l 1
 437.5 125 l 1
 375 125 l 1
 375 62.5 l 1025
0 0 m 1
 437.5 0 l 1
 437.5 62.5 l 1
 0 62.5 l 1
 0 0 l 1
EndSplineSet
EndChar

StartChar: braceleft
Encoding: 123 123 122
Width: 500
VWidth: 0
Flags: HW
LayerCount: 2
Back
Fore
SplineSet
312.5 812.5 m 1
 437.5 812.5 l 1
 437.5 875 l 1
 312.5 875 l 1
 312.5 812.5 l 1025
250 750 m 1
 312.5 750 l 1
 312.5 812.5 l 1
 250 812.5 l 1
 250 750 l 1025
250 687.5 m 1
 312.5 687.5 l 1
 312.5 750 l 1
 250 750 l 1
 250 687.5 l 1025
250 625 m 1
 312.5 625 l 1
 312.5 687.5 l 1
 250 687.5 l 1
 250 625 l 1025
250 562.5 m 1
 312.5 562.5 l 1
 312.5 625 l 1
 250 625 l 1
 250 562.5 l 1025
250 500 m 1
 312.5 500 l 1
 312.5 562.5 l 1
 250 562.5 l 1
 250 500 l 1025
187.5 437.5 m 1
 250 437.5 l 1
 250 500 l 1
 187.5 500 l 1
 187.5 437.5 l 1025
125 375 m 1
 187.5 375 l 1
 187.5 437.5 l 1
 125 437.5 l 1
 125 375 l 1025
187.5 312.5 m 1
 250 312.5 l 1
 250 375 l 1
 187.5 375 l 1
 187.5 312.5 l 1025
250 250 m 1
 312.5 250 l 1
 312.5 312.5 l 1
 250 312.5 l 1
 250 250 l 1025
250 187.5 m 1
 312.5 187.5 l 1
 312.5 250 l 1
 250 250 l 1
 250 187.5 l 1025
250 125 m 1
 312.5 125 l 1
 312.5 187.5 l 1
 250 187.5 l 1
 250 125 l 1025
250 62.5 m 1
 312.5 62.5 l 1
 312.5 125 l 1
 250 125 l 1
 250 62.5 l 1025
250 0 m 1
 312.5 0 l 1
 312.5 62.5 l 1
 250 62.5 l 1
 250 0 l 1025
250 -62.5 m 1
 312.5 -62.5 l 1
 312.5 0 l 1
 250 0 l 1
 250 -62.5 l 1025
312.5 -125 m 1
 437.5 -125 l 1
 437.5 -62.5 l 1
 312.5 -62.5 l 1
 312.5 -125 l 1
EndSplineSet
EndChar

StartChar: bar
Encoding: 124 124 123
Width: 500
VWidth: 0
Flags: HW
LayerCount: 2
Back
Fore
SplineSet
187.5 812.5 m 1
 250 812.5 l 1
 250 875 l 1
 187.5 875 l 1
 187.5 812.5 l 1025
187.5 750 m 1
 250 750 l 1
 250 812.5 l 1
 187.5 812.5 l 1
 187.5 750 l 1025
187.5 687.5 m 1
 250 687.5 l 1
 250 750 l 1
 187.5 750 l 1
 187.5 687.5 l 1025
187.5 625 m 1
 250 625 l 1
 250 687.5 l 1
 187.5 687.5 l 1
 187.5 625 l 1025
187.5 562.5 m 1
 250 562.5 l 1
 250 625 l 1
 187.5 625 l 1
 187.5 562.5 l 1025
187.5 500 m 1
 250 500 l 1
 250 562.5 l 1
 187.5 562.5 l 1
 187.5 500 l 1025
187.5 437.5 m 1
 250 437.5 l 1
 250 500 l 1
 187.5 500 l 1
 187.5 437.5 l 1025
187.5 375 m 1
 250 375 l 1
 250 437.5 l 1
 187.5 437.5 l 1
 187.5 375 l 1025
187.5 312.5 m 1
 250 312.5 l 1
 250 375 l 1
 187.5 375 l 1
 187.5 312.5 l 1025
187.5 250 m 1
 250 250 l 1
 250 312.5 l 1
 187.5 312.5 l 1
 187.5 250 l 1025
187.5 187.5 m 1
 250 187.5 l 1
 250 250 l 1
 187.5 250 l 1
 187.5 187.5 l 1025
187.5 125 m 1
 250 125 l 1
 250 187.5 l 1
 187.5 187.5 l 1
 187.5 125 l 1025
187.5 62.5 m 1
 250 62.5 l 1
 250 125 l 1
 187.5 125 l 1
 187.5 62.5 l 1025
187.5 0 m 1
 250 0 l 1
 250 62.5 l 1
 187.5 62.5 l 1
 187.5 0 l 1025
187.5 -62.5 m 1
 250 -62.5 l 1
 250 0 l 1
 187.5 0 l 1
 187.5 -62.5 l 1025
187.5 -125 m 1
 250 -125 l 1
 250 -62.5 l 1
 187.5 -62.5 l 1
 187.5 -125 l 1
EndSplineSet
EndChar

StartChar: braceright
Encoding: 125 125 124
Width: 500
VWidth: 0
Flags: HW
LayerCount: 2
Back
Fore
SplineSet
0 812.5 m 1
 125 812.5 l 1
 125 875 l 1
 0 875 l 1
 0 812.5 l 1025
125 750 m 1
 187.5 750 l 1
 187.5 812.5 l 1
 125 812.5 l 1
 125 750 l 1025
125 687.5 m 1
 187.5 687.5 l 1
 187.5 750 l 1
 125 750 l 1
 125 687.5 l 1025
125 625 m 1
 187.5 625 l 1
 187.5 687.5 l 1
 125 687.5 l 1
 125 625 l 1025
125 562.5 m 1
 187.5 562.5 l 1
 187.5 625 l 1
 125 625 l 1
 125 562.5 l 1025
125 500 m 1
 187.5 500 l 1
 187.5 562.5 l 1
 125 562.5 l 1
 125 500 l 1025
187.5 437.5 m 1
 250 437.5 l 1
 250 500 l 1
 187.5 500 l 1
 187.5 437.5 l 1025
250 375 m 1
 312.5 375 l 1
 312.5 437.5 l 1
 250 437.5 l 1
 250 375 l 1025
187.5 312.5 m 1
 250 312.5 l 1
 250 375 l 1
 187.5 375 l 1
 187.5 312.5 l 1025
125 250 m 1
 187.5 250 l 1
 187.5 312.5 l 1
 125 312.5 l 1
 125 250 l 1025
125 187.5 m 1
 187.5 187.5 l 1
 187.5 250 l 1
 125 250 l 1
 125 187.5 l 1025
125 125 m 1
 187.5 125 l 1
 187.5 187.5 l 1
 125 187.5 l 1
 125 125 l 1025
125 62.5 m 1
 187.5 62.5 l 1
 187.5 125 l 1
 125 125 l 1
 125 62.5 l 1025
125 0 m 1
 187.5 0 l 1
 187.5 62.5 l 1
 125 62.5 l 1
 125 0 l 1025
125 -62.5 m 1
 187.5 -62.5 l 1
 187.5 0 l 1
 125 0 l 1
 125 -62.5 l 1025
0 -125 m 1
 125 -125 l 1
 125 -62.5 l 1
 0 -62.5 l 1
 0 -125 l 1
EndSplineSet
EndChar

StartChar: asciitilde
Encoding: 126 126 125
Width: 500
VWidth: 0
Flags: HW
LayerCount: 2
Back
Fore
SplineSet
62.5 812.5 m 1
 187.5 812.5 l 1
 187.5 875 l 1
 62.5 875 l 1
 62.5 812.5 l 1025
0 750 m 1
 62.5 750 l 1
 62.5 812.5 l 1
 0 812.5 l 1
 0 750 l 1025
187.5 750 m 1
 250 750 l 1
 250 812.5 l 1
 187.5 812.5 l 1
 187.5 750 l 1025
375 750 m 1
 437.5 750 l 1
 437.5 812.5 l 1
 375 812.5 l 1
 375 750 l 1025
250 687.5 m 1
 375 687.5 l 1
 375 750 l 1
 250 750 l 1
 250 687.5 l 1
EndSplineSet
EndChar

StartChar: C241
Encoding: 161 161 126
Width: 500
VWidth: 0
Flags: HW
LayerCount: 2
Back
Fore
SplineSet
187.5 750 m 1
 250 750 l 1
 250 812.5 l 1
 187.5 812.5 l 1
 187.5 750 l 1025
125 687.5 m 1
 312.5 687.5 l 1
 312.5 750 l 1
 125 750 l 1
 125 687.5 l 1025
187.5 625 m 1
 250 625 l 1
 250 687.5 l 1
 187.5 687.5 l 1
 187.5 625 l 1025
187.5 437.5 m 1
 250 437.5 l 1
 250 500 l 1
 187.5 500 l 1
 187.5 437.5 l 1025
187.5 375 m 1
 250 375 l 1
 250 437.5 l 1
 187.5 437.5 l 1
 187.5 375 l 1025
187.5 312.5 m 1
 250 312.5 l 1
 250 375 l 1
 187.5 375 l 1
 187.5 312.5 l 1025
187.5 250 m 1
 250 250 l 1
 250 312.5 l 1
 187.5 312.5 l 1
 187.5 250 l 1025
125 187.5 m 1
 312.5 187.5 l 1
 312.5 250 l 1
 125 250 l 1
 125 187.5 l 1025
125 125 m 1
 312.5 125 l 1
 312.5 187.5 l 1
 125 187.5 l 1
 125 125 l 1025
125 62.5 m 1
 312.5 62.5 l 1
 312.5 125 l 1
 125 125 l 1
 125 62.5 l 1025
125 0 m 1
 312.5 0 l 1
 312.5 62.5 l 1
 125 62.5 l 1
 125 0 l 1025
125 -62.5 m 1
 312.5 -62.5 l 1
 312.5 0 l 1
 125 0 l 1
 125 -62.5 l 1025
125 -125 m 1
 312.5 -125 l 1
 312.5 -62.5 l 1
 125 -62.5 l 1
 125 -125 l 1
EndSplineSet
EndChar

StartChar: C242
Encoding: 162 162 127
Width: 500
VWidth: 0
Flags: HW
LayerCount: 2
Back
Fore
SplineSet
187.5 687.5 m 1
 250 687.5 l 1
 250 750 l 1
 187.5 750 l 1
 187.5 687.5 l 1025
125 625 m 1
 375 625 l 1
 375 687.5 l 1
 125 687.5 l 1
 125 625 l 1025
62.5 562.5 m 1
 125 562.5 l 1
 125 625 l 1
 62.5 625 l 1
 62.5 562.5 l 1025
187.5 562.5 m 1
 250 562.5 l 1
 250 625 l 1
 187.5 625 l 1
 187.5 562.5 l 1025
375 562.5 m 1
 437.5 562.5 l 1
 437.5 625 l 1
 375 625 l 1
 375 562.5 l 1025
0 500 m 1
 62.5 500 l 1
 62.5 562.5 l 1
 0 562.5 l 1
 0 500 l 1025
187.5 500 m 1
 250 500 l 1
 250 562.5 l 1
 187.5 562.5 l 1
 187.5 500 l 1025
375 500 m 1
 437.5 500 l 1
 437.5 562.5 l 1
 375 562.5 l 1
 375 500 l 1025
0 437.5 m 1
 62.5 437.5 l 1
 62.5 500 l 1
 0 500 l 1
 0 437.5 l 1025
187.5 437.5 m 1
 250 437.5 l 1
 250 500 l 1
 187.5 500 l 1
 187.5 437.5 l 1025
0 375 m 1
 62.5 375 l 1
 62.5 437.5 l 1
 0 437.5 l 1
 0 375 l 1025
187.5 375 m 1
 250 375 l 1
 250 437.5 l 1
 187.5 437.5 l 1
 187.5 375 l 1025
0 312.5 m 1
 62.5 312.5 l 1
 62.5 375 l 1
 0 375 l 1
 0 312.5 l 1025
187.5 312.5 m 1
 250 312.5 l 1
 250 375 l 1
 187.5 375 l 1
 187.5 312.5 l 1025
0 250 m 1
 62.5 250 l 1
 62.5 312.5 l 1
 0 312.5 l 1
 0 250 l 1025
187.5 250 m 1
 250 250 l 1
 250 312.5 l 1
 187.5 312.5 l 1
 187.5 250 l 1025
0 187.5 m 1
 62.5 187.5 l 1
 62.5 250 l 1
 0 250 l 1
 0 187.5 l 1025
187.5 187.5 m 1
 250 187.5 l 1
 250 250 l 1
 187.5 250 l 1
 187.5 187.5 l 1025
0 125 m 1
 62.5 125 l 1
 62.5 187.5 l 1
 0 187.5 l 1
 0 125 l 1025
187.5 125 m 1
 250 125 l 1
 250 187.5 l 1
 187.5 187.5 l 1
 187.5 125 l 1025
375 125 m 1
 437.5 125 l 1
 437.5 187.5 l 1
 375 187.5 l 1
 375 125 l 1025
62.5 62.5 m 1
 125 62.5 l 1
 125 125 l 1
 62.5 125 l 1
 62.5 62.5 l 1025
187.5 62.5 m 1
 250 62.5 l 1
 250 125 l 1
 187.5 125 l 1
 187.5 62.5 l 1025
375 62.5 m 1
 437.5 62.5 l 1
 437.5 125 l 1
 375 125 l 1
 375 62.5 l 1025
125 0 m 1
 375 0 l 1
 375 62.5 l 1
 125 62.5 l 1
 125 0 l 1025
187.5 -62.5 m 1
 250 -62.5 l 1
 250 0 l 1
 187.5 0 l 1
 187.5 -62.5 l 1
EndSplineSet
EndChar

StartChar: C243
Encoding: 163 163 128
Width: 500
VWidth: 0
Flags: HW
LayerCount: 2
Back
Fore
SplineSet
250 562.5 m 1
 375 562.5 l 1
 375 625 l 1
 250 625 l 1
 250 562.5 l 1025
187.5 500 m 1
 250 500 l 1
 250 562.5 l 1
 187.5 562.5 l 1
 187.5 500 l 1025
375 500 m 1
 437.5 500 l 1
 437.5 562.5 l 1
 375 562.5 l 1
 375 500 l 1025
187.5 437.5 m 1
 250 437.5 l 1
 250 500 l 1
 187.5 500 l 1
 187.5 437.5 l 1025
187.5 375 m 1
 250 375 l 1
 250 437.5 l 1
 187.5 437.5 l 1
 187.5 375 l 1025
187.5 312.5 m 1
 250 312.5 l 1
 250 375 l 1
 187.5 375 l 1
 187.5 312.5 l 1025
62.5 250 m 1
 375 250 l 1
 375 312.5 l 1
 62.5 312.5 l 1
 62.5 250 l 1025
187.5 187.5 m 1
 250 187.5 l 1
 250 250 l 1
 187.5 250 l 1
 187.5 187.5 l 1025
187.5 125 m 1
 250 125 l 1
 250 187.5 l 1
 187.5 187.5 l 1
 187.5 125 l 1025
125 62.5 m 1
 375 62.5 l 1
 375 125 l 1
 125 125 l 1
 125 62.5 l 1025
62.5 0 m 1
 125 0 l 1
 125 62.5 l 1
 62.5 62.5 l 1
 62.5 0 l 1025
187.5 0 m 1
 250 0 l 1
 250 62.5 l 1
 187.5 62.5 l 1
 187.5 0 l 1025
375 0 m 1
 437.5 0 l 1
 437.5 62.5 l 1
 375 62.5 l 1
 375 0 l 1025
125 -62.5 m 1
 187.5 -62.5 l 1
 187.5 0 l 1
 125 0 l 1
 125 -62.5 l 1
EndSplineSet
EndChar

StartChar: C244
Encoding: 164 164 129
Width: 500
VWidth: 0
Flags: HW
LayerCount: 2
Back
Fore
SplineSet
62.5 500 m 1
 125 500 l 1
 125 562.5 l 1
 62.5 562.5 l 1
 62.5 500 l 1025
375 500 m 1
 437.5 500 l 1
 437.5 562.5 l 1
 375 562.5 l 1
 375 500 l 1025
125 437.5 m 1
 375 437.5 l 1
 375 500 l 1
 125 500 l 1
 125 437.5 l 1025
125 375 m 1
 187.5 375 l 1
 187.5 437.5 l 1
 125 437.5 l 1
 125 375 l 1025
312.5 375 m 1
 375 375 l 1
 375 437.5 l 1
 312.5 437.5 l 1
 312.5 375 l 1025
125 312.5 m 1
 187.5 312.5 l 1
 187.5 375 l 1
 125 375 l 1
 125 312.5 l 1025
312.5 312.5 m 1
 375 312.5 l 1
 375 375 l 1
 312.5 375 l 1
 312.5 312.5 l 1025
125 250 m 1
 375 250 l 1
 375 312.5 l 1
 125 312.5 l 1
 125 250 l 1025
62.5 187.5 m 1
 125 187.5 l 1
 125 250 l 1
 62.5 250 l 1
 62.5 187.5 l 1025
375 187.5 m 1
 437.5 187.5 l 1
 437.5 250 l 1
 375 250 l 1
 375 187.5 l 1
EndSplineSet
EndChar

StartChar: C245
Encoding: 165 165 130
Width: 500
VWidth: 0
Flags: HW
LayerCount: 2
Back
Fore
SplineSet
0 812.5 m 1
 62.5 812.5 l 1
 62.5 875 l 1
 0 875 l 1
 0 812.5 l 1025
375 812.5 m 1
 437.5 812.5 l 1
 437.5 875 l 1
 375 875 l 1
 375 812.5 l 1025
0 750 m 1
 62.5 750 l 1
 62.5 812.5 l 1
 0 812.5 l 1
 0 750 l 1025
375 750 m 1
 437.5 750 l 1
 437.5 812.5 l 1
 375 812.5 l 1
 375 750 l 1025
62.5 687.5 m 1
 125 687.5 l 1
 125 750 l 1
 62.5 750 l 1
 62.5 687.5 l 1025
312.5 687.5 m 1
 375 687.5 l 1
 375 750 l 1
 312.5 750 l 1
 312.5 687.5 l 1025
62.5 625 m 1
 125 625 l 1
 125 687.5 l 1
 62.5 687.5 l 1
 62.5 625 l 1025
312.5 625 m 1
 375 625 l 1
 375 687.5 l 1
 312.5 687.5 l 1
 312.5 625 l 1025
0 562.5 m 1
 437.5 562.5 l 1
 437.5 625 l 1
 0 625 l 1
 0 562.5 l 1025
125 500 m 1
 187.5 500 l 1
 187.5 562.5 l 1
 125 562.5 l 1
 125 500 l 1025
250 500 m 1
 312.5 500 l 1
 312.5 562.5 l 1
 250 562.5 l 1
 250 500 l 1025
187.5 437.5 m 1
 250 437.5 l 1
 250 500 l 1
 187.5 500 l 1
 187.5 437.5 l 1025
0 375 m 1
 437.5 375 l 1
 437.5 437.5 l 1
 0 437.5 l 1
 0 375 l 1025
187.5 312.5 m 1
 250 312.5 l 1
 250 375 l 1
 187.5 375 l 1
 187.5 312.5 l 1025
187.5 250 m 1
 250 250 l 1
 250 312.5 l 1
 187.5 312.5 l 1
 187.5 250 l 1025
187.5 187.5 m 1
 250 187.5 l 1
 250 250 l 1
 187.5 250 l 1
 187.5 187.5 l 1025
187.5 125 m 1
 250 125 l 1
 250 187.5 l 1
 187.5 187.5 l 1
 187.5 125 l 1025
187.5 62.5 m 1
 250 62.5 l 1
 250 125 l 1
 187.5 125 l 1
 187.5 62.5 l 1025
125 0 m 1
 312.5 0 l 1
 312.5 62.5 l 1
 125 62.5 l 1
 125 0 l 1
EndSplineSet
EndChar

StartChar: C246
Encoding: 166 166 131
Width: 500
VWidth: 0
Flags: HW
LayerCount: 2
Back
Fore
SplineSet
187.5 750 m 1
 250 750 l 1
 250 812.5 l 1
 187.5 812.5 l 1
 187.5 750 l 1025
187.5 687.5 m 1
 250 687.5 l 1
 250 750 l 1
 187.5 750 l 1
 187.5 687.5 l 1025
187.5 625 m 1
 250 625 l 1
 250 687.5 l 1
 187.5 687.5 l 1
 187.5 625 l 1025
187.5 562.5 m 1
 250 562.5 l 1
 250 625 l 1
 187.5 625 l 1
 187.5 562.5 l 1025
187.5 500 m 1
 250 500 l 1
 250 562.5 l 1
 187.5 562.5 l 1
 187.5 500 l 1025
187.5 250 m 1
 250 250 l 1
 250 312.5 l 1
 187.5 312.5 l 1
 187.5 250 l 1025
187.5 187.5 m 1
 250 187.5 l 1
 250 250 l 1
 187.5 250 l 1
 187.5 187.5 l 1025
187.5 125 m 1
 250 125 l 1
 250 187.5 l 1
 187.5 187.5 l 1
 187.5 125 l 1025
187.5 62.5 m 1
 250 62.5 l 1
 250 125 l 1
 187.5 125 l 1
 187.5 62.5 l 1025
187.5 0 m 1
 250 0 l 1
 250 62.5 l 1
 187.5 62.5 l 1
 187.5 0 l 1
EndSplineSet
EndChar

StartChar: C247
Encoding: 167 167 132
Width: 500
VWidth: 0
Flags: HW
LayerCount: 2
Back
Fore
SplineSet
125 750 m 1
 375 750 l 1
 375 812.5 l 1
 125 812.5 l 1
 125 750 l 1025
62.5 687.5 m 1
 125 687.5 l 1
 125 750 l 1
 62.5 750 l 1
 62.5 687.5 l 1025
375 687.5 m 1
 437.5 687.5 l 1
 437.5 750 l 1
 375 750 l 1
 375 687.5 l 1025
62.5 625 m 1
 125 625 l 1
 125 687.5 l 1
 62.5 687.5 l 1
 62.5 625 l 1025
125 562.5 m 1
 187.5 562.5 l 1
 187.5 625 l 1
 125 625 l 1
 125 562.5 l 1025
125 500 m 1
 375 500 l 1
 375 562.5 l 1
 125 562.5 l 1
 125 500 l 1025
62.5 437.5 m 1
 125 437.5 l 1
 125 500 l 1
 62.5 500 l 1
 62.5 437.5 l 1025
375 437.5 m 1
 437.5 437.5 l 1
 437.5 500 l 1
 375 500 l 1
 375 437.5 l 1025
62.5 375 m 1
 125 375 l 1
 125 437.5 l 1
 62.5 437.5 l 1
 62.5 375 l 1025
375 375 m 1
 437.5 375 l 1
 437.5 437.5 l 1
 375 437.5 l 1
 375 375 l 1025
62.5 312.5 m 1
 125 312.5 l 1
 125 375 l 1
 62.5 375 l 1
 62.5 312.5 l 1025
375 312.5 m 1
 437.5 312.5 l 1
 437.5 375 l 1
 375 375 l 1
 375 312.5 l 1025
125 250 m 1
 375 250 l 1
 375 312.5 l 1
 125 312.5 l 1
 125 250 l 1025
312.5 187.5 m 1
 375 187.5 l 1
 375 250 l 1
 312.5 250 l 1
 312.5 187.5 l 1025
375 125 m 1
 437.5 125 l 1
 437.5 187.5 l 1
 375 187.5 l 1
 375 125 l 1025
62.5 62.5 m 1
 125 62.5 l 1
 125 125 l 1
 62.5 125 l 1
 62.5 62.5 l 1025
375 62.5 m 1
 437.5 62.5 l 1
 437.5 125 l 1
 375 125 l 1
 375 62.5 l 1025
125 0 m 1
 375 0 l 1
 375 62.5 l 1
 125 62.5 l 1
 125 0 l 1
EndSplineSet
EndChar

StartChar: C250
Encoding: 168 168 133
Width: 500
VWidth: 0
Flags: HW
LayerCount: 2
Back
Fore
SplineSet
125 750 m 1
 187.5 750 l 1
 187.5 812.5 l 1
 125 812.5 l 1
 125 750 l 1025
312.5 750 m 1
 375 750 l 1
 375 812.5 l 1
 312.5 812.5 l 1
 312.5 750 l 1025
125 687.5 m 1
 187.5 687.5 l 1
 187.5 750 l 1
 125 750 l 1
 125 687.5 l 1025
312.5 687.5 m 1
 375 687.5 l 1
 375 750 l 1
 312.5 750 l 1
 312.5 687.5 l 1025
125 625 m 1
 187.5 625 l 1
 187.5 687.5 l 1
 125 687.5 l 1
 125 625 l 1025
312.5 625 m 1
 375 625 l 1
 375 687.5 l 1
 312.5 687.5 l 1
 312.5 625 l 1
EndSplineSet
EndChar

StartChar: C251
Encoding: 169 169 134
Width: 500
VWidth: 0
Flags: HW
LayerCount: 2
Back
Fore
SplineSet
125 750 m 1
 375 750 l 1
 375 812.5 l 1
 125 812.5 l 1
 125 750 l 1025
62.5 687.5 m 1
 125 687.5 l 1
 125 750 l 1
 62.5 750 l 1
 62.5 687.5 l 1025
375 687.5 m 1
 437.5 687.5 l 1
 437.5 750 l 1
 375 750 l 1
 375 687.5 l 1025
0 625 m 1
 62.5 625 l 1
 62.5 687.5 l 1
 0 687.5 l 1
 0 625 l 1025
187.5 625 m 1
 312.5 625 l 1
 312.5 687.5 l 1
 187.5 687.5 l 1
 187.5 625 l 1025
437.5 625 m 1
 500 625 l 1
 500 687.5 l 1
 437.5 687.5 l 1
 437.5 625 l 1025
0 562.5 m 1
 62.5 562.5 l 1
 62.5 625 l 1
 0 625 l 1
 0 562.5 l 1025
125 562.5 m 1
 187.5 562.5 l 1
 187.5 625 l 1
 125 625 l 1
 125 562.5 l 1025
312.5 562.5 m 1
 375 562.5 l 1
 375 625 l 1
 312.5 625 l 1
 312.5 562.5 l 1025
437.5 562.5 m 1
 500 562.5 l 1
 500 625 l 1
 437.5 625 l 1
 437.5 562.5 l 1025
0 500 m 1
 125 500 l 1
 125 562.5 l 1
 0 562.5 l 1
 0 500 l 1025
375 500 m 1
 500 500 l 1
 500 562.5 l 1
 375 562.5 l 1
 375 500 l 1025
0 437.5 m 1
 125 437.5 l 1
 125 500 l 1
 0 500 l 1
 0 437.5 l 1025
437.5 437.5 m 1
 500 437.5 l 1
 500 500 l 1
 437.5 500 l 1
 437.5 437.5 l 1025
0 375 m 1
 125 375 l 1
 125 437.5 l 1
 0 437.5 l 1
 0 375 l 1025
437.5 375 m 1
 500 375 l 1
 500 437.5 l 1
 437.5 437.5 l 1
 437.5 375 l 1025
0 312.5 m 1
 125 312.5 l 1
 125 375 l 1
 0 375 l 1
 0 312.5 l 1025
437.5 312.5 m 1
 500 312.5 l 1
 500 375 l 1
 437.5 375 l 1
 437.5 312.5 l 1025
0 250 m 1
 125 250 l 1
 125 312.5 l 1
 0 312.5 l 1
 0 250 l 1025
375 250 m 1
 500 250 l 1
 500 312.5 l 1
 375 312.5 l 1
 375 250 l 1025
0 187.5 m 1
 62.5 187.5 l 1
 62.5 250 l 1
 0 250 l 1
 0 187.5 l 1025
125 187.5 m 1
 187.5 187.5 l 1
 187.5 250 l 1
 125 250 l 1
 125 187.5 l 1025
312.5 187.5 m 1
 375 187.5 l 1
 375 250 l 1
 312.5 250 l 1
 312.5 187.5 l 1025
437.5 187.5 m 1
 500 187.5 l 1
 500 250 l 1
 437.5 250 l 1
 437.5 187.5 l 1025
0 125 m 1
 62.5 125 l 1
 62.5 187.5 l 1
 0 187.5 l 1
 0 125 l 1025
187.5 125 m 1
 312.5 125 l 1
 312.5 187.5 l 1
 187.5 187.5 l 1
 187.5 125 l 1025
437.5 125 m 1
 500 125 l 1
 500 187.5 l 1
 437.5 187.5 l 1
 437.5 125 l 1025
62.5 62.5 m 1
 125 62.5 l 1
 125 125 l 1
 62.5 125 l 1
 62.5 62.5 l 1025
375 62.5 m 1
 437.5 62.5 l 1
 437.5 125 l 1
 375 125 l 1
 375 62.5 l 1025
125 0 m 1
 375 0 l 1
 375 62.5 l 1
 125 62.5 l 1
 125 0 l 1
EndSplineSet
EndChar

StartChar: C252
Encoding: 170 170 135
Width: 500
VWidth: 0
Flags: HW
LayerCount: 2
Back
Fore
SplineSet
187.5 750 m 1
 375 750 l 1
 375 812.5 l 1
 187.5 812.5 l 1
 187.5 750 l 1025
125 687.5 m 1
 187.5 687.5 l 1
 187.5 750 l 1
 125 750 l 1
 125 687.5 l 1025
375 687.5 m 1
 437.5 687.5 l 1
 437.5 750 l 1
 375 750 l 1
 375 687.5 l 1025
187.5 625 m 1
 437.5 625 l 1
 437.5 687.5 l 1
 187.5 687.5 l 1
 187.5 625 l 1025
125 562.5 m 1
 187.5 562.5 l 1
 187.5 625 l 1
 125 625 l 1
 125 562.5 l 1025
375 562.5 m 1
 437.5 562.5 l 1
 437.5 625 l 1
 375 625 l 1
 375 562.5 l 1025
125 500 m 1
 187.5 500 l 1
 187.5 562.5 l 1
 125 562.5 l 1
 125 500 l 1025
312.5 500 m 1
 437.5 500 l 1
 437.5 562.5 l 1
 312.5 562.5 l 1
 312.5 500 l 1025
187.5 437.5 m 1
 312.5 437.5 l 1
 312.5 500 l 1
 187.5 500 l 1
 187.5 437.5 l 1025
375 437.5 m 1
 437.5 437.5 l 1
 437.5 500 l 1
 375 500 l 1
 375 437.5 l 1025
125 312.5 m 1
 437.5 312.5 l 1
 437.5 375 l 1
 125 375 l 1
 125 312.5 l 1
EndSplineSet
EndChar

StartChar: C253
Encoding: 171 171 136
Width: 500
VWidth: 0
Flags: HW
LayerCount: 2
Back
Fore
SplineSet
250 625 m 1
 312.5 625 l 1
 312.5 687.5 l 1
 250 687.5 l 1
 250 625 l 1025
437.5 625 m 1
 500 625 l 1
 500 687.5 l 1
 437.5 687.5 l 1
 437.5 625 l 1025
187.5 562.5 m 1
 250 562.5 l 1
 250 625 l 1
 187.5 625 l 1
 187.5 562.5 l 1025
375 562.5 m 1
 437.5 562.5 l 1
 437.5 625 l 1
 375 625 l 1
 375 562.5 l 1025
125 500 m 1
 187.5 500 l 1
 187.5 562.5 l 1
 125 562.5 l 1
 125 500 l 1025
312.5 500 m 1
 375 500 l 1
 375 562.5 l 1
 312.5 562.5 l 1
 312.5 500 l 1025
62.5 437.5 m 1
 125 437.5 l 1
 125 500 l 1
 62.5 500 l 1
 62.5 437.5 l 1025
250 437.5 m 1
 312.5 437.5 l 1
 312.5 500 l 1
 250 500 l 1
 250 437.5 l 1025
0 375 m 1
 62.5 375 l 1
 62.5 437.5 l 1
 0 437.5 l 1
 0 375 l 1025
187.5 375 m 1
 250 375 l 1
 250 437.5 l 1
 187.5 437.5 l 1
 187.5 375 l 1025
0 312.5 m 1
 62.5 312.5 l 1
 62.5 375 l 1
 0 375 l 1
 0 312.5 l 1025
187.5 312.5 m 1
 250 312.5 l 1
 250 375 l 1
 187.5 375 l 1
 187.5 312.5 l 1025
62.5 250 m 1
 125 250 l 1
 125 312.5 l 1
 62.5 312.5 l 1
 62.5 250 l 1025
250 250 m 1
 312.5 250 l 1
 312.5 312.5 l 1
 250 312.5 l 1
 250 250 l 1025
125 187.5 m 1
 187.5 187.5 l 1
 187.5 250 l 1
 125 250 l 1
 125 187.5 l 1025
312.5 187.5 m 1
 375 187.5 l 1
 375 250 l 1
 312.5 250 l 1
 312.5 187.5 l 1025
187.5 125 m 1
 250 125 l 1
 250 187.5 l 1
 187.5 187.5 l 1
 187.5 125 l 1025
375 125 m 1
 437.5 125 l 1
 437.5 187.5 l 1
 375 187.5 l 1
 375 125 l 1025
250 62.5 m 1
 312.5 62.5 l 1
 312.5 125 l 1
 250 125 l 1
 250 62.5 l 1025
437.5 62.5 m 1
 500 62.5 l 1
 500 125 l 1
 437.5 125 l 1
 437.5 62.5 l 1
EndSplineSet
EndChar

StartChar: C254
Encoding: 172 172 137
Width: 500
VWidth: 0
Flags: HW
LayerCount: 2
Back
Fore
SplineSet
0 375 m 1
 437.5 375 l 1
 437.5 437.5 l 1
 0 437.5 l 1
 0 375 l 1025
0 312.5 m 1
 437.5 312.5 l 1
 437.5 375 l 1
 0 375 l 1
 0 312.5 l 1025
312.5 250 m 1
 437.5 250 l 1
 437.5 312.5 l 1
 312.5 312.5 l 1
 312.5 250 l 1025
312.5 187.5 m 1
 437.5 187.5 l 1
 437.5 250 l 1
 312.5 250 l 1
 312.5 187.5 l 1
EndSplineSet
EndChar

StartChar: C255
Encoding: 173 173 138
Width: 500
VWidth: 0
Flags: HW
LayerCount: 2
Back
Fore
SplineSet
0 375 m 1
 437.5 375 l 1
 437.5 437.5 l 1
 0 437.5 l 1
 0 375 l 1025
0 312.5 m 1
 437.5 312.5 l 1
 437.5 375 l 1
 0 375 l 1
 0 312.5 l 1
EndSplineSet
EndChar

StartChar: C256
Encoding: 174 174 139
Width: 500
VWidth: 0
Flags: HW
LayerCount: 2
Back
Fore
SplineSet
125 750 m 1
 375 750 l 1
 375 812.5 l 1
 125 812.5 l 1
 125 750 l 1025
62.5 687.5 m 1
 125 687.5 l 1
 125 750 l 1
 62.5 750 l 1
 62.5 687.5 l 1025
375 687.5 m 1
 437.5 687.5 l 1
 437.5 750 l 1
 375 750 l 1
 375 687.5 l 1025
0 625 m 1
 62.5 625 l 1
 62.5 687.5 l 1
 0 687.5 l 1
 0 625 l 1025
437.5 625 m 1
 500 625 l 1
 500 687.5 l 1
 437.5 687.5 l 1
 437.5 625 l 1025
0 562.5 m 1
 312.5 562.5 l 1
 312.5 625 l 1
 0 625 l 1
 0 562.5 l 1025
437.5 562.5 m 1
 500 562.5 l 1
 500 625 l 1
 437.5 625 l 1
 437.5 562.5 l 1025
0 500 m 1
 125 500 l 1
 125 562.5 l 1
 0 562.5 l 1
 0 500 l 1025
312.5 500 m 1
 375 500 l 1
 375 562.5 l 1
 312.5 562.5 l 1
 312.5 500 l 1025
437.5 500 m 1
 500 500 l 1
 500 562.5 l 1
 437.5 562.5 l 1
 437.5 500 l 1025
0 437.5 m 1
 125 437.5 l 1
 125 500 l 1
 0 500 l 1
 0 437.5 l 1025
312.5 437.5 m 1
 375 437.5 l 1
 375 500 l 1
 312.5 500 l 1
 312.5 437.5 l 1025
437.5 437.5 m 1
 500 437.5 l 1
 500 500 l 1
 437.5 500 l 1
 437.5 437.5 l 1025
0 375 m 1
 312.5 375 l 1
 312.5 437.5 l 1
 0 437.5 l 1
 0 375 l 1025
437.5 375 m 1
 500 375 l 1
 500 437.5 l 1
 437.5 437.5 l 1
 437.5 375 l 1025
0 312.5 m 1
 125 312.5 l 1
 125 375 l 1
 0 375 l 1
 0 312.5 l 1025
312.5 312.5 m 1
 375 312.5 l 1
 375 375 l 1
 312.5 375 l 1
 312.5 312.5 l 1025
437.5 312.5 m 1
 500 312.5 l 1
 500 375 l 1
 437.5 375 l 1
 437.5 312.5 l 1025
0 250 m 1
 125 250 l 1
 125 312.5 l 1
 0 312.5 l 1
 0 250 l 1025
312.5 250 m 1
 375 250 l 1
 375 312.5 l 1
 312.5 312.5 l 1
 312.5 250 l 1025
437.5 250 m 1
 500 250 l 1
 500 312.5 l 1
 437.5 312.5 l 1
 437.5 250 l 1025
0 187.5 m 1
 125 187.5 l 1
 125 250 l 1
 0 250 l 1
 0 187.5 l 1025
312.5 187.5 m 1
 375 187.5 l 1
 375 250 l 1
 312.5 250 l 1
 312.5 187.5 l 1025
437.5 187.5 m 1
 500 187.5 l 1
 500 250 l 1
 437.5 250 l 1
 437.5 187.5 l 1025
0 125 m 1
 62.5 125 l 1
 62.5 187.5 l 1
 0 187.5 l 1
 0 125 l 1025
437.5 125 m 1
 500 125 l 1
 500 187.5 l 1
 437.5 187.5 l 1
 437.5 125 l 1025
62.5 62.5 m 1
 125 62.5 l 1
 125 125 l 1
 62.5 125 l 1
 62.5 62.5 l 1025
375 62.5 m 1
 437.5 62.5 l 1
 437.5 125 l 1
 375 125 l 1
 375 62.5 l 1025
125 0 m 1
 375 0 l 1
 375 62.5 l 1
 125 62.5 l 1
 125 0 l 1
EndSplineSet
EndChar

StartChar: C257
Encoding: 175 175 140
Width: 500
VWidth: 0
Flags: HW
LayerCount: 2
Back
Fore
SplineSet
0 687.5 m 1
 437.5 687.5 l 1
 437.5 750 l 1
 0 750 l 1
 0 687.5 l 1
EndSplineSet
EndChar

StartChar: C260
Encoding: 176 176 141
Width: 500
VWidth: 0
Flags: HW
LayerCount: 2
Back
Fore
SplineSet
125 750 m 1
 312.5 750 l 1
 312.5 812.5 l 1
 125 812.5 l 1
 125 750 l 1025
62.5 687.5 m 1
 125 687.5 l 1
 125 750 l 1
 62.5 750 l 1
 62.5 687.5 l 1025
312.5 687.5 m 1
 375 687.5 l 1
 375 750 l 1
 312.5 750 l 1
 312.5 687.5 l 1025
62.5 625 m 1
 125 625 l 1
 125 687.5 l 1
 62.5 687.5 l 1
 62.5 625 l 1025
312.5 625 m 1
 375 625 l 1
 375 687.5 l 1
 312.5 687.5 l 1
 312.5 625 l 1025
62.5 562.5 m 1
 125 562.5 l 1
 125 625 l 1
 62.5 625 l 1
 62.5 562.5 l 1025
312.5 562.5 m 1
 375 562.5 l 1
 375 625 l 1
 312.5 625 l 1
 312.5 562.5 l 1025
125 500 m 1
 312.5 500 l 1
 312.5 562.5 l 1
 125 562.5 l 1
 125 500 l 1
EndSplineSet
EndChar

StartChar: C261
Encoding: 177 177 142
Width: 500
VWidth: 0
Flags: HW
LayerCount: 2
Back
Fore
SplineSet
187.5 562.5 m 1
 250 562.5 l 1
 250 625 l 1
 187.5 625 l 1
 187.5 562.5 l 1025
187.5 500 m 1
 250 500 l 1
 250 562.5 l 1
 187.5 562.5 l 1
 187.5 500 l 1025
187.5 437.5 m 1
 250 437.5 l 1
 250 500 l 1
 187.5 500 l 1
 187.5 437.5 l 1025
0 375 m 1
 437.5 375 l 1
 437.5 437.5 l 1
 0 437.5 l 1
 0 375 l 1025
187.5 312.5 m 1
 250 312.5 l 1
 250 375 l 1
 187.5 375 l 1
 187.5 312.5 l 1025
187.5 250 m 1
 250 250 l 1
 250 312.5 l 1
 187.5 312.5 l 1
 187.5 250 l 1025
187.5 187.5 m 1
 250 187.5 l 1
 250 250 l 1
 187.5 250 l 1
 187.5 187.5 l 1025
0 62.5 m 1
 437.5 62.5 l 1
 437.5 125 l 1
 0 125 l 1
 0 62.5 l 1
EndSplineSet
EndChar

StartChar: C262
Encoding: 178 178 143
Width: 500
VWidth: 0
Flags: HW
LayerCount: 2
Back
Fore
SplineSet
187.5 750 m 1
 312.5 750 l 1
 312.5 812.5 l 1
 187.5 812.5 l 1
 187.5 750 l 1025
125 687.5 m 1
 187.5 687.5 l 1
 187.5 750 l 1
 125 750 l 1
 125 687.5 l 1025
312.5 687.5 m 1
 375 687.5 l 1
 375 750 l 1
 312.5 750 l 1
 312.5 687.5 l 1025
312.5 625 m 1
 375 625 l 1
 375 687.5 l 1
 312.5 687.5 l 1
 312.5 625 l 1025
250 562.5 m 1
 312.5 562.5 l 1
 312.5 625 l 1
 250 625 l 1
 250 562.5 l 1025
187.5 500 m 1
 250 500 l 1
 250 562.5 l 1
 187.5 562.5 l 1
 187.5 500 l 1025
125 437.5 m 1
 187.5 437.5 l 1
 187.5 500 l 1
 125 500 l 1
 125 437.5 l 1025
125 375 m 1
 375 375 l 1
 375 437.5 l 1
 125 437.5 l 1
 125 375 l 1
EndSplineSet
EndChar

StartChar: C263
Encoding: 179 179 144
Width: 500
VWidth: 0
Flags: HW
LayerCount: 2
Back
Fore
SplineSet
187.5 750 m 1
 312.5 750 l 1
 312.5 812.5 l 1
 187.5 812.5 l 1
 187.5 750 l 1025
125 687.5 m 1
 187.5 687.5 l 1
 187.5 750 l 1
 125 750 l 1
 125 687.5 l 1025
312.5 687.5 m 1
 375 687.5 l 1
 375 750 l 1
 312.5 750 l 1
 312.5 687.5 l 1025
312.5 625 m 1
 375 625 l 1
 375 687.5 l 1
 312.5 687.5 l 1
 312.5 625 l 1025
187.5 562.5 m 1
 312.5 562.5 l 1
 312.5 625 l 1
 187.5 625 l 1
 187.5 562.5 l 1025
312.5 500 m 1
 375 500 l 1
 375 562.5 l 1
 312.5 562.5 l 1
 312.5 500 l 1025
125 437.5 m 1
 187.5 437.5 l 1
 187.5 500 l 1
 125 500 l 1
 125 437.5 l 1025
312.5 437.5 m 1
 375 437.5 l 1
 375 500 l 1
 312.5 500 l 1
 312.5 437.5 l 1025
187.5 375 m 1
 312.5 375 l 1
 312.5 437.5 l 1
 187.5 437.5 l 1
 187.5 375 l 1
EndSplineSet
EndChar

StartChar: C264
Encoding: 180 180 145
Width: 500
VWidth: 0
Flags: HW
LayerCount: 2
Back
Fore
SplineSet
250 750 m 1
 375 750 l 1
 375 812.5 l 1
 250 812.5 l 1
 250 750 l 1025
187.5 687.5 m 1
 312.5 687.5 l 1
 312.5 750 l 1
 187.5 750 l 1
 187.5 687.5 l 1025
125 625 m 1
 250 625 l 1
 250 687.5 l 1
 125 687.5 l 1
 125 625 l 1
EndSplineSet
EndChar

StartChar: C265
Encoding: 181 181 146
Width: 500
VWidth: 0
Flags: HW
LayerCount: 2
Back
Fore
SplineSet
125 375 m 1
 187.5 375 l 1
 187.5 437.5 l 1
 125 437.5 l 1
 125 375 l 1025
375 375 m 1
 437.5 375 l 1
 437.5 437.5 l 1
 375 437.5 l 1
 375 375 l 1025
125 312.5 m 1
 187.5 312.5 l 1
 187.5 375 l 1
 125 375 l 1
 125 312.5 l 1025
375 312.5 m 1
 437.5 312.5 l 1
 437.5 375 l 1
 375 375 l 1
 375 312.5 l 1025
125 250 m 1
 187.5 250 l 1
 187.5 312.5 l 1
 125 312.5 l 1
 125 250 l 1025
375 250 m 1
 437.5 250 l 1
 437.5 312.5 l 1
 375 312.5 l 1
 375 250 l 1025
62.5 187.5 m 1
 125 187.5 l 1
 125 250 l 1
 62.5 250 l 1
 62.5 187.5 l 1025
312.5 187.5 m 1
 375 187.5 l 1
 375 250 l 1
 312.5 250 l 1
 312.5 187.5 l 1025
62.5 125 m 1
 125 125 l 1
 125 187.5 l 1
 62.5 187.5 l 1
 62.5 125 l 1025
312.5 125 m 1
 375 125 l 1
 375 187.5 l 1
 312.5 187.5 l 1
 312.5 125 l 1025
62.5 62.5 m 1
 187.5 62.5 l 1
 187.5 125 l 1
 62.5 125 l 1
 62.5 62.5 l 1025
250 62.5 m 1
 375 62.5 l 1
 375 125 l 1
 250 125 l 1
 250 62.5 l 1025
62.5 0 m 1
 125 0 l 1
 125 62.5 l 1
 62.5 62.5 l 1
 62.5 0 l 1025
187.5 0 m 1
 250 0 l 1
 250 62.5 l 1
 187.5 62.5 l 1
 187.5 0 l 1025
312.5 0 m 1
 375 0 l 1
 375 62.5 l 1
 312.5 62.5 l 1
 312.5 0 l 1025
0 -62.5 m 1
 62.5 -62.5 l 1
 62.5 0 l 1
 0 0 l 1
 0 -62.5 l 1025
375 -62.5 m 1
 437.5 -62.5 l 1
 437.5 0 l 1
 375 0 l 1
 375 -62.5 l 1025
0 -125 m 1
 62.5 -125 l 1
 62.5 -62.5 l 1
 0 -62.5 l 1
 0 -125 l 1
EndSplineSet
EndChar

StartChar: C266
Encoding: 182 182 147
Width: 500
VWidth: 0
Flags: HW
LayerCount: 2
Back
Fore
SplineSet
62.5 750 m 1
 500 750 l 1
 500 812.5 l 1
 62.5 812.5 l 1
 62.5 750 l 1025
0 687.5 m 1
 312.5 687.5 l 1
 312.5 750 l 1
 0 750 l 1
 0 687.5 l 1025
375 687.5 m 1
 437.5 687.5 l 1
 437.5 750 l 1
 375 750 l 1
 375 687.5 l 1025
0 625 m 1
 312.5 625 l 1
 312.5 687.5 l 1
 0 687.5 l 1
 0 625 l 1025
375 625 m 1
 437.5 625 l 1
 437.5 687.5 l 1
 375 687.5 l 1
 375 625 l 1025
0 562.5 m 1
 312.5 562.5 l 1
 312.5 625 l 1
 0 625 l 1
 0 562.5 l 1025
375 562.5 m 1
 437.5 562.5 l 1
 437.5 625 l 1
 375 625 l 1
 375 562.5 l 1025
0 500 m 1
 312.5 500 l 1
 312.5 562.5 l 1
 0 562.5 l 1
 0 500 l 1025
375 500 m 1
 437.5 500 l 1
 437.5 562.5 l 1
 375 562.5 l 1
 375 500 l 1025
0 437.5 m 1
 312.5 437.5 l 1
 312.5 500 l 1
 0 500 l 1
 0 437.5 l 1025
375 437.5 m 1
 437.5 437.5 l 1
 437.5 500 l 1
 375 500 l 1
 375 437.5 l 1025
62.5 375 m 1
 312.5 375 l 1
 312.5 437.5 l 1
 62.5 437.5 l 1
 62.5 375 l 1025
375 375 m 1
 437.5 375 l 1
 437.5 437.5 l 1
 375 437.5 l 1
 375 375 l 1025
250 312.5 m 1
 312.5 312.5 l 1
 312.5 375 l 1
 250 375 l 1
 250 312.5 l 1025
375 312.5 m 1
 437.5 312.5 l 1
 437.5 375 l 1
 375 375 l 1
 375 312.5 l 1025
250 250 m 1
 312.5 250 l 1
 312.5 312.5 l 1
 250 312.5 l 1
 250 250 l 1025
375 250 m 1
 437.5 250 l 1
 437.5 312.5 l 1
 375 312.5 l 1
 375 250 l 1025
250 187.5 m 1
 312.5 187.5 l 1
 312.5 250 l 1
 250 250 l 1
 250 187.5 l 1025
375 187.5 m 1
 437.5 187.5 l 1
 437.5 250 l 1
 375 250 l 1
 375 187.5 l 1025
250 125 m 1
 312.5 125 l 1
 312.5 187.5 l 1
 250 187.5 l 1
 250 125 l 1025
375 125 m 1
 437.5 125 l 1
 437.5 187.5 l 1
 375 187.5 l 1
 375 125 l 1025
250 62.5 m 1
 312.5 62.5 l 1
 312.5 125 l 1
 250 125 l 1
 250 62.5 l 1025
375 62.5 m 1
 437.5 62.5 l 1
 437.5 125 l 1
 375 125 l 1
 375 62.5 l 1025
187.5 0 m 1
 312.5 0 l 1
 312.5 62.5 l 1
 187.5 62.5 l 1
 187.5 0 l 1025
375 0 m 1
 500 0 l 1
 500 62.5 l 1
 375 62.5 l 1
 375 0 l 1
EndSplineSet
EndChar

StartChar: C267
Encoding: 183 183 148
Width: 500
VWidth: 0
Flags: HW
LayerCount: 2
Back
Fore
SplineSet
187.5 437.5 m 1
 312.5 437.5 l 1
 312.5 500 l 1
 187.5 500 l 1
 187.5 437.5 l 1025
187.5 375 m 1
 312.5 375 l 1
 312.5 437.5 l 1
 187.5 437.5 l 1
 187.5 375 l 1
EndSplineSet
EndChar

StartChar: C270
Encoding: 184 184 149
Width: 500
VWidth: 0
Flags: HW
LayerCount: 2
Back
Fore
SplineSet
250 0 m 1
 375 0 l 1
 375 62.5 l 1
 250 62.5 l 1
 250 0 l 1025
250 -62.5 m 1
 312.5 -62.5 l 1
 312.5 0 l 1
 250 0 l 1
 250 -62.5 l 1025
187.5 -125 m 1
 250 -125 l 1
 250 -62.5 l 1
 187.5 -62.5 l 1
 187.5 -125 l 1
EndSplineSet
EndChar

StartChar: C271
Encoding: 185 185 150
Width: 500
VWidth: 0
Flags: HW
LayerCount: 2
Back
Fore
SplineSet
250 750 m 1
 312.5 750 l 1
 312.5 812.5 l 1
 250 812.5 l 1
 250 750 l 1025
187.5 687.5 m 1
 312.5 687.5 l 1
 312.5 750 l 1
 187.5 750 l 1
 187.5 687.5 l 1025
125 625 m 1
 187.5 625 l 1
 187.5 687.5 l 1
 125 687.5 l 1
 125 625 l 1025
250 625 m 1
 312.5 625 l 1
 312.5 687.5 l 1
 250 687.5 l 1
 250 625 l 1025
250 562.5 m 1
 312.5 562.5 l 1
 312.5 625 l 1
 250 625 l 1
 250 562.5 l 1025
250 500 m 1
 312.5 500 l 1
 312.5 562.5 l 1
 250 562.5 l 1
 250 500 l 1025
250 437.5 m 1
 312.5 437.5 l 1
 312.5 500 l 1
 250 500 l 1
 250 437.5 l 1025
250 375 m 1
 312.5 375 l 1
 312.5 437.5 l 1
 250 437.5 l 1
 250 375 l 1
EndSplineSet
EndChar

StartChar: C272
Encoding: 186 186 151
Width: 500
VWidth: 0
Flags: HW
LayerCount: 2
Back
Fore
SplineSet
187.5 750 m 1
 312.5 750 l 1
 312.5 812.5 l 1
 187.5 812.5 l 1
 187.5 750 l 1025
125 687.5 m 1
 187.5 687.5 l 1
 187.5 750 l 1
 125 750 l 1
 125 687.5 l 1025
312.5 687.5 m 1
 375 687.5 l 1
 375 750 l 1
 312.5 750 l 1
 312.5 687.5 l 1025
125 625 m 1
 187.5 625 l 1
 187.5 687.5 l 1
 125 687.5 l 1
 125 625 l 1025
312.5 625 m 1
 375 625 l 1
 375 687.5 l 1
 312.5 687.5 l 1
 312.5 625 l 1025
125 562.5 m 1
 187.5 562.5 l 1
 187.5 625 l 1
 125 625 l 1
 125 562.5 l 1025
312.5 562.5 m 1
 375 562.5 l 1
 375 625 l 1
 312.5 625 l 1
 312.5 562.5 l 1025
125 500 m 1
 187.5 500 l 1
 187.5 562.5 l 1
 125 562.5 l 1
 125 500 l 1025
312.5 500 m 1
 375 500 l 1
 375 562.5 l 1
 312.5 562.5 l 1
 312.5 500 l 1025
187.5 437.5 m 1
 312.5 437.5 l 1
 312.5 500 l 1
 187.5 500 l 1
 187.5 437.5 l 1025
125 312.5 m 1
 375 312.5 l 1
 375 375 l 1
 125 375 l 1
 125 312.5 l 1
EndSplineSet
EndChar

StartChar: C273
Encoding: 187 187 152
Width: 500
VWidth: 0
Flags: HW
LayerCount: 2
Back
Fore
SplineSet
0 562.5 m 1
 62.5 562.5 l 1
 62.5 625 l 1
 0 625 l 1
 0 562.5 l 1025
187.5 562.5 m 1
 250 562.5 l 1
 250 625 l 1
 187.5 625 l 1
 187.5 562.5 l 1025
62.5 500 m 1
 125 500 l 1
 125 562.5 l 1
 62.5 562.5 l 1
 62.5 500 l 1025
250 500 m 1
 312.5 500 l 1
 312.5 562.5 l 1
 250 562.5 l 1
 250 500 l 1025
125 437.5 m 1
 187.5 437.5 l 1
 187.5 500 l 1
 125 500 l 1
 125 437.5 l 1025
312.5 437.5 m 1
 375 437.5 l 1
 375 500 l 1
 312.5 500 l 1
 312.5 437.5 l 1025
187.5 375 m 1
 250 375 l 1
 250 437.5 l 1
 187.5 437.5 l 1
 187.5 375 l 1025
375 375 m 1
 437.5 375 l 1
 437.5 437.5 l 1
 375 437.5 l 1
 375 375 l 1025
250 312.5 m 1
 312.5 312.5 l 1
 312.5 375 l 1
 250 375 l 1
 250 312.5 l 1025
437.5 312.5 m 1
 500 312.5 l 1
 500 375 l 1
 437.5 375 l 1
 437.5 312.5 l 1025
250 250 m 1
 312.5 250 l 1
 312.5 312.5 l 1
 250 312.5 l 1
 250 250 l 1025
437.5 250 m 1
 500 250 l 1
 500 312.5 l 1
 437.5 312.5 l 1
 437.5 250 l 1025
187.5 187.5 m 1
 250 187.5 l 1
 250 250 l 1
 187.5 250 l 1
 187.5 187.5 l 1025
375 187.5 m 1
 437.5 187.5 l 1
 437.5 250 l 1
 375 250 l 1
 375 187.5 l 1025
125 125 m 1
 187.5 125 l 1
 187.5 187.5 l 1
 125 187.5 l 1
 125 125 l 1025
312.5 125 m 1
 375 125 l 1
 375 187.5 l 1
 312.5 187.5 l 1
 312.5 125 l 1025
62.5 62.5 m 1
 125 62.5 l 1
 125 125 l 1
 62.5 125 l 1
 62.5 62.5 l 1025
250 62.5 m 1
 312.5 62.5 l 1
 312.5 125 l 1
 250 125 l 1
 250 62.5 l 1025
0 0 m 1
 62.5 0 l 1
 62.5 62.5 l 1
 0 62.5 l 1
 0 0 l 1025
187.5 0 m 1
 250 0 l 1
 250 62.5 l 1
 187.5 62.5 l 1
 187.5 0 l 1
EndSplineSet
EndChar

StartChar: C274
Encoding: 188 188 153
Width: 500
VWidth: 0
Flags: HW
LayerCount: 2
Back
Fore
SplineSet
62.5 750 m 1
 125 750 l 1
 125 812.5 l 1
 62.5 812.5 l 1
 62.5 750 l 1025
0 687.5 m 1
 125 687.5 l 1
 125 750 l 1
 0 750 l 1
 0 687.5 l 1025
62.5 625 m 1
 125 625 l 1
 125 687.5 l 1
 62.5 687.5 l 1
 62.5 625 l 1025
62.5 562.5 m 1
 125 562.5 l 1
 125 625 l 1
 62.5 625 l 1
 62.5 562.5 l 1025
62.5 500 m 1
 125 500 l 1
 125 562.5 l 1
 62.5 562.5 l 1
 62.5 500 l 1025
437.5 500 m 1
 500 500 l 1
 500 562.5 l 1
 437.5 562.5 l 1
 437.5 500 l 1025
62.5 437.5 m 1
 125 437.5 l 1
 125 500 l 1
 62.5 500 l 1
 62.5 437.5 l 1025
312.5 437.5 m 1
 437.5 437.5 l 1
 437.5 500 l 1
 312.5 500 l 1
 312.5 437.5 l 1025
250 375 m 1
 312.5 375 l 1
 312.5 437.5 l 1
 250 437.5 l 1
 250 375 l 1025
125 312.5 m 1
 250 312.5 l 1
 250 375 l 1
 125 375 l 1
 125 312.5 l 1025
375 312.5 m 1
 437.5 312.5 l 1
 437.5 375 l 1
 375 375 l 1
 375 312.5 l 1025
0 250 m 1
 125 250 l 1
 125 312.5 l 1
 0 312.5 l 1
 0 250 l 1025
312.5 250 m 1
 437.5 250 l 1
 437.5 312.5 l 1
 312.5 312.5 l 1
 312.5 250 l 1025
250 187.5 m 1
 312.5 187.5 l 1
 312.5 250 l 1
 250 250 l 1
 250 187.5 l 1025
375 187.5 m 1
 437.5 187.5 l 1
 437.5 250 l 1
 375 250 l 1
 375 187.5 l 1025
187.5 125 m 1
 250 125 l 1
 250 187.5 l 1
 187.5 187.5 l 1
 187.5 125 l 1025
375 125 m 1
 437.5 125 l 1
 437.5 187.5 l 1
 375 187.5 l 1
 375 125 l 1025
187.5 62.5 m 1
 500 62.5 l 1
 500 125 l 1
 187.5 125 l 1
 187.5 62.5 l 1025
375 0 m 1
 437.5 0 l 1
 437.5 62.5 l 1
 375 62.5 l 1
 375 0 l 1
EndSplineSet
EndChar

StartChar: C275
Encoding: 189 189 154
Width: 500
VWidth: 0
Flags: HW
LayerCount: 2
Back
Fore
SplineSet
62.5 750 m 1
 125 750 l 1
 125 812.5 l 1
 62.5 812.5 l 1
 62.5 750 l 1025
0 687.5 m 1
 125 687.5 l 1
 125 750 l 1
 0 750 l 1
 0 687.5 l 1025
62.5 625 m 1
 125 625 l 1
 125 687.5 l 1
 62.5 687.5 l 1
 62.5 625 l 1025
62.5 562.5 m 1
 125 562.5 l 1
 125 625 l 1
 62.5 625 l 1
 62.5 562.5 l 1025
62.5 500 m 1
 125 500 l 1
 125 562.5 l 1
 62.5 562.5 l 1
 62.5 500 l 1025
437.5 500 m 1
 500 500 l 1
 500 562.5 l 1
 437.5 562.5 l 1
 437.5 500 l 1025
62.5 437.5 m 1
 125 437.5 l 1
 125 500 l 1
 62.5 500 l 1
 62.5 437.5 l 1025
312.5 437.5 m 1
 437.5 437.5 l 1
 437.5 500 l 1
 312.5 500 l 1
 312.5 437.5 l 1025
250 375 m 1
 312.5 375 l 1
 312.5 437.5 l 1
 250 437.5 l 1
 250 375 l 1025
125 312.5 m 1
 250 312.5 l 1
 250 375 l 1
 125 375 l 1
 125 312.5 l 1025
312.5 312.5 m 1
 437.5 312.5 l 1
 437.5 375 l 1
 312.5 375 l 1
 312.5 312.5 l 1025
0 250 m 1
 125 250 l 1
 125 312.5 l 1
 0 312.5 l 1
 0 250 l 1025
250 250 m 1
 312.5 250 l 1
 312.5 312.5 l 1
 250 312.5 l 1
 250 250 l 1025
437.5 250 m 1
 500 250 l 1
 500 312.5 l 1
 437.5 312.5 l 1
 437.5 250 l 1025
437.5 187.5 m 1
 500 187.5 l 1
 500 250 l 1
 437.5 250 l 1
 437.5 187.5 l 1025
312.5 125 m 1
 437.5 125 l 1
 437.5 187.5 l 1
 312.5 187.5 l 1
 312.5 125 l 1025
250 62.5 m 1
 312.5 62.5 l 1
 312.5 125 l 1
 250 125 l 1
 250 62.5 l 1025
250 0 m 1
 500 0 l 1
 500 62.5 l 1
 250 62.5 l 1
 250 0 l 1
EndSplineSet
EndChar

StartChar: C276
Encoding: 190 190 155
Width: 500
VWidth: 0
Flags: HW
LayerCount: 2
Back
Fore
SplineSet
62.5 750 m 1
 187.5 750 l 1
 187.5 812.5 l 1
 62.5 812.5 l 1
 62.5 750 l 1025
0 687.5 m 1
 62.5 687.5 l 1
 62.5 750 l 1
 0 750 l 1
 0 687.5 l 1025
187.5 687.5 m 1
 250 687.5 l 1
 250 750 l 1
 187.5 750 l 1
 187.5 687.5 l 1025
187.5 625 m 1
 250 625 l 1
 250 687.5 l 1
 187.5 687.5 l 1
 187.5 625 l 1025
62.5 562.5 m 1
 187.5 562.5 l 1
 187.5 625 l 1
 62.5 625 l 1
 62.5 562.5 l 1025
187.5 500 m 1
 250 500 l 1
 250 562.5 l 1
 187.5 562.5 l 1
 187.5 500 l 1025
437.5 500 m 1
 500 500 l 1
 500 562.5 l 1
 437.5 562.5 l 1
 437.5 500 l 1025
0 437.5 m 1
 62.5 437.5 l 1
 62.5 500 l 1
 0 500 l 1
 0 437.5 l 1025
187.5 437.5 m 1
 250 437.5 l 1
 250 500 l 1
 187.5 500 l 1
 187.5 437.5 l 1025
312.5 437.5 m 1
 437.5 437.5 l 1
 437.5 500 l 1
 312.5 500 l 1
 312.5 437.5 l 1025
62.5 375 m 1
 187.5 375 l 1
 187.5 437.5 l 1
 62.5 437.5 l 1
 62.5 375 l 1025
250 375 m 1
 312.5 375 l 1
 312.5 437.5 l 1
 250 437.5 l 1
 250 375 l 1025
125 312.5 m 1
 250 312.5 l 1
 250 375 l 1
 125 375 l 1
 125 312.5 l 1025
375 312.5 m 1
 437.5 312.5 l 1
 437.5 375 l 1
 375 375 l 1
 375 312.5 l 1025
0 250 m 1
 125 250 l 1
 125 312.5 l 1
 0 312.5 l 1
 0 250 l 1025
312.5 250 m 1
 437.5 250 l 1
 437.5 312.5 l 1
 312.5 312.5 l 1
 312.5 250 l 1025
250 187.5 m 1
 312.5 187.5 l 1
 312.5 250 l 1
 250 250 l 1
 250 187.5 l 1025
375 187.5 m 1
 437.5 187.5 l 1
 437.5 250 l 1
 375 250 l 1
 375 187.5 l 1025
187.5 125 m 1
 250 125 l 1
 250 187.5 l 1
 187.5 187.5 l 1
 187.5 125 l 1025
375 125 m 1
 437.5 125 l 1
 437.5 187.5 l 1
 375 187.5 l 1
 375 125 l 1025
187.5 62.5 m 1
 500 62.5 l 1
 500 125 l 1
 187.5 125 l 1
 187.5 62.5 l 1025
375 0 m 1
 437.5 0 l 1
 437.5 62.5 l 1
 375 62.5 l 1
 375 0 l 1
EndSplineSet
EndChar

